%TF.GenerationSoftware,KiCad,Pcbnew,9.0.6*%
%TF.CreationDate,2026-01-31T16:43:30+03:00*%
%TF.ProjectId,st-valentine-postcard,73742d76-616c-4656-9e74-696e652d706f,rev?*%
%TF.SameCoordinates,Original*%
%TF.FileFunction,Soldermask,Bot*%
%TF.FilePolarity,Negative*%
%FSLAX46Y46*%
G04 Gerber Fmt 4.6, Leading zero omitted, Abs format (unit mm)*
G04 Created by KiCad (PCBNEW 9.0.6) date 2026-01-31 16:43:30*
%MOMM*%
%LPD*%
G01*
G04 APERTURE LIST*
G04 Aperture macros list*
%AMRoundRect*
0 Rectangle with rounded corners*
0 $1 Rounding radius*
0 $2 $3 $4 $5 $6 $7 $8 $9 X,Y pos of 4 corners*
0 Add a 4 corners polygon primitive as box body*
4,1,4,$2,$3,$4,$5,$6,$7,$8,$9,$2,$3,0*
0 Add four circle primitives for the rounded corners*
1,1,$1+$1,$2,$3*
1,1,$1+$1,$4,$5*
1,1,$1+$1,$6,$7*
1,1,$1+$1,$8,$9*
0 Add four rect primitives between the rounded corners*
20,1,$1+$1,$2,$3,$4,$5,0*
20,1,$1+$1,$4,$5,$6,$7,0*
20,1,$1+$1,$6,$7,$8,$9,0*
20,1,$1+$1,$8,$9,$2,$3,0*%
G04 Aperture macros list end*
%ADD10R,1.350000X1.350000*%
%ADD11C,1.350000*%
%ADD12C,2.000000*%
%ADD13R,1.700000X1.700000*%
%ADD14C,1.700000*%
%ADD15RoundRect,0.137500X0.222739X-0.028284X-0.028284X0.222739X-0.222739X0.028284X0.028284X-0.222739X0*%
%ADD16RoundRect,0.137500X0.177500X0.137500X-0.177500X0.137500X-0.177500X-0.137500X0.177500X-0.137500X0*%
%ADD17RoundRect,0.137500X-0.177500X-0.137500X0.177500X-0.137500X0.177500X0.137500X-0.177500X0.137500X0*%
%ADD18C,1.600000*%
%ADD19RoundRect,0.100000X0.637500X0.100000X-0.637500X0.100000X-0.637500X-0.100000X0.637500X-0.100000X0*%
%ADD20RoundRect,0.137500X0.137500X-0.177500X0.137500X0.177500X-0.137500X0.177500X-0.137500X-0.177500X0*%
%ADD21RoundRect,0.137500X0.028284X0.222739X-0.222739X-0.028284X-0.028284X-0.222739X0.222739X0.028284X0*%
%ADD22C,2.500000*%
G04 APERTURE END LIST*
D10*
%TO.C,J1*%
X145000000Y-97500000D03*
D11*
X147000000Y-97500000D03*
X149000000Y-97500000D03*
X151000000Y-97500000D03*
X153000000Y-97500000D03*
X155000000Y-97500000D03*
%TD*%
D12*
%TO.C,SW1*%
X146750000Y-87750000D03*
X153250000Y-87750000D03*
X146750000Y-92250000D03*
X153250000Y-92250000D03*
%TD*%
D13*
%TO.C,J2*%
X142500000Y-87725000D03*
D14*
X142500000Y-90265000D03*
%TD*%
D15*
%TO.C,R10*%
X138893449Y-97293449D03*
X138306551Y-96706551D03*
%TD*%
D16*
%TO.C,R1*%
X149165000Y-82700000D03*
X148335000Y-82700000D03*
%TD*%
D17*
%TO.C,R3*%
X159335000Y-72500000D03*
X160165000Y-72500000D03*
%TD*%
D18*
%TO.C,C2*%
X165250000Y-86500000D03*
X162750000Y-86500000D03*
%TD*%
D19*
%TO.C,U1*%
X162862500Y-74825000D03*
X162862500Y-75475000D03*
X162862500Y-76125000D03*
X162862500Y-76775000D03*
X162862500Y-77425000D03*
X162862500Y-78075000D03*
X162862500Y-78725000D03*
X162862500Y-79375000D03*
X162862500Y-80025000D03*
X162862500Y-80675000D03*
X157137500Y-80675000D03*
X157137500Y-80025000D03*
X157137500Y-79375000D03*
X157137500Y-78725000D03*
X157137500Y-78075000D03*
X157137500Y-77425000D03*
X157137500Y-76775000D03*
X157137500Y-76125000D03*
X157137500Y-75475000D03*
X157137500Y-74825000D03*
%TD*%
D20*
%TO.C,R5*%
X169000000Y-87570000D03*
X169000000Y-86740000D03*
%TD*%
%TO.C,R4*%
X165600000Y-78915000D03*
X165600000Y-78085000D03*
%TD*%
D16*
%TO.C,R8*%
X150415000Y-106250000D03*
X149585000Y-106250000D03*
%TD*%
D18*
%TO.C,C1*%
X138500000Y-84000000D03*
X136000000Y-84000000D03*
%TD*%
D21*
%TO.C,R7*%
X159093449Y-99306551D03*
X158506551Y-99893449D03*
%TD*%
D16*
%TO.C,R13*%
X140915000Y-72500000D03*
X140085000Y-72500000D03*
%TD*%
%TO.C,R15*%
X133815000Y-88600000D03*
X132985000Y-88600000D03*
%TD*%
D22*
%TO.C,BT1*%
X138000000Y-92000000D03*
X158000000Y-92000000D03*
%TD*%
D16*
%TO.C,R14*%
X144665000Y-78500000D03*
X143835000Y-78500000D03*
%TD*%
D18*
%TO.C,C3*%
X141250000Y-76750000D03*
X138750000Y-76750000D03*
%TD*%
D16*
%TO.C,R6*%
X164665000Y-92750000D03*
X163835000Y-92750000D03*
%TD*%
%TO.C,R9*%
X145570000Y-103000000D03*
X144740000Y-103000000D03*
%TD*%
%TO.C,R12*%
X135735000Y-77500000D03*
X134905000Y-77500000D03*
%TD*%
%TO.C,R11*%
X131815000Y-85000000D03*
X130985000Y-85000000D03*
%TD*%
D21*
%TO.C,R2*%
X158393449Y-73106551D03*
X157806551Y-73693449D03*
%TD*%
M02*
