M48
; DRILL file {KiCad 9.0.6} date 2026-01-31T16:43:34+0300
; FORMAT={-:-/ absolute / metric / decimal}
; #@! TF.CreationDate,2026-01-31T16:43:34+03:00
; #@! TF.GenerationSoftware,Kicad,Pcbnew,9.0.6
; #@! TF.FileFunction,Plated,1,2,PTH
FMAT,2
METRIC
; #@! TA.AperFunction,Plated,PTH,ViaDrill
T1C0.300
; #@! TA.AperFunction,Plated,PTH,ComponentDrill
T2C0.800
; #@! TA.AperFunction,Plated,PTH,ComponentDrill
T3C1.000
; #@! TA.AperFunction,Plated,PTH,ComponentDrill
T4C1.100
; #@! TA.AperFunction,Plated,PTH,ComponentDrill
T5C1.500
%
G90
G05
T1
X131.2Y-86.4
X132.2Y-81.8
X134.207Y-79.949
X135.772Y-82.292
X136.0Y-94.6
X139.157Y-72.2
X140.628Y-82.731
X142.2Y-94.4
X143.154Y-76.698
X144.632Y-102.142
X145.693Y-83.544
X147.577Y-81.355
X148.63Y-85.645
X149.2Y-107.2
X149.928Y-98.884
X150.303Y-83.13
X151.533Y-95.43
X153.011Y-80.645
X153.471Y-96.284
X156.504Y-88.294
X157.959Y-74.112
X158.2Y-100.5
X158.214Y-83.2
X158.4Y-72.0
X159.136Y-76.231
X159.688Y-76.956
X160.051Y-85.692
X160.368Y-92.486
X160.453Y-97.121
X160.8Y-94.6
X161.058Y-74.747
X161.157Y-78.799
X161.378Y-76.956
X161.4Y-83.2
X161.6Y-73.018
X163.297Y-93.419
X165.8Y-77.4
X166.496Y-87.752
X166.496Y-78.782
X168.822Y-85.978
T2
X136.0Y-84.0
X138.5Y-84.0
X138.75Y-76.75
X141.25Y-76.75
X145.0Y-97.5
X147.0Y-97.5
X149.0Y-97.5
X151.0Y-97.5
X153.0Y-97.5
X155.0Y-97.5
X162.75Y-86.5
X165.25Y-86.5
T3
X142.5Y-87.725
X142.5Y-90.265
T4
X146.75Y-87.75
X146.75Y-92.25
X153.25Y-87.75
X153.25Y-92.25
T5
X138.0Y-92.0
X158.0Y-92.0
M30
