%TF.GenerationSoftware,KiCad,Pcbnew,9.0.6*%
%TF.CreationDate,2026-01-31T16:43:30+03:00*%
%TF.ProjectId,st-valentine-postcard,73742d76-616c-4656-9e74-696e652d706f,rev?*%
%TF.SameCoordinates,Original*%
%TF.FileFunction,Copper,L2,Bot*%
%TF.FilePolarity,Positive*%
%FSLAX46Y46*%
G04 Gerber Fmt 4.6, Leading zero omitted, Abs format (unit mm)*
G04 Created by KiCad (PCBNEW 9.0.6) date 2026-01-31 16:43:30*
%MOMM*%
%LPD*%
G01*
G04 APERTURE LIST*
G04 Aperture macros list*
%AMRoundRect*
0 Rectangle with rounded corners*
0 $1 Rounding radius*
0 $2 $3 $4 $5 $6 $7 $8 $9 X,Y pos of 4 corners*
0 Add a 4 corners polygon primitive as box body*
4,1,4,$2,$3,$4,$5,$6,$7,$8,$9,$2,$3,0*
0 Add four circle primitives for the rounded corners*
1,1,$1+$1,$2,$3*
1,1,$1+$1,$4,$5*
1,1,$1+$1,$6,$7*
1,1,$1+$1,$8,$9*
0 Add four rect primitives between the rounded corners*
20,1,$1+$1,$2,$3,$4,$5,0*
20,1,$1+$1,$4,$5,$6,$7,0*
20,1,$1+$1,$6,$7,$8,$9,0*
20,1,$1+$1,$8,$9,$2,$3,0*%
G04 Aperture macros list end*
%TA.AperFunction,ComponentPad*%
%ADD10R,1.350000X1.350000*%
%TD*%
%TA.AperFunction,ComponentPad*%
%ADD11C,1.350000*%
%TD*%
%TA.AperFunction,ComponentPad*%
%ADD12C,2.000000*%
%TD*%
%TA.AperFunction,ComponentPad*%
%ADD13R,1.700000X1.700000*%
%TD*%
%TA.AperFunction,ComponentPad*%
%ADD14C,1.700000*%
%TD*%
%TA.AperFunction,SMDPad,CuDef*%
%ADD15RoundRect,0.137500X0.222739X-0.028284X-0.028284X0.222739X-0.222739X0.028284X0.028284X-0.222739X0*%
%TD*%
%TA.AperFunction,SMDPad,CuDef*%
%ADD16RoundRect,0.137500X0.177500X0.137500X-0.177500X0.137500X-0.177500X-0.137500X0.177500X-0.137500X0*%
%TD*%
%TA.AperFunction,SMDPad,CuDef*%
%ADD17RoundRect,0.137500X-0.177500X-0.137500X0.177500X-0.137500X0.177500X0.137500X-0.177500X0.137500X0*%
%TD*%
%TA.AperFunction,ComponentPad*%
%ADD18C,1.600000*%
%TD*%
%TA.AperFunction,SMDPad,CuDef*%
%ADD19RoundRect,0.100000X0.637500X0.100000X-0.637500X0.100000X-0.637500X-0.100000X0.637500X-0.100000X0*%
%TD*%
%TA.AperFunction,SMDPad,CuDef*%
%ADD20RoundRect,0.137500X0.137500X-0.177500X0.137500X0.177500X-0.137500X0.177500X-0.137500X-0.177500X0*%
%TD*%
%TA.AperFunction,SMDPad,CuDef*%
%ADD21RoundRect,0.137500X0.028284X0.222739X-0.222739X-0.028284X-0.028284X-0.222739X0.222739X0.028284X0*%
%TD*%
%TA.AperFunction,ComponentPad*%
%ADD22C,2.500000*%
%TD*%
%TA.AperFunction,ViaPad*%
%ADD23C,0.600000*%
%TD*%
%TA.AperFunction,Conductor*%
%ADD24C,0.200000*%
%TD*%
G04 APERTURE END LIST*
D10*
%TO.P,J1,1,Pin_1*%
%TO.N,+3V*%
X145000000Y-97500000D03*
D11*
%TO.P,J1,2,Pin_2*%
%TO.N,/LED11*%
X147000000Y-97500000D03*
%TO.P,J1,3,Pin_3*%
%TO.N,GND*%
X149000000Y-97500000D03*
%TO.P,J1,4,Pin_4*%
%TO.N,/LED10*%
X151000000Y-97500000D03*
%TO.P,J1,5,Pin_5*%
%TO.N,/LED0*%
X153000000Y-97500000D03*
%TO.P,J1,6,Pin_6*%
%TO.N,/LED2*%
X155000000Y-97500000D03*
%TD*%
D12*
%TO.P,SW1,1,1*%
%TO.N,+3V*%
X146750000Y-87750000D03*
X153250000Y-87750000D03*
%TO.P,SW1,2,2*%
%TO.N,Net-(U1-PB1)*%
X146750000Y-92250000D03*
X153250000Y-92250000D03*
%TD*%
D13*
%TO.P,J2,1,Pin_1*%
%TO.N,GND*%
X142500000Y-87725000D03*
D14*
%TO.P,J2,2,Pin_2*%
%TO.N,Net-(BT1-+)*%
X142500000Y-90265000D03*
%TD*%
D15*
%TO.P,R10,1*%
%TO.N,/LED9*%
X138893449Y-97293449D03*
%TO.P,R10,2*%
%TO.N,Net-(D10-A)*%
X138306551Y-96706551D03*
%TD*%
D16*
%TO.P,R1,1*%
%TO.N,/LED1*%
X149165000Y-82700000D03*
%TO.P,R1,2*%
%TO.N,Net-(D1-A)*%
X148335000Y-82700000D03*
%TD*%
D17*
%TO.P,R3,1*%
%TO.N,/LED3*%
X159335000Y-72500000D03*
%TO.P,R3,2*%
%TO.N,Net-(D3-A)*%
X160165000Y-72500000D03*
%TD*%
D18*
%TO.P,C2,1*%
%TO.N,+3V*%
X165250000Y-86500000D03*
%TO.P,C2,2*%
%TO.N,GND*%
X162750000Y-86500000D03*
%TD*%
D19*
%TO.P,U1,1,PB9*%
%TO.N,GND*%
X162862500Y-74825000D03*
%TO.P,U1,2,PC14*%
%TO.N,/LED12*%
X162862500Y-75475000D03*
%TO.P,U1,3,PC15*%
%TO.N,/LED13*%
X162862500Y-76125000D03*
%TO.P,U1,4,NRST*%
%TO.N,unconnected-(U1-NRST-Pad4)*%
X162862500Y-76775000D03*
%TO.P,U1,5,VDDA*%
%TO.N,+3V*%
X162862500Y-77425000D03*
%TO.P,U1,6,PA0*%
%TO.N,/LED0*%
X162862500Y-78075000D03*
%TO.P,U1,7,PA1*%
%TO.N,/LED1*%
X162862500Y-78725000D03*
%TO.P,U1,8,PA2*%
%TO.N,/LED2*%
X162862500Y-79375000D03*
%TO.P,U1,9,PA3*%
%TO.N,/LED3*%
X162862500Y-80025000D03*
%TO.P,U1,10,PA4*%
%TO.N,/LED4*%
X162862500Y-80675000D03*
%TO.P,U1,11,PA5*%
%TO.N,/LED5*%
X157137500Y-80675000D03*
%TO.P,U1,12,PA6*%
%TO.N,/LED6*%
X157137500Y-80025000D03*
%TO.P,U1,13,PA7*%
%TO.N,/LED7*%
X157137500Y-79375000D03*
%TO.P,U1,14,PB1*%
%TO.N,Net-(U1-PB1)*%
X157137500Y-78725000D03*
%TO.P,U1,15,VSS*%
%TO.N,GND*%
X157137500Y-78075000D03*
%TO.P,U1,16,VDD*%
%TO.N,+3V*%
X157137500Y-77425000D03*
%TO.P,U1,17,PA9*%
%TO.N,/LED8*%
X157137500Y-76775000D03*
%TO.P,U1,18,PA10*%
%TO.N,/LED9*%
X157137500Y-76125000D03*
%TO.P,U1,19,PA13*%
%TO.N,/LED10*%
X157137500Y-75475000D03*
%TO.P,U1,20,PA14*%
%TO.N,/LED11*%
X157137500Y-74825000D03*
%TD*%
D20*
%TO.P,R5,1*%
%TO.N,/LED5*%
X169000000Y-87570000D03*
%TO.P,R5,2*%
%TO.N,Net-(D5-A)*%
X169000000Y-86740000D03*
%TD*%
%TO.P,R4,1*%
%TO.N,/LED4*%
X165600000Y-78915000D03*
%TO.P,R4,2*%
%TO.N,Net-(D4-A)*%
X165600000Y-78085000D03*
%TD*%
D16*
%TO.P,R8,1*%
%TO.N,/LED7*%
X150415000Y-106250000D03*
%TO.P,R8,2*%
%TO.N,Net-(D8-A)*%
X149585000Y-106250000D03*
%TD*%
D18*
%TO.P,C1,1*%
%TO.N,+3V*%
X138500000Y-84000000D03*
%TO.P,C1,2*%
%TO.N,GND*%
X136000000Y-84000000D03*
%TD*%
D21*
%TO.P,R7,1*%
%TO.N,/LED6*%
X159093449Y-99306551D03*
%TO.P,R7,2*%
%TO.N,Net-(D7-A)*%
X158506551Y-99893449D03*
%TD*%
D16*
%TO.P,R13,1*%
%TO.N,/LED12*%
X140915000Y-72500000D03*
%TO.P,R13,2*%
%TO.N,Net-(D13-A)*%
X140085000Y-72500000D03*
%TD*%
%TO.P,R15,1*%
%TO.N,Net-(BT1-+)*%
X133815000Y-88600000D03*
%TO.P,R15,2*%
%TO.N,+3V*%
X132985000Y-88600000D03*
%TD*%
D22*
%TO.P,BT1,1,+*%
%TO.N,Net-(BT1-+)*%
X138000000Y-92000000D03*
%TO.P,BT1,2,-*%
%TO.N,GND*%
X158000000Y-92000000D03*
%TD*%
D16*
%TO.P,R14,1*%
%TO.N,/LED13*%
X144665000Y-78500000D03*
%TO.P,R14,2*%
%TO.N,Net-(D14-A)*%
X143835000Y-78500000D03*
%TD*%
D18*
%TO.P,C3,1*%
%TO.N,+3V*%
X141250000Y-76750000D03*
%TO.P,C3,2*%
%TO.N,GND*%
X138750000Y-76750000D03*
%TD*%
D16*
%TO.P,R6,1*%
%TO.N,/LED0*%
X164665000Y-92750000D03*
%TO.P,R6,2*%
%TO.N,Net-(D6-A)*%
X163835000Y-92750000D03*
%TD*%
%TO.P,R9,1*%
%TO.N,/LED8*%
X145570000Y-103000000D03*
%TO.P,R9,2*%
%TO.N,Net-(D9-A)*%
X144740000Y-103000000D03*
%TD*%
%TO.P,R12,1*%
%TO.N,/LED11*%
X135735000Y-77500000D03*
%TO.P,R12,2*%
%TO.N,Net-(D12-A)*%
X134905000Y-77500000D03*
%TD*%
%TO.P,R11,1*%
%TO.N,/LED10*%
X131815000Y-85000000D03*
%TO.P,R11,2*%
%TO.N,Net-(D11-A)*%
X130985000Y-85000000D03*
%TD*%
D21*
%TO.P,R2,1*%
%TO.N,/LED2*%
X158393449Y-73106551D03*
%TO.P,R2,2*%
%TO.N,Net-(D2-A)*%
X157806551Y-73693449D03*
%TD*%
D23*
%TO.N,GND*%
X161058400Y-74747300D03*
X158400000Y-72000000D03*
X132200000Y-81800000D03*
X158213900Y-83200000D03*
X161400000Y-83200000D03*
X160800000Y-94600000D03*
X142200000Y-94400000D03*
%TO.N,Net-(D1-A)*%
X147577300Y-81355300D03*
%TO.N,Net-(D2-A)*%
X157958800Y-74112500D03*
%TO.N,Net-(D3-A)*%
X161600000Y-73018300D03*
%TO.N,Net-(D4-A)*%
X165800000Y-77400000D03*
%TO.N,Net-(D5-A)*%
X168821700Y-85977900D03*
%TO.N,Net-(D6-A)*%
X163296800Y-93419500D03*
%TO.N,Net-(D7-A)*%
X158200000Y-100500000D03*
%TO.N,Net-(D8-A)*%
X149200000Y-107200000D03*
%TO.N,Net-(D9-A)*%
X144632100Y-102142500D03*
%TO.N,Net-(D10-A)*%
X136000000Y-94600000D03*
%TO.N,Net-(D11-A)*%
X131200000Y-86400000D03*
%TO.N,Net-(D12-A)*%
X134207300Y-79949200D03*
%TO.N,Net-(D13-A)*%
X139157100Y-72200000D03*
%TO.N,Net-(D14-A)*%
X143153800Y-76698300D03*
%TO.N,/LED0*%
X161157500Y-78799100D03*
X160453300Y-97120900D03*
X166495800Y-78781600D03*
%TO.N,/LED11*%
X150303000Y-83130300D03*
X135771500Y-82292500D03*
%TO.N,/LED2*%
X153470700Y-96283700D03*
X153011000Y-80645000D03*
X159135600Y-76231300D03*
X160368300Y-92485500D03*
%TO.N,/LED1*%
X148629700Y-85645000D03*
X160050800Y-85692200D03*
%TO.N,/LED5*%
X166495700Y-87752100D03*
X156504100Y-88294400D03*
%TO.N,/LED9*%
X151532700Y-95430500D03*
X149928100Y-98884500D03*
%TO.N,/LED12*%
X140628000Y-82730800D03*
X159688100Y-76956000D03*
%TO.N,/LED13*%
X145693300Y-83543600D03*
X161377800Y-76956000D03*
%TD*%
D24*
%TO.N,Net-(BT1-+)*%
X134600000Y-88600000D02*
X135000000Y-89000000D01*
X133815000Y-88600000D02*
X134600000Y-88600000D01*
X138000000Y-92000000D02*
X135000000Y-89000000D01*
%TO.N,GND*%
X162784800Y-74747300D02*
X162862500Y-74825000D01*
X161058400Y-74747300D02*
X162784800Y-74747300D01*
X158213900Y-91786100D02*
X158000000Y-92000000D01*
X157137500Y-78075000D02*
X158225000Y-78075000D01*
X158225000Y-78075000D02*
X158750000Y-78600000D01*
X136000000Y-84000000D02*
X138750000Y-81250000D01*
%TO.N,+3V*%
X139578000Y-83586800D02*
X138913200Y-83586800D01*
X153250000Y-87750000D02*
X153251500Y-87748500D01*
X139578000Y-83586800D02*
X140622900Y-83586800D01*
X153251500Y-81255400D02*
X153612700Y-80894200D01*
X153251500Y-87748500D02*
X153251500Y-81255400D01*
X145000000Y-97500000D02*
X145000000Y-89500000D01*
X157137500Y-77425000D02*
X157270200Y-77557700D01*
X138913200Y-83586800D02*
X138500000Y-84000000D01*
X132985000Y-88415000D02*
X132985000Y-88600000D01*
X156440700Y-77425000D02*
X157137500Y-77425000D01*
X141250000Y-82959700D02*
X141250000Y-76750000D01*
X135100000Y-87400000D02*
X134000000Y-87400000D01*
X153612700Y-80253000D02*
X156440700Y-77425000D01*
X145000000Y-89500000D02*
X146750000Y-87750000D01*
X140622900Y-83586800D02*
X141250000Y-82959700D01*
X139578000Y-83586800D02*
X138011100Y-83586800D01*
X138500000Y-84000000D02*
X135100000Y-87400000D01*
X153612700Y-80894200D02*
X153612700Y-80253000D01*
X157270200Y-77557700D02*
X162729800Y-77557700D01*
X134000000Y-87400000D02*
X132985000Y-88415000D01*
X162729800Y-77557700D02*
X162862500Y-77425000D01*
%TO.N,Net-(D1-A)*%
X147929000Y-82199000D02*
X147929000Y-81707000D01*
X147577300Y-81355300D02*
X147929000Y-81707000D01*
X148430000Y-82700000D02*
X147929000Y-82199000D01*
%TO.N,Net-(D2-A)*%
X157780000Y-73933700D02*
X157780000Y-73400000D01*
X157958800Y-74112500D02*
X157780000Y-73933700D01*
X157780000Y-74112500D02*
X157958800Y-74112500D01*
%TO.N,Net-(D3-A)*%
X161600000Y-73018300D02*
X160588300Y-73018300D01*
X160588300Y-73018300D02*
X160070000Y-72500000D01*
%TO.N,Net-(D4-A)*%
X165800000Y-77885000D02*
X165600000Y-78085000D01*
X165750000Y-77450000D02*
X165800000Y-77400000D01*
X165800000Y-77400000D02*
X165800000Y-77885000D01*
%TO.N,Net-(D5-A)*%
X168821700Y-85977900D02*
X169000000Y-86156200D01*
X169000000Y-86156200D02*
X169000000Y-86835000D01*
%TO.N,Net-(D6-A)*%
X163296800Y-93419500D02*
X163930000Y-92786300D01*
X163930000Y-92786300D02*
X163930000Y-92750000D01*
%TO.N,Net-(D7-A)*%
X158506551Y-100193449D02*
X158200000Y-100500000D01*
X158680000Y-100020000D02*
X158680000Y-99750000D01*
X158506551Y-99893449D02*
X158506551Y-100193449D01*
%TO.N,Net-(D8-A)*%
X149200000Y-107200000D02*
X149680000Y-106720000D01*
X149680000Y-106720000D02*
X149680000Y-106250000D01*
%TO.N,Net-(D9-A)*%
X144632100Y-102142500D02*
X144835000Y-102345400D01*
X144835000Y-102345400D02*
X144835000Y-103000000D01*
%TO.N,Net-(D10-A)*%
X136200000Y-94600000D02*
X136000000Y-94600000D01*
X138306551Y-96706551D02*
X136200000Y-94600000D01*
%TO.N,Net-(D11-A)*%
X130930000Y-86074200D02*
X130930000Y-85000000D01*
X131200000Y-86400000D02*
X131200000Y-86344200D01*
X131200000Y-86344200D02*
X130930000Y-86074200D01*
%TO.N,Net-(D12-A)*%
X134207300Y-79949200D02*
X135000000Y-79156500D01*
X135000000Y-79156500D02*
X135000000Y-77500000D01*
%TO.N,Net-(D13-A)*%
X139157100Y-72200000D02*
X139880000Y-72200000D01*
X139880000Y-72200000D02*
X140180000Y-72500000D01*
%TO.N,Net-(D14-A)*%
X143930000Y-77474500D02*
X143930000Y-78500000D01*
X143153800Y-76698300D02*
X143930000Y-77474500D01*
%TO.N,/LED10*%
X150729300Y-84335300D02*
X150729300Y-97229300D01*
X150931000Y-84133600D02*
X150729300Y-84335300D01*
X150729300Y-97229300D02*
X151000000Y-97500000D01*
X150461800Y-97500000D02*
X149436800Y-98525000D01*
X152429300Y-79239900D02*
X151605900Y-80063300D01*
X151605900Y-80272900D02*
X150931000Y-80947800D01*
X149436800Y-98525000D02*
X141560400Y-98525000D01*
X156403800Y-75475000D02*
X152638900Y-79239900D01*
X150931000Y-80947800D02*
X150931000Y-84133600D01*
X131800000Y-88764600D02*
X131800000Y-85230000D01*
X157137500Y-75475000D02*
X156403800Y-75475000D01*
X152638900Y-79239900D02*
X152429300Y-79239900D01*
X151000000Y-97500000D02*
X150461800Y-97500000D01*
X141560400Y-98525000D02*
X131800000Y-88764600D01*
X151605900Y-80063300D02*
X151605900Y-80272900D01*
%TO.N,/LED0*%
X164570000Y-92750000D02*
X164570000Y-93004200D01*
X166495800Y-78781600D02*
X166495800Y-86856700D01*
X166495800Y-86856700D02*
X164570000Y-88782500D01*
X164570000Y-93004200D02*
X160453300Y-97120900D01*
X161881600Y-78075000D02*
X161157500Y-78799100D01*
X164570000Y-88782500D02*
X164570000Y-92750000D01*
X162862500Y-78075000D02*
X161881600Y-78075000D01*
%TO.N,/LED11*%
X150303000Y-80798200D02*
X150303000Y-83130300D01*
X156276200Y-74825000D02*
X150303000Y-80798200D01*
X157137500Y-74825000D02*
X156276200Y-74825000D01*
X135640000Y-77500000D02*
X135640000Y-82161000D01*
X150303000Y-94197000D02*
X150303000Y-83130300D01*
X135640000Y-82161000D02*
X135771500Y-82292500D01*
X147000000Y-97500000D02*
X150303000Y-94197000D01*
%TO.N,/LED2*%
X161819000Y-79735700D02*
X162179700Y-79375000D01*
X161819000Y-81813600D02*
X161819000Y-79735700D01*
X152849800Y-80806200D02*
X152849800Y-84118700D01*
X159135600Y-74115600D02*
X159135600Y-76231300D01*
X163893400Y-88960400D02*
X163893400Y-83888000D01*
X152849800Y-84118700D02*
X151934400Y-85034100D01*
X151934400Y-93150000D02*
X153470700Y-94686300D01*
X153011000Y-80645000D02*
X152849800Y-80806200D01*
X153470700Y-94686300D02*
X153470700Y-96283700D01*
X162179700Y-79375000D02*
X162862500Y-79375000D01*
X151934400Y-85034100D02*
X151934400Y-93150000D01*
X158420000Y-73400000D02*
X159135600Y-74115600D01*
X163893400Y-83888000D02*
X161819000Y-81813600D01*
X160368300Y-92485500D02*
X163893400Y-88960400D01*
%TO.N,/LED1*%
X162144500Y-78725000D02*
X162862500Y-78725000D01*
X148629700Y-85645000D02*
X149070000Y-85204700D01*
X160050800Y-85692200D02*
X160050800Y-80818700D01*
X149070000Y-85204700D02*
X149070000Y-82700000D01*
X160050800Y-80818700D02*
X162144500Y-78725000D01*
%TO.N,/LED3*%
X160480300Y-73767800D02*
X159430000Y-72717500D01*
X159430000Y-72717500D02*
X159430000Y-72500000D01*
X165000000Y-75656300D02*
X163111500Y-73767800D01*
X165000000Y-78543700D02*
X165000000Y-75656300D01*
X163111500Y-73767800D02*
X160480300Y-73767800D01*
X162862500Y-80025000D02*
X163518700Y-80025000D01*
X163518700Y-80025000D02*
X165000000Y-78543700D01*
%TO.N,/LED4*%
X165750000Y-78820000D02*
X165285000Y-79285000D01*
X163895000Y-80675000D02*
X162862500Y-80675000D01*
X165285000Y-79285000D02*
X163895000Y-80675000D01*
%TO.N,/LED5*%
X156504100Y-81308400D02*
X157137500Y-80675000D01*
X169000000Y-87475000D02*
X166772800Y-87475000D01*
X166772800Y-87475000D02*
X166495700Y-87752100D01*
X156504100Y-88294400D02*
X156504100Y-81308400D01*
%TO.N,/LED6*%
X155872300Y-80634000D02*
X155872300Y-92114400D01*
X159093449Y-99306551D02*
X159320000Y-99080000D01*
X155872300Y-92114400D02*
X159320000Y-95562100D01*
X156481300Y-80025000D02*
X155872300Y-80634000D01*
X157137500Y-80025000D02*
X156481300Y-80025000D01*
X159320000Y-95562100D02*
X159320000Y-99080000D01*
%TO.N,/LED7*%
X154072400Y-93735400D02*
X155005800Y-92802000D01*
X150320000Y-106250000D02*
X153999900Y-102570100D01*
X154439300Y-83788900D02*
X154551400Y-83900900D01*
X156427400Y-79375000D02*
X154439300Y-81363100D01*
X153999900Y-96605400D02*
X154072400Y-96532900D01*
X154404100Y-84048200D02*
X154551400Y-83900900D01*
X157137500Y-79375000D02*
X156427400Y-79375000D01*
X154404100Y-84713400D02*
X154404100Y-84048200D01*
X155005800Y-85315100D02*
X154404100Y-84713400D01*
X153999900Y-102570100D02*
X153999900Y-96605400D01*
X155005800Y-92802000D02*
X155005800Y-85315100D01*
X154072400Y-96532900D02*
X154072400Y-93735400D01*
X154439300Y-81363100D02*
X154439300Y-83788900D01*
%TO.N,/LED8*%
X151532700Y-84751000D02*
X151532700Y-93516500D01*
X151532700Y-93516500D02*
X152134400Y-94118200D01*
X156479500Y-76775000D02*
X153211200Y-80043300D01*
X152134400Y-94118200D02*
X152134400Y-95679700D01*
X152134400Y-95679700D02*
X151976700Y-95837400D01*
X152409300Y-83874400D02*
X151532700Y-84751000D01*
X157137500Y-76775000D02*
X156479500Y-76775000D01*
X151976700Y-95837400D02*
X151976700Y-97948700D01*
X146925400Y-103000000D02*
X145475000Y-103000000D01*
X153211200Y-80043300D02*
X152761900Y-80043300D01*
X151976700Y-97948700D02*
X146925400Y-103000000D01*
X152409300Y-80395900D02*
X152409300Y-83874400D01*
X152761900Y-80043300D02*
X152409300Y-80395900D01*
%TO.N,/LED9*%
X152886100Y-79641600D02*
X152595600Y-79641600D01*
X156402700Y-76125000D02*
X152886100Y-79641600D01*
X157137500Y-76125000D02*
X156402700Y-76125000D01*
X149864700Y-98947900D02*
X141347900Y-98947900D01*
X138893449Y-97293449D02*
X139693449Y-97293449D01*
X151131000Y-84501600D02*
X151131000Y-93682800D01*
X152007600Y-83625000D02*
X151131000Y-84501600D01*
X149928100Y-98884500D02*
X149864700Y-98947900D01*
X152007600Y-80229600D02*
X152007600Y-83625000D01*
X139693449Y-97293449D02*
X141347900Y-98947900D01*
X152595600Y-79641600D02*
X152007600Y-80229600D01*
X151131000Y-93682800D02*
X151532700Y-94084500D01*
X151532700Y-94084500D02*
X151532700Y-95430500D01*
%TO.N,/LED12*%
X140145900Y-82248700D02*
X140145900Y-74877100D01*
X140628000Y-82730800D02*
X140145900Y-82248700D01*
X140820000Y-74203000D02*
X140820000Y-72500000D01*
X161169100Y-75475000D02*
X162862500Y-75475000D01*
X159688100Y-76956000D02*
X161169100Y-75475000D01*
X140145900Y-74877100D02*
X140820000Y-74203000D01*
%TO.N,/LED13*%
X162112700Y-76125000D02*
X161377800Y-76859900D01*
X161377800Y-76859900D02*
X161377800Y-76956000D01*
X145693300Y-83543600D02*
X144570000Y-82420300D01*
X144570000Y-82420300D02*
X144570000Y-78500000D01*
X162862500Y-76125000D02*
X162112700Y-76125000D01*
%TO.N,Net-(U1-PB1)*%
X153969900Y-81185800D02*
X153969900Y-84847200D01*
X154604100Y-85481400D02*
X154604100Y-90895900D01*
X154604100Y-90895900D02*
X153250000Y-92250000D01*
X156430700Y-78725000D02*
X153969900Y-81185800D01*
X157137500Y-78725000D02*
X156430700Y-78725000D01*
X153969900Y-84847200D02*
X154604100Y-85481400D01*
%TD*%
%TA.AperFunction,Conductor*%
%TO.N,GND*%
G36*
X140808363Y-70520185D02*
G01*
X140829005Y-70536819D01*
X148599500Y-78307314D01*
X148692686Y-78400500D01*
X148780646Y-78451284D01*
X148806814Y-78466392D01*
X148934107Y-78500500D01*
X148934108Y-78500500D01*
X148934109Y-78500500D01*
X151065890Y-78500500D01*
X151065892Y-78500500D01*
X151193186Y-78466392D01*
X151307314Y-78400500D01*
X159170995Y-70536819D01*
X159232318Y-70503334D01*
X159258676Y-70500500D01*
X160741324Y-70500500D01*
X160808363Y-70520185D01*
X160829005Y-70536819D01*
X163247804Y-72955618D01*
X163258415Y-72975051D01*
X163272917Y-72991787D01*
X163274834Y-73005119D01*
X163281289Y-73016941D01*
X163279709Y-73039027D01*
X163282861Y-73060945D01*
X163277265Y-73073197D01*
X163276305Y-73086633D01*
X163263035Y-73104358D01*
X163253837Y-73124501D01*
X163242504Y-73131784D01*
X163234433Y-73142566D01*
X163213688Y-73150303D01*
X163195059Y-73162276D01*
X163173139Y-73165427D01*
X163168969Y-73166983D01*
X163160124Y-73167299D01*
X163032443Y-73167299D01*
X163032439Y-73167299D01*
X163024832Y-73167300D01*
X163024831Y-73167299D01*
X163024831Y-73167300D01*
X162524500Y-73167300D01*
X162457461Y-73147615D01*
X162411706Y-73094811D01*
X162400500Y-73043300D01*
X162400500Y-72939455D01*
X162400499Y-72939453D01*
X162380801Y-72840426D01*
X162369737Y-72784803D01*
X162369735Y-72784798D01*
X162309397Y-72639127D01*
X162309390Y-72639114D01*
X162221789Y-72508011D01*
X162221786Y-72508007D01*
X162110292Y-72396513D01*
X162110288Y-72396510D01*
X161979185Y-72308909D01*
X161979172Y-72308902D01*
X161833501Y-72248564D01*
X161833489Y-72248561D01*
X161678845Y-72217800D01*
X161678842Y-72217800D01*
X161521158Y-72217800D01*
X161521155Y-72217800D01*
X161366510Y-72248561D01*
X161366498Y-72248564D01*
X161220827Y-72308902D01*
X161220816Y-72308908D01*
X161168708Y-72343726D01*
X161102031Y-72364603D01*
X161034651Y-72346118D01*
X160987961Y-72294139D01*
X160979480Y-72267970D01*
X160979422Y-72267987D01*
X160978871Y-72266093D01*
X160977834Y-72262891D01*
X160977654Y-72261908D01*
X160977654Y-72261902D01*
X160932681Y-72107106D01*
X160850626Y-71968357D01*
X160850624Y-71968355D01*
X160850621Y-71968351D01*
X160736648Y-71854378D01*
X160736636Y-71854369D01*
X160597896Y-71772320D01*
X160597889Y-71772317D01*
X160443102Y-71727346D01*
X160443096Y-71727345D01*
X160406935Y-71724500D01*
X159923077Y-71724500D01*
X159923052Y-71724501D01*
X159886901Y-71727346D01*
X159784595Y-71757069D01*
X159715405Y-71757069D01*
X159613102Y-71727346D01*
X159613096Y-71727345D01*
X159576935Y-71724500D01*
X159093077Y-71724500D01*
X159093052Y-71724501D01*
X159056901Y-71727346D01*
X158902110Y-71772317D01*
X158902103Y-71772320D01*
X158763363Y-71854369D01*
X158763351Y-71854378D01*
X158649378Y-71968351D01*
X158649369Y-71968363D01*
X158567320Y-72107103D01*
X158567317Y-72107110D01*
X158552995Y-72156407D01*
X158515389Y-72215293D01*
X158451916Y-72244499D01*
X158433919Y-72245812D01*
X158341132Y-72245812D01*
X158185000Y-72285901D01*
X158043751Y-72363552D01*
X158043745Y-72363557D01*
X158016159Y-72387117D01*
X157674014Y-72729264D01*
X157674013Y-72729265D01*
X157650459Y-72756840D01*
X157650451Y-72756851D01*
X157639711Y-72776388D01*
X157590163Y-72825650D01*
X157563150Y-72836420D01*
X157548223Y-72840420D01*
X157548209Y-72840426D01*
X157411290Y-72919475D01*
X157411282Y-72919481D01*
X157299481Y-73031282D01*
X157299477Y-73031287D01*
X157220423Y-73168213D01*
X157219508Y-73170424D01*
X157216858Y-73174389D01*
X157216359Y-73175254D01*
X157216302Y-73175221D01*
X157192631Y-73210645D01*
X157087117Y-73316161D01*
X157063557Y-73343745D01*
X156985901Y-73485000D01*
X156945812Y-73641132D01*
X156945812Y-73802333D01*
X156987841Y-73966019D01*
X156985550Y-73966607D01*
X156990846Y-74024441D01*
X156958588Y-74086419D01*
X156897944Y-74121118D01*
X156869179Y-74124500D01*
X156460636Y-74124500D01*
X156343246Y-74139953D01*
X156343237Y-74139956D01*
X156197158Y-74200464D01*
X156168601Y-74222376D01*
X156125213Y-74243772D01*
X156044418Y-74265422D01*
X156044409Y-74265426D01*
X155907490Y-74344475D01*
X155907482Y-74344481D01*
X149822481Y-80429482D01*
X149822475Y-80429490D01*
X149779064Y-80504682D01*
X149779064Y-80504683D01*
X149743423Y-80566414D01*
X149743423Y-80566415D01*
X149702499Y-80719143D01*
X149702499Y-80719145D01*
X149702499Y-80887246D01*
X149702500Y-80887259D01*
X149702500Y-81837556D01*
X149682815Y-81904595D01*
X149630011Y-81950350D01*
X149560853Y-81960294D01*
X149543906Y-81956633D01*
X149443096Y-81927345D01*
X149406935Y-81924500D01*
X148923077Y-81924500D01*
X148923052Y-81924501D01*
X148886901Y-81927346D01*
X148784595Y-81957069D01*
X148766945Y-81957069D01*
X148750353Y-81961992D01*
X148715404Y-81957069D01*
X148713903Y-81956633D01*
X148692278Y-81950350D01*
X148618904Y-81929032D01*
X148560018Y-81891425D01*
X148530813Y-81827952D01*
X148529500Y-81809956D01*
X148529500Y-81796059D01*
X148529501Y-81796046D01*
X148529501Y-81627945D01*
X148529501Y-81627943D01*
X148488577Y-81475215D01*
X148444401Y-81398701D01*
X148409520Y-81338284D01*
X148401844Y-81330608D01*
X148394342Y-81318580D01*
X148388609Y-81298032D01*
X148378388Y-81279314D01*
X148377937Y-81277147D01*
X148363244Y-81203281D01*
X148347037Y-81121803D01*
X148345792Y-81118797D01*
X148286697Y-80976127D01*
X148286690Y-80976114D01*
X148199089Y-80845011D01*
X148199086Y-80845007D01*
X148087592Y-80733513D01*
X148087588Y-80733510D01*
X147956485Y-80645909D01*
X147956472Y-80645902D01*
X147810801Y-80585564D01*
X147810789Y-80585561D01*
X147656145Y-80554800D01*
X147656142Y-80554800D01*
X147498458Y-80554800D01*
X147498455Y-80554800D01*
X147343810Y-80585561D01*
X147343798Y-80585564D01*
X147198127Y-80645902D01*
X147198114Y-80645909D01*
X147067011Y-80733510D01*
X147067007Y-80733513D01*
X146955513Y-80845007D01*
X146955510Y-80845011D01*
X146867909Y-80976114D01*
X146867902Y-80976127D01*
X146807564Y-81121798D01*
X146807561Y-81121810D01*
X146776800Y-81276453D01*
X146776800Y-81434146D01*
X146807561Y-81588789D01*
X146807564Y-81588801D01*
X146867902Y-81734472D01*
X146867909Y-81734485D01*
X146955510Y-81865588D01*
X146955513Y-81865592D01*
X147067007Y-81977086D01*
X147067011Y-81977089D01*
X147198116Y-82064691D01*
X147198117Y-82064691D01*
X147198121Y-82064694D01*
X147251953Y-82086991D01*
X147306354Y-82130829D01*
X147328420Y-82197123D01*
X147328499Y-82201551D01*
X147328499Y-82278054D01*
X147328498Y-82278054D01*
X147369424Y-82430789D01*
X147369425Y-82430790D01*
X147388335Y-82463543D01*
X147388340Y-82463551D01*
X147391034Y-82468216D01*
X147448480Y-82567716D01*
X147490871Y-82610107D01*
X147497104Y-82619016D01*
X147504924Y-82642236D01*
X147516666Y-82663740D01*
X147518776Y-82683367D01*
X147519404Y-82685231D01*
X147519104Y-82686421D01*
X147519500Y-82690097D01*
X147519500Y-82901923D01*
X147519501Y-82901947D01*
X147522346Y-82938098D01*
X147567317Y-83092889D01*
X147567320Y-83092896D01*
X147649369Y-83231636D01*
X147649378Y-83231648D01*
X147763351Y-83345621D01*
X147763355Y-83345624D01*
X147763357Y-83345626D01*
X147763360Y-83345627D01*
X147763363Y-83345630D01*
X147808589Y-83372376D01*
X147902106Y-83427681D01*
X147942928Y-83439541D01*
X148056897Y-83472653D01*
X148056900Y-83472653D01*
X148056902Y-83472654D01*
X148093065Y-83475500D01*
X148345501Y-83475499D01*
X148412539Y-83495183D01*
X148458294Y-83547987D01*
X148469500Y-83599499D01*
X148469500Y-84762048D01*
X148449815Y-84829087D01*
X148397011Y-84874842D01*
X148392952Y-84876609D01*
X148250527Y-84935602D01*
X148250514Y-84935609D01*
X148119411Y-85023210D01*
X148119407Y-85023213D01*
X148007913Y-85134707D01*
X148007910Y-85134711D01*
X147920309Y-85265814D01*
X147920302Y-85265827D01*
X147859964Y-85411498D01*
X147859961Y-85411510D01*
X147829200Y-85566153D01*
X147829200Y-85723846D01*
X147859961Y-85878489D01*
X147859964Y-85878501D01*
X147920302Y-86024172D01*
X147920309Y-86024185D01*
X148007910Y-86155288D01*
X148007913Y-86155292D01*
X148119407Y-86266786D01*
X148119411Y-86266789D01*
X148250514Y-86354390D01*
X148250527Y-86354397D01*
X148364480Y-86401597D01*
X148396203Y-86414737D01*
X148550853Y-86445499D01*
X148550856Y-86445500D01*
X148550858Y-86445500D01*
X148708544Y-86445500D01*
X148708545Y-86445499D01*
X148863197Y-86414737D01*
X149008879Y-86354394D01*
X149139989Y-86266789D01*
X149251489Y-86155289D01*
X149339094Y-86024179D01*
X149399437Y-85878497D01*
X149430200Y-85723842D01*
X149430200Y-85723840D01*
X149430337Y-85723152D01*
X149439102Y-85706394D01*
X149443123Y-85687914D01*
X149461864Y-85662879D01*
X149462721Y-85661241D01*
X149464163Y-85659772D01*
X149490822Y-85633113D01*
X149552144Y-85599631D01*
X149621836Y-85604617D01*
X149677769Y-85646489D01*
X149702184Y-85711954D01*
X149702500Y-85720798D01*
X149702500Y-93896902D01*
X149682815Y-93963941D01*
X149666181Y-93984583D01*
X147338979Y-96311784D01*
X147277656Y-96345269D01*
X147231901Y-96346576D01*
X147092514Y-96324500D01*
X146907486Y-96324500D01*
X146872843Y-96329987D01*
X146724734Y-96353445D01*
X146548767Y-96410619D01*
X146548764Y-96410620D01*
X146383900Y-96494624D01*
X146268392Y-96578545D01*
X146202586Y-96602025D01*
X146134532Y-96586199D01*
X146096241Y-96552539D01*
X146052884Y-96494622D01*
X146032546Y-96467454D01*
X146032544Y-96467453D01*
X146032544Y-96467452D01*
X145917335Y-96381206D01*
X145917328Y-96381202D01*
X145782482Y-96330908D01*
X145782483Y-96330908D01*
X145722883Y-96324501D01*
X145722881Y-96324500D01*
X145722873Y-96324500D01*
X145722864Y-96324500D01*
X145719548Y-96324322D01*
X145719615Y-96323065D01*
X145657461Y-96304815D01*
X145611706Y-96252011D01*
X145600500Y-96200500D01*
X145600500Y-93512922D01*
X145620185Y-93445883D01*
X145672989Y-93400128D01*
X145742147Y-93390184D01*
X145797382Y-93412602D01*
X145963567Y-93533343D01*
X146042083Y-93573349D01*
X146174003Y-93640566D01*
X146174005Y-93640566D01*
X146174008Y-93640568D01*
X146257284Y-93667626D01*
X146398631Y-93713553D01*
X146631903Y-93750500D01*
X146631908Y-93750500D01*
X146868097Y-93750500D01*
X147101368Y-93713553D01*
X147325992Y-93640568D01*
X147536433Y-93533343D01*
X147727510Y-93394517D01*
X147894517Y-93227510D01*
X148033343Y-93036433D01*
X148140568Y-92825992D01*
X148213553Y-92601368D01*
X148219527Y-92563650D01*
X148250500Y-92368097D01*
X148250500Y-92131902D01*
X148213553Y-91898631D01*
X148173740Y-91776102D01*
X148140568Y-91674008D01*
X148140566Y-91674005D01*
X148140566Y-91674003D01*
X148084002Y-91562991D01*
X148033343Y-91463567D01*
X147894517Y-91272490D01*
X147727510Y-91105483D01*
X147536433Y-90966657D01*
X147325996Y-90859433D01*
X147101368Y-90786446D01*
X146868097Y-90749500D01*
X146868092Y-90749500D01*
X146631908Y-90749500D01*
X146631903Y-90749500D01*
X146398631Y-90786446D01*
X146174003Y-90859433D01*
X145963566Y-90966657D01*
X145797386Y-91087395D01*
X145731579Y-91110875D01*
X145663525Y-91095050D01*
X145614830Y-91044944D01*
X145600500Y-90987077D01*
X145600500Y-89800096D01*
X145620185Y-89733057D01*
X145636815Y-89712419D01*
X146146437Y-89202796D01*
X146207758Y-89169313D01*
X146272433Y-89172547D01*
X146398632Y-89213553D01*
X146486110Y-89227408D01*
X146631903Y-89250500D01*
X146631908Y-89250500D01*
X146868097Y-89250500D01*
X147101368Y-89213553D01*
X147146154Y-89199001D01*
X147325992Y-89140568D01*
X147536433Y-89033343D01*
X147727510Y-88894517D01*
X147894517Y-88727510D01*
X148033343Y-88536433D01*
X148140568Y-88325992D01*
X148213553Y-88101368D01*
X148216018Y-88085804D01*
X148250500Y-87868097D01*
X148250500Y-87631902D01*
X148213553Y-87398631D01*
X148179689Y-87294412D01*
X148140568Y-87174008D01*
X148140566Y-87174005D01*
X148140566Y-87174003D01*
X148084002Y-87062991D01*
X148033343Y-86963567D01*
X147894517Y-86772490D01*
X147727510Y-86605483D01*
X147536433Y-86466657D01*
X147325996Y-86359433D01*
X147101368Y-86286446D01*
X146868097Y-86249500D01*
X146868092Y-86249500D01*
X146631908Y-86249500D01*
X146631903Y-86249500D01*
X146398631Y-86286446D01*
X146174003Y-86359433D01*
X145963566Y-86466657D01*
X145893158Y-86517812D01*
X145772490Y-86605483D01*
X145772488Y-86605485D01*
X145772487Y-86605485D01*
X145605485Y-86772487D01*
X145605485Y-86772488D01*
X145605483Y-86772490D01*
X145545862Y-86854550D01*
X145466657Y-86963566D01*
X145359433Y-87174003D01*
X145286446Y-87398631D01*
X145249500Y-87631902D01*
X145249500Y-87868097D01*
X145286447Y-88101369D01*
X145286447Y-88101372D01*
X145327450Y-88227564D01*
X145329445Y-88297405D01*
X145297200Y-88353563D01*
X144631286Y-89019478D01*
X144519482Y-89131281D01*
X144519478Y-89131287D01*
X144471982Y-89213553D01*
X144440424Y-89268212D01*
X144440423Y-89268213D01*
X144424489Y-89327681D01*
X144399499Y-89420943D01*
X144399499Y-89420945D01*
X144399499Y-89589046D01*
X144399500Y-89589059D01*
X144399500Y-96200500D01*
X144379815Y-96267539D01*
X144327011Y-96313294D01*
X144280389Y-96323450D01*
X144280423Y-96324099D01*
X144280429Y-96324146D01*
X144280426Y-96324146D01*
X144280436Y-96324324D01*
X144277123Y-96324501D01*
X144217516Y-96330908D01*
X144082671Y-96381202D01*
X144082664Y-96381206D01*
X143967455Y-96467452D01*
X143967452Y-96467455D01*
X143881206Y-96582664D01*
X143881202Y-96582671D01*
X143830908Y-96717517D01*
X143824501Y-96777116D01*
X143824500Y-96777127D01*
X143824500Y-97345606D01*
X143824501Y-97800500D01*
X143804817Y-97867539D01*
X143752013Y-97913294D01*
X143700501Y-97924500D01*
X141860497Y-97924500D01*
X141793458Y-97904815D01*
X141772816Y-97888181D01*
X137846816Y-93962181D01*
X137813331Y-93900858D01*
X137818315Y-93831166D01*
X137860187Y-93775233D01*
X137925651Y-93750816D01*
X137934497Y-93750500D01*
X138114727Y-93750500D01*
X138114734Y-93750500D01*
X138342238Y-93720548D01*
X138563887Y-93661158D01*
X138775888Y-93573344D01*
X138974612Y-93458611D01*
X139156661Y-93318919D01*
X139156665Y-93318914D01*
X139156670Y-93318911D01*
X139318911Y-93156670D01*
X139318914Y-93156665D01*
X139318919Y-93156661D01*
X139458611Y-92974612D01*
X139573344Y-92775888D01*
X139661158Y-92563887D01*
X139720548Y-92342238D01*
X139750500Y-92114734D01*
X139750500Y-91885266D01*
X139720548Y-91657762D01*
X139661158Y-91436113D01*
X139588510Y-91260725D01*
X139573349Y-91224123D01*
X139573346Y-91224117D01*
X139573344Y-91224112D01*
X139458611Y-91025388D01*
X139458608Y-91025385D01*
X139458607Y-91025382D01*
X139318918Y-90843338D01*
X139318911Y-90843330D01*
X139156670Y-90681089D01*
X139156661Y-90681081D01*
X138974617Y-90541392D01*
X138775890Y-90426657D01*
X138775876Y-90426650D01*
X138563887Y-90338842D01*
X138342238Y-90279452D01*
X138285290Y-90271954D01*
X138114741Y-90249500D01*
X138114734Y-90249500D01*
X137885266Y-90249500D01*
X137885258Y-90249500D01*
X137678057Y-90276780D01*
X137657762Y-90279452D01*
X137436113Y-90338842D01*
X137436103Y-90338845D01*
X137337272Y-90379783D01*
X137267802Y-90387252D01*
X137205323Y-90355977D01*
X137202138Y-90352903D01*
X137007948Y-90158713D01*
X141149500Y-90158713D01*
X141149500Y-90371286D01*
X141176507Y-90541805D01*
X141182754Y-90581243D01*
X141237424Y-90749500D01*
X141248444Y-90783414D01*
X141344951Y-90972820D01*
X141469890Y-91144786D01*
X141620213Y-91295109D01*
X141792179Y-91420048D01*
X141792181Y-91420049D01*
X141792184Y-91420051D01*
X141981588Y-91516557D01*
X142183757Y-91582246D01*
X142393713Y-91615500D01*
X142393714Y-91615500D01*
X142606286Y-91615500D01*
X142606287Y-91615500D01*
X142816243Y-91582246D01*
X143018412Y-91516557D01*
X143207816Y-91420051D01*
X143229789Y-91404086D01*
X143379786Y-91295109D01*
X143379788Y-91295106D01*
X143379792Y-91295104D01*
X143530104Y-91144792D01*
X143530106Y-91144788D01*
X143530109Y-91144786D01*
X143655048Y-90972820D01*
X143655047Y-90972820D01*
X143655051Y-90972816D01*
X143751557Y-90783412D01*
X143817246Y-90581243D01*
X143850500Y-90371287D01*
X143850500Y-90158713D01*
X143817246Y-89948757D01*
X143751557Y-89746588D01*
X143655051Y-89557184D01*
X143655049Y-89557181D01*
X143655048Y-89557179D01*
X143530109Y-89385213D01*
X143416181Y-89271285D01*
X143382696Y-89209962D01*
X143387680Y-89140270D01*
X143429552Y-89084337D01*
X143460529Y-89067422D01*
X143592086Y-89018354D01*
X143592093Y-89018350D01*
X143707187Y-88932190D01*
X143707190Y-88932187D01*
X143793350Y-88817093D01*
X143793354Y-88817086D01*
X143843596Y-88682379D01*
X143843598Y-88682372D01*
X143849999Y-88622844D01*
X143850000Y-88622827D01*
X143850000Y-87975000D01*
X142933012Y-87975000D01*
X142965925Y-87917993D01*
X143000000Y-87790826D01*
X143000000Y-87659174D01*
X142965925Y-87532007D01*
X142933012Y-87475000D01*
X143850000Y-87475000D01*
X143850000Y-86827172D01*
X143849999Y-86827155D01*
X143843598Y-86767627D01*
X143843596Y-86767620D01*
X143793354Y-86632913D01*
X143793350Y-86632906D01*
X143707190Y-86517812D01*
X143707187Y-86517809D01*
X143592093Y-86431649D01*
X143592086Y-86431645D01*
X143457379Y-86381403D01*
X143457372Y-86381401D01*
X143397844Y-86375000D01*
X142750000Y-86375000D01*
X142750000Y-87291988D01*
X142692993Y-87259075D01*
X142565826Y-87225000D01*
X142434174Y-87225000D01*
X142307007Y-87259075D01*
X142250000Y-87291988D01*
X142250000Y-86375000D01*
X141602155Y-86375000D01*
X141542627Y-86381401D01*
X141542620Y-86381403D01*
X141407913Y-86431645D01*
X141407906Y-86431649D01*
X141292812Y-86517809D01*
X141292809Y-86517812D01*
X141206649Y-86632906D01*
X141206645Y-86632913D01*
X141156403Y-86767620D01*
X141156401Y-86767627D01*
X141150000Y-86827155D01*
X141150000Y-87475000D01*
X142066988Y-87475000D01*
X142034075Y-87532007D01*
X142000000Y-87659174D01*
X142000000Y-87790826D01*
X142034075Y-87917993D01*
X142066988Y-87975000D01*
X141150000Y-87975000D01*
X141150000Y-88622844D01*
X141156401Y-88682372D01*
X141156403Y-88682379D01*
X141206645Y-88817086D01*
X141206649Y-88817093D01*
X141292809Y-88932187D01*
X141292812Y-88932190D01*
X141407906Y-89018350D01*
X141407913Y-89018354D01*
X141539470Y-89067422D01*
X141595404Y-89109293D01*
X141619821Y-89174758D01*
X141604969Y-89243031D01*
X141583819Y-89271285D01*
X141469889Y-89385215D01*
X141344951Y-89557179D01*
X141248444Y-89746585D01*
X141182753Y-89948760D01*
X141149500Y-90158713D01*
X137007948Y-90158713D01*
X135087590Y-88238355D01*
X135080521Y-88231286D01*
X135080520Y-88231284D01*
X135061414Y-88212178D01*
X135027932Y-88150857D01*
X135031804Y-88096734D01*
X135032917Y-88081167D01*
X135035851Y-88077248D01*
X135074790Y-88025232D01*
X135119675Y-88008492D01*
X135140253Y-88000817D01*
X135149099Y-88000501D01*
X135179054Y-88000501D01*
X135179057Y-88000501D01*
X135331785Y-87959577D01*
X135381904Y-87930639D01*
X135468716Y-87880520D01*
X135580520Y-87768716D01*
X135580520Y-87768714D01*
X135590728Y-87758507D01*
X135590730Y-87758504D01*
X138055158Y-85294075D01*
X138116479Y-85260592D01*
X138181151Y-85263825D01*
X138195466Y-85268477D01*
X138397648Y-85300500D01*
X138397649Y-85300500D01*
X138602351Y-85300500D01*
X138602352Y-85300500D01*
X138804534Y-85268477D01*
X138999219Y-85205220D01*
X139181610Y-85112287D01*
X139304215Y-85023210D01*
X139347213Y-84991971D01*
X139347215Y-84991968D01*
X139347219Y-84991966D01*
X139491966Y-84847219D01*
X139491968Y-84847215D01*
X139491971Y-84847213D01*
X139575775Y-84731865D01*
X139612287Y-84681610D01*
X139705220Y-84499219D01*
X139768477Y-84304534D01*
X139770478Y-84291901D01*
X139800408Y-84228767D01*
X139859720Y-84191836D01*
X139892951Y-84187300D01*
X140536231Y-84187300D01*
X140536247Y-84187301D01*
X140543843Y-84187301D01*
X140701954Y-84187301D01*
X140701957Y-84187301D01*
X140854685Y-84146377D01*
X140928922Y-84103516D01*
X140991616Y-84067320D01*
X141103420Y-83955516D01*
X141103420Y-83955514D01*
X141113624Y-83945311D01*
X141113628Y-83945306D01*
X141608506Y-83450428D01*
X141608511Y-83450424D01*
X141618714Y-83440220D01*
X141618716Y-83440220D01*
X141730520Y-83328416D01*
X141809577Y-83191484D01*
X141847097Y-83051458D01*
X141850500Y-83038758D01*
X141850500Y-82880643D01*
X141850500Y-77979601D01*
X141870185Y-77912562D01*
X141918206Y-77869116D01*
X141931610Y-77862287D01*
X142097219Y-77741966D01*
X142241966Y-77597219D01*
X142241968Y-77597215D01*
X142241971Y-77597213D01*
X142362286Y-77431611D01*
X142362287Y-77431610D01*
X142417371Y-77323500D01*
X142465344Y-77272706D01*
X142533165Y-77255910D01*
X142599300Y-77278447D01*
X142615536Y-77292115D01*
X142643507Y-77320086D01*
X142643511Y-77320089D01*
X142774614Y-77407690D01*
X142774627Y-77407697D01*
X142920298Y-77468035D01*
X142920303Y-77468037D01*
X142974623Y-77478842D01*
X143075649Y-77498938D01*
X143092405Y-77507702D01*
X143110885Y-77511723D01*
X143135923Y-77530467D01*
X143137560Y-77531323D01*
X143139139Y-77532874D01*
X143275004Y-77668739D01*
X143308489Y-77730062D01*
X143303505Y-77799754D01*
X143268024Y-77848008D01*
X143268873Y-77848857D01*
X143149378Y-77968351D01*
X143149369Y-77968363D01*
X143067320Y-78107103D01*
X143067317Y-78107110D01*
X143022346Y-78261897D01*
X143022345Y-78261903D01*
X143019500Y-78298057D01*
X143019500Y-78701922D01*
X143019501Y-78701947D01*
X143022346Y-78738098D01*
X143067317Y-78892889D01*
X143067320Y-78892896D01*
X143149369Y-79031636D01*
X143149378Y-79031648D01*
X143263351Y-79145621D01*
X143263355Y-79145624D01*
X143263357Y-79145626D01*
X143263360Y-79145627D01*
X143263363Y-79145630D01*
X143329499Y-79184742D01*
X143402106Y-79227681D01*
X143429494Y-79235638D01*
X143556897Y-79272653D01*
X143556900Y-79272653D01*
X143556902Y-79272654D01*
X143593065Y-79275500D01*
X143845501Y-79275499D01*
X143912539Y-79295183D01*
X143958294Y-79347987D01*
X143969500Y-79399499D01*
X143969500Y-82333630D01*
X143969499Y-82333648D01*
X143969499Y-82499354D01*
X143969498Y-82499354D01*
X143969499Y-82499357D01*
X144010423Y-82652085D01*
X144010424Y-82652087D01*
X144010423Y-82652087D01*
X144015695Y-82661217D01*
X144015696Y-82661218D01*
X144089477Y-82789012D01*
X144089481Y-82789017D01*
X144208349Y-82907885D01*
X144208355Y-82907890D01*
X144858725Y-83558260D01*
X144892210Y-83619583D01*
X144892661Y-83621749D01*
X144923561Y-83777091D01*
X144923564Y-83777101D01*
X144983902Y-83922772D01*
X144983909Y-83922785D01*
X145071510Y-84053888D01*
X145071513Y-84053892D01*
X145183007Y-84165386D01*
X145183011Y-84165389D01*
X145314114Y-84252990D01*
X145314127Y-84252997D01*
X145438553Y-84304535D01*
X145459803Y-84313337D01*
X145614453Y-84344099D01*
X145614456Y-84344100D01*
X145614458Y-84344100D01*
X145772144Y-84344100D01*
X145772145Y-84344099D01*
X145926797Y-84313337D01*
X146072479Y-84252994D01*
X146203589Y-84165389D01*
X146315089Y-84053889D01*
X146402694Y-83922779D01*
X146463037Y-83777097D01*
X146493800Y-83622442D01*
X146493800Y-83464758D01*
X146493800Y-83464755D01*
X146493799Y-83464753D01*
X146485528Y-83423174D01*
X146463037Y-83310103D01*
X146430535Y-83231636D01*
X146402697Y-83164427D01*
X146402690Y-83164414D01*
X146315089Y-83033311D01*
X146315086Y-83033307D01*
X146203592Y-82921813D01*
X146203588Y-82921810D01*
X146072485Y-82834209D01*
X146072472Y-82834202D01*
X145926801Y-82773864D01*
X145926791Y-82773861D01*
X145771449Y-82742961D01*
X145709538Y-82710576D01*
X145707960Y-82709025D01*
X145206819Y-82207884D01*
X145173334Y-82146561D01*
X145170500Y-82120203D01*
X145170500Y-79255470D01*
X145190185Y-79188431D01*
X145231381Y-79148737D01*
X145236643Y-79145626D01*
X145350626Y-79031643D01*
X145432681Y-78892894D01*
X145477654Y-78738098D01*
X145480500Y-78701935D01*
X145480499Y-78298066D01*
X145477654Y-78261902D01*
X145432681Y-78107106D01*
X145364423Y-77991686D01*
X145350630Y-77968363D01*
X145350621Y-77968351D01*
X145236648Y-77854378D01*
X145236636Y-77854369D01*
X145097896Y-77772320D01*
X145097889Y-77772317D01*
X144943102Y-77727346D01*
X144943096Y-77727345D01*
X144906942Y-77724500D01*
X144906935Y-77724500D01*
X144654500Y-77724500D01*
X144645814Y-77721949D01*
X144636853Y-77723238D01*
X144612812Y-77712259D01*
X144587461Y-77704815D01*
X144581533Y-77697974D01*
X144573297Y-77694213D01*
X144559007Y-77671978D01*
X144541706Y-77652011D01*
X144539418Y-77641496D01*
X144535523Y-77635435D01*
X144530500Y-77600500D01*
X144530500Y-77563560D01*
X144530501Y-77563547D01*
X144530501Y-77395444D01*
X144510595Y-77321155D01*
X144489577Y-77242716D01*
X144434579Y-77147455D01*
X144410524Y-77105790D01*
X144410518Y-77105782D01*
X143988373Y-76683637D01*
X143954888Y-76622314D01*
X143954437Y-76620147D01*
X143950330Y-76599500D01*
X143923537Y-76464803D01*
X143923535Y-76464797D01*
X143863197Y-76319127D01*
X143863190Y-76319114D01*
X143775589Y-76188011D01*
X143775586Y-76188007D01*
X143664092Y-76076513D01*
X143664088Y-76076510D01*
X143532985Y-75988909D01*
X143532972Y-75988902D01*
X143387301Y-75928564D01*
X143387289Y-75928561D01*
X143232645Y-75897800D01*
X143232642Y-75897800D01*
X143074958Y-75897800D01*
X143074955Y-75897800D01*
X142920310Y-75928561D01*
X142920298Y-75928564D01*
X142774627Y-75988902D01*
X142774614Y-75988909D01*
X142643511Y-76076510D01*
X142580635Y-76139386D01*
X142519311Y-76172870D01*
X142449620Y-76167885D01*
X142393686Y-76126014D01*
X142382470Y-76108000D01*
X142362286Y-76068388D01*
X142241971Y-75902786D01*
X142097213Y-75758028D01*
X141931613Y-75637715D01*
X141931612Y-75637714D01*
X141931610Y-75637713D01*
X141866204Y-75604387D01*
X141749223Y-75544781D01*
X141554534Y-75481522D01*
X141379995Y-75453878D01*
X141352352Y-75449500D01*
X141147648Y-75449500D01*
X141085294Y-75459376D01*
X140945464Y-75481523D01*
X140945457Y-75481524D01*
X140908717Y-75493462D01*
X140880598Y-75494265D01*
X140852753Y-75498269D01*
X140846141Y-75495249D01*
X140838876Y-75495457D01*
X140814786Y-75480930D01*
X140789197Y-75469244D01*
X140785267Y-75463129D01*
X140779043Y-75459376D01*
X140766631Y-75434131D01*
X140751423Y-75410466D01*
X140749945Y-75400192D01*
X140748216Y-75396674D01*
X140746400Y-75375531D01*
X140746400Y-75177196D01*
X140766085Y-75110157D01*
X140782715Y-75089519D01*
X141178506Y-74693727D01*
X141178511Y-74693724D01*
X141188714Y-74683520D01*
X141188716Y-74683520D01*
X141300520Y-74571716D01*
X141379577Y-74434784D01*
X141420500Y-74282057D01*
X141420500Y-73255470D01*
X141440185Y-73188431D01*
X141481381Y-73148737D01*
X141486643Y-73145626D01*
X141600626Y-73031643D01*
X141682681Y-72892894D01*
X141727654Y-72738098D01*
X141730500Y-72701935D01*
X141730499Y-72298066D01*
X141727654Y-72261902D01*
X141682681Y-72107106D01*
X141600626Y-71968357D01*
X141600624Y-71968355D01*
X141600621Y-71968351D01*
X141486648Y-71854378D01*
X141486636Y-71854369D01*
X141347896Y-71772320D01*
X141347889Y-71772317D01*
X141193102Y-71727346D01*
X141193096Y-71727345D01*
X141156935Y-71724500D01*
X140673077Y-71724500D01*
X140673052Y-71724501D01*
X140636901Y-71727346D01*
X140534595Y-71757069D01*
X140521894Y-71757739D01*
X140513415Y-71761265D01*
X140491469Y-71759347D01*
X140478142Y-71760051D01*
X140471693Y-71758896D01*
X140363098Y-71727346D01*
X140326935Y-71724500D01*
X140279623Y-71724500D01*
X140268779Y-71722558D01*
X140251832Y-71714102D01*
X140228638Y-71707888D01*
X140161904Y-71669360D01*
X140161904Y-71669359D01*
X140161900Y-71669358D01*
X140111785Y-71640423D01*
X139959057Y-71599499D01*
X139800943Y-71599499D01*
X139793347Y-71599499D01*
X139793331Y-71599500D01*
X139736866Y-71599500D01*
X139669827Y-71579815D01*
X139667975Y-71578602D01*
X139536285Y-71490609D01*
X139536272Y-71490602D01*
X139390601Y-71430264D01*
X139390589Y-71430261D01*
X139235945Y-71399500D01*
X139235942Y-71399500D01*
X139078258Y-71399500D01*
X139078255Y-71399500D01*
X138923610Y-71430261D01*
X138923598Y-71430264D01*
X138777927Y-71490602D01*
X138777914Y-71490609D01*
X138646811Y-71578210D01*
X138646807Y-71578213D01*
X138535313Y-71689707D01*
X138535310Y-71689711D01*
X138447709Y-71820814D01*
X138447702Y-71820827D01*
X138387364Y-71966498D01*
X138387361Y-71966510D01*
X138356600Y-72121153D01*
X138356600Y-72278846D01*
X138387361Y-72433489D01*
X138387364Y-72433501D01*
X138447702Y-72579172D01*
X138447709Y-72579185D01*
X138535310Y-72710288D01*
X138535313Y-72710292D01*
X138646807Y-72821786D01*
X138646811Y-72821789D01*
X138777914Y-72909390D01*
X138777927Y-72909397D01*
X138850490Y-72939453D01*
X138923603Y-72969737D01*
X139064091Y-72997682D01*
X139078253Y-73000499D01*
X139078256Y-73000500D01*
X139078258Y-73000500D01*
X139235943Y-73000500D01*
X139281412Y-72991455D01*
X139351004Y-72997682D01*
X139391767Y-73028216D01*
X139393857Y-73026127D01*
X139513351Y-73145621D01*
X139513355Y-73145624D01*
X139513357Y-73145626D01*
X139513360Y-73145627D01*
X139513363Y-73145630D01*
X139579499Y-73184742D01*
X139652106Y-73227681D01*
X139692928Y-73239541D01*
X139806897Y-73272653D01*
X139806900Y-73272653D01*
X139806902Y-73272654D01*
X139843065Y-73275500D01*
X140095501Y-73275499D01*
X140162539Y-73295183D01*
X140208294Y-73347987D01*
X140219500Y-73399499D01*
X140219500Y-73902902D01*
X140199815Y-73969941D01*
X140183181Y-73990583D01*
X139665381Y-74508382D01*
X139665379Y-74508385D01*
X139630825Y-74568236D01*
X139630824Y-74568238D01*
X139586323Y-74645314D01*
X139586323Y-74645315D01*
X139545399Y-74798043D01*
X139545399Y-74798045D01*
X139545399Y-74966146D01*
X139545400Y-74966159D01*
X139545400Y-75493902D01*
X139525715Y-75560941D01*
X139472911Y-75606696D01*
X139403753Y-75616640D01*
X139365106Y-75604387D01*
X139249034Y-75545245D01*
X139054417Y-75482009D01*
X138852317Y-75450000D01*
X138647683Y-75450000D01*
X138445582Y-75482009D01*
X138250968Y-75545244D01*
X138068644Y-75638143D01*
X138024077Y-75670523D01*
X138024077Y-75670524D01*
X138703553Y-76350000D01*
X138697339Y-76350000D01*
X138595606Y-76377259D01*
X138504394Y-76429920D01*
X138429920Y-76504394D01*
X138377259Y-76595606D01*
X138350000Y-76697339D01*
X138350000Y-76703553D01*
X137670524Y-76024077D01*
X137670523Y-76024077D01*
X137638143Y-76068644D01*
X137545244Y-76250968D01*
X137482009Y-76445582D01*
X137450000Y-76647682D01*
X137450000Y-76852317D01*
X137482009Y-77054417D01*
X137545244Y-77249031D01*
X137638141Y-77431350D01*
X137638147Y-77431359D01*
X137670523Y-77475921D01*
X137670524Y-77475922D01*
X138350000Y-76796446D01*
X138350000Y-76802661D01*
X138377259Y-76904394D01*
X138429920Y-76995606D01*
X138504394Y-77070080D01*
X138595606Y-77122741D01*
X138697339Y-77150000D01*
X138703552Y-77150000D01*
X138024076Y-77829474D01*
X138068650Y-77861859D01*
X138250968Y-77954755D01*
X138445582Y-78017990D01*
X138647683Y-78050000D01*
X138852317Y-78050000D01*
X139054417Y-78017990D01*
X139249031Y-77954755D01*
X139365105Y-77895612D01*
X139433774Y-77882716D01*
X139498515Y-77908992D01*
X139538772Y-77966098D01*
X139545400Y-78006097D01*
X139545400Y-82162030D01*
X139545399Y-82162048D01*
X139545399Y-82327754D01*
X139545398Y-82327754D01*
X139557078Y-82371342D01*
X139586323Y-82480485D01*
X139586324Y-82480486D01*
X139597218Y-82499357D01*
X139597219Y-82499358D01*
X139665375Y-82617409D01*
X139665381Y-82617417D01*
X139784249Y-82736285D01*
X139784255Y-82736290D01*
X139793425Y-82745460D01*
X139826910Y-82806783D01*
X139827361Y-82808946D01*
X139829186Y-82818118D01*
X139832385Y-82834202D01*
X139833162Y-82838105D01*
X139826936Y-82907697D01*
X139784075Y-82962875D01*
X139718186Y-82986122D01*
X139711545Y-82986300D01*
X139357594Y-82986300D01*
X139290555Y-82966615D01*
X139284709Y-82962618D01*
X139181613Y-82887715D01*
X139181612Y-82887714D01*
X139181610Y-82887713D01*
X139124653Y-82858691D01*
X138999223Y-82794781D01*
X138804534Y-82731522D01*
X138620169Y-82702322D01*
X138602352Y-82699500D01*
X138397648Y-82699500D01*
X138379831Y-82702322D01*
X138195465Y-82731522D01*
X138000776Y-82794781D01*
X137818386Y-82887715D01*
X137652786Y-83008028D01*
X137508028Y-83152786D01*
X137387714Y-83318386D01*
X137360203Y-83372379D01*
X137312227Y-83423174D01*
X137244406Y-83439968D01*
X137178272Y-83417429D01*
X137139234Y-83372376D01*
X137111861Y-83318652D01*
X137079474Y-83274077D01*
X137079474Y-83274076D01*
X136400000Y-83953553D01*
X136400000Y-83947339D01*
X136372741Y-83845606D01*
X136320080Y-83754394D01*
X136245606Y-83679920D01*
X136154394Y-83627259D01*
X136052661Y-83600000D01*
X136046446Y-83600000D01*
X136725922Y-82920524D01*
X136725921Y-82920523D01*
X136681359Y-82888147D01*
X136681350Y-82888141D01*
X136543922Y-82818118D01*
X136493126Y-82770143D01*
X136476331Y-82702322D01*
X136485654Y-82660185D01*
X136541237Y-82525997D01*
X136572000Y-82371342D01*
X136572000Y-82213658D01*
X136572000Y-82213655D01*
X136571999Y-82213653D01*
X136555524Y-82130829D01*
X136541237Y-82059003D01*
X136512939Y-81990685D01*
X136480897Y-81913327D01*
X136480890Y-81913314D01*
X136393289Y-81782211D01*
X136393286Y-81782207D01*
X136277482Y-81666403D01*
X136279346Y-81664538D01*
X136246470Y-81616190D01*
X136240500Y-81578177D01*
X136240500Y-78255470D01*
X136260185Y-78188431D01*
X136301381Y-78148737D01*
X136306643Y-78145626D01*
X136420626Y-78031643D01*
X136502681Y-77892894D01*
X136547654Y-77738098D01*
X136550500Y-77701935D01*
X136550499Y-77298066D01*
X136547654Y-77261902D01*
X136502681Y-77107106D01*
X136458123Y-77031762D01*
X136420630Y-76968363D01*
X136420621Y-76968351D01*
X136306648Y-76854378D01*
X136306636Y-76854369D01*
X136167896Y-76772320D01*
X136167889Y-76772316D01*
X136132007Y-76761892D01*
X136013102Y-76727346D01*
X136013096Y-76727345D01*
X135976935Y-76724500D01*
X135493077Y-76724500D01*
X135493052Y-76724501D01*
X135456901Y-76727346D01*
X135354595Y-76757069D01*
X135285405Y-76757069D01*
X135183102Y-76727346D01*
X135183096Y-76727345D01*
X135146935Y-76724500D01*
X134663077Y-76724500D01*
X134663052Y-76724501D01*
X134626901Y-76727346D01*
X134472110Y-76772317D01*
X134472103Y-76772320D01*
X134333363Y-76854369D01*
X134333351Y-76854378D01*
X134219378Y-76968351D01*
X134219369Y-76968363D01*
X134137320Y-77107103D01*
X134137317Y-77107110D01*
X134092346Y-77261897D01*
X134092345Y-77261903D01*
X134089500Y-77298057D01*
X134089500Y-77701922D01*
X134089501Y-77701947D01*
X134092346Y-77738098D01*
X134137317Y-77892889D01*
X134137320Y-77892896D01*
X134219369Y-78031636D01*
X134219378Y-78031648D01*
X134333349Y-78145619D01*
X134333355Y-78145624D01*
X134333357Y-78145626D01*
X134338618Y-78148737D01*
X134386302Y-78199802D01*
X134399500Y-78255470D01*
X134399500Y-78856403D01*
X134390855Y-78885843D01*
X134384332Y-78915830D01*
X134380577Y-78920845D01*
X134379815Y-78923442D01*
X134363181Y-78944084D01*
X134192639Y-79114625D01*
X134131316Y-79148110D01*
X134129150Y-79148561D01*
X133973808Y-79179461D01*
X133973798Y-79179464D01*
X133828127Y-79239802D01*
X133828114Y-79239809D01*
X133697011Y-79327410D01*
X133697007Y-79327413D01*
X133585513Y-79438907D01*
X133585510Y-79438911D01*
X133497909Y-79570014D01*
X133497902Y-79570027D01*
X133437564Y-79715698D01*
X133437561Y-79715710D01*
X133406800Y-79870353D01*
X133406800Y-80028046D01*
X133437561Y-80182689D01*
X133437564Y-80182701D01*
X133497902Y-80328372D01*
X133497909Y-80328385D01*
X133585510Y-80459488D01*
X133585513Y-80459492D01*
X133697007Y-80570986D01*
X133697011Y-80570989D01*
X133828114Y-80658590D01*
X133828127Y-80658597D01*
X133973798Y-80718935D01*
X133973803Y-80718937D01*
X134128453Y-80749699D01*
X134128456Y-80749700D01*
X134128458Y-80749700D01*
X134286144Y-80749700D01*
X134286145Y-80749699D01*
X134440797Y-80718937D01*
X134586479Y-80658594D01*
X134717589Y-80570989D01*
X134762914Y-80525664D01*
X134827819Y-80460760D01*
X134889142Y-80427275D01*
X134958834Y-80432259D01*
X135014767Y-80474131D01*
X135039184Y-80539595D01*
X135039500Y-80548441D01*
X135039500Y-81943233D01*
X135030061Y-81990685D01*
X135001763Y-82059001D01*
X135001760Y-82059011D01*
X134971000Y-82213653D01*
X134971000Y-82371346D01*
X135001761Y-82525989D01*
X135001764Y-82526001D01*
X135062102Y-82671672D01*
X135062109Y-82671685D01*
X135149709Y-82802787D01*
X135149710Y-82802788D01*
X135149711Y-82802789D01*
X135261211Y-82914289D01*
X135270542Y-82920524D01*
X135271038Y-82920855D01*
X135289834Y-82936280D01*
X135953554Y-83600000D01*
X135947339Y-83600000D01*
X135845606Y-83627259D01*
X135754394Y-83679920D01*
X135679920Y-83754394D01*
X135627259Y-83845606D01*
X135600000Y-83947339D01*
X135600000Y-83953553D01*
X134920524Y-83274077D01*
X134920523Y-83274077D01*
X134888143Y-83318644D01*
X134795244Y-83500968D01*
X134732009Y-83695582D01*
X134700000Y-83897682D01*
X134700000Y-84102317D01*
X134732009Y-84304417D01*
X134795244Y-84499031D01*
X134888141Y-84681350D01*
X134888147Y-84681359D01*
X134920523Y-84725921D01*
X134920524Y-84725922D01*
X135600000Y-84046446D01*
X135600000Y-84052661D01*
X135627259Y-84154394D01*
X135679920Y-84245606D01*
X135754394Y-84320080D01*
X135845606Y-84372741D01*
X135947339Y-84400000D01*
X135953553Y-84400000D01*
X135274076Y-85079474D01*
X135318650Y-85111859D01*
X135500968Y-85204755D01*
X135695582Y-85267990D01*
X135897683Y-85300000D01*
X136051401Y-85300000D01*
X136118440Y-85319685D01*
X136164195Y-85372489D01*
X136174139Y-85441647D01*
X136145114Y-85505203D01*
X136139082Y-85511681D01*
X134887584Y-86763181D01*
X134826261Y-86796666D01*
X134799903Y-86799500D01*
X134086670Y-86799500D01*
X134086654Y-86799499D01*
X134079058Y-86799499D01*
X133920943Y-86799499D01*
X133844579Y-86819961D01*
X133768214Y-86840423D01*
X133768209Y-86840426D01*
X133631290Y-86919475D01*
X133631282Y-86919481D01*
X132752694Y-87798069D01*
X132739741Y-87805729D01*
X132731754Y-87814894D01*
X132699608Y-87829464D01*
X132559095Y-87870287D01*
X132489226Y-87870088D01*
X132430556Y-87832146D01*
X132401712Y-87768508D01*
X132400500Y-87751211D01*
X132400500Y-85683131D01*
X132420185Y-85616092D01*
X132436814Y-85595454D01*
X132500626Y-85531643D01*
X132582681Y-85392894D01*
X132622233Y-85256757D01*
X132627653Y-85238102D01*
X132627654Y-85238096D01*
X132628171Y-85231523D01*
X132630500Y-85201935D01*
X132630499Y-84798066D01*
X132627654Y-84761902D01*
X132582681Y-84607106D01*
X132518878Y-84499219D01*
X132500630Y-84468363D01*
X132500621Y-84468351D01*
X132386648Y-84354378D01*
X132386636Y-84354369D01*
X132247896Y-84272320D01*
X132247889Y-84272317D01*
X132093102Y-84227346D01*
X132093096Y-84227345D01*
X132056935Y-84224500D01*
X131573077Y-84224500D01*
X131573052Y-84224501D01*
X131536901Y-84227346D01*
X131434595Y-84257069D01*
X131365405Y-84257069D01*
X131263102Y-84227346D01*
X131263096Y-84227345D01*
X131226935Y-84224500D01*
X130743077Y-84224500D01*
X130743052Y-84224501D01*
X130706901Y-84227346D01*
X130659095Y-84241235D01*
X130632841Y-84241160D01*
X130606853Y-84244897D01*
X130598456Y-84241062D01*
X130589225Y-84241036D01*
X130567177Y-84226777D01*
X130543297Y-84215872D01*
X130538306Y-84208107D01*
X130530555Y-84203094D01*
X130519716Y-84179178D01*
X130505523Y-84157094D01*
X130503579Y-84143574D01*
X130501712Y-84139455D01*
X130500500Y-84122159D01*
X130500500Y-79258676D01*
X130520185Y-79191637D01*
X130536819Y-79170995D01*
X139170995Y-70536819D01*
X139232318Y-70503334D01*
X139258676Y-70500500D01*
X140741324Y-70500500D01*
X140808363Y-70520185D01*
G37*
%TD.AperFunction*%
%TA.AperFunction,Conductor*%
G36*
X163888834Y-89916715D02*
G01*
X163944767Y-89958587D01*
X163969184Y-90024051D01*
X163969500Y-90032897D01*
X163969500Y-91850500D01*
X163949815Y-91917539D01*
X163897011Y-91963294D01*
X163845500Y-91974500D01*
X163593077Y-91974500D01*
X163593052Y-91974501D01*
X163556901Y-91977346D01*
X163402110Y-92022317D01*
X163402103Y-92022320D01*
X163263363Y-92104369D01*
X163263351Y-92104378D01*
X163149378Y-92218351D01*
X163149369Y-92218363D01*
X163067320Y-92357103D01*
X163067317Y-92357110D01*
X163022346Y-92511897D01*
X163022345Y-92511903D01*
X163019500Y-92548057D01*
X163019500Y-92585051D01*
X162999815Y-92652090D01*
X162947011Y-92697845D01*
X162942956Y-92699611D01*
X162917623Y-92710104D01*
X162917614Y-92710109D01*
X162786511Y-92797710D01*
X162786507Y-92797713D01*
X162675013Y-92909207D01*
X162675010Y-92909211D01*
X162587409Y-93040314D01*
X162587402Y-93040327D01*
X162527064Y-93185998D01*
X162527061Y-93186010D01*
X162496300Y-93340653D01*
X162496300Y-93498346D01*
X162527061Y-93652989D01*
X162527064Y-93653001D01*
X162587402Y-93798672D01*
X162587409Y-93798685D01*
X162666604Y-93917208D01*
X162687482Y-93983886D01*
X162668997Y-94051266D01*
X162651183Y-94073780D01*
X160438639Y-96286325D01*
X160377316Y-96319810D01*
X160375150Y-96320261D01*
X160219808Y-96351161D01*
X160219798Y-96351164D01*
X160091952Y-96404119D01*
X160022482Y-96411588D01*
X159960003Y-96380312D01*
X159924352Y-96320223D01*
X159920500Y-96289558D01*
X159920500Y-95483045D01*
X159920500Y-95483043D01*
X159885296Y-95351658D01*
X159885296Y-95351657D01*
X159885296Y-95351656D01*
X159879578Y-95330318D01*
X159879577Y-95330317D01*
X159879577Y-95330315D01*
X159866767Y-95308129D01*
X159849270Y-95277822D01*
X159849269Y-95277821D01*
X159800521Y-95193386D01*
X159800520Y-95193384D01*
X159688716Y-95081580D01*
X159688715Y-95081579D01*
X159684385Y-95077249D01*
X159684374Y-95077239D01*
X158482218Y-93875083D01*
X158448733Y-93813760D01*
X158453717Y-93744068D01*
X158495589Y-93688135D01*
X158537810Y-93667626D01*
X158563729Y-93660681D01*
X158775659Y-93572897D01*
X158775668Y-93572893D01*
X158974327Y-93458197D01*
X158974334Y-93458192D01*
X159048064Y-93401617D01*
X158324024Y-92677578D01*
X158355258Y-92664641D01*
X158478097Y-92582563D01*
X158582563Y-92478097D01*
X158664641Y-92355258D01*
X158677578Y-92324025D01*
X159401617Y-93048064D01*
X159458192Y-92974334D01*
X159458194Y-92974332D01*
X159485489Y-92927056D01*
X159536056Y-92878840D01*
X159604663Y-92865616D01*
X159669528Y-92891584D01*
X159695979Y-92920164D01*
X159746510Y-92995788D01*
X159746513Y-92995792D01*
X159858007Y-93107286D01*
X159858011Y-93107289D01*
X159989114Y-93194890D01*
X159989127Y-93194897D01*
X160067868Y-93227512D01*
X160134803Y-93255237D01*
X160267519Y-93281636D01*
X160289453Y-93285999D01*
X160289456Y-93286000D01*
X160289458Y-93286000D01*
X160447144Y-93286000D01*
X160447145Y-93285999D01*
X160601797Y-93255237D01*
X160747479Y-93194894D01*
X160878589Y-93107289D01*
X160990089Y-92995789D01*
X161077694Y-92864679D01*
X161138037Y-92718997D01*
X161168800Y-92564342D01*
X161168938Y-92563650D01*
X161201323Y-92501739D01*
X161202818Y-92500216D01*
X163757819Y-89945216D01*
X163819142Y-89911731D01*
X163888834Y-89916715D01*
G37*
%TD.AperFunction*%
%TA.AperFunction,Conductor*%
G36*
X160400745Y-78161063D02*
G01*
X160410829Y-78159797D01*
X160433704Y-78170741D01*
X160458033Y-78177885D01*
X160464687Y-78185564D01*
X160473856Y-78189951D01*
X160487184Y-78211527D01*
X160503788Y-78230689D01*
X160505234Y-78240746D01*
X160510576Y-78249394D01*
X160510123Y-78274750D01*
X160513732Y-78299847D01*
X160509477Y-78310950D01*
X160509329Y-78319253D01*
X160494096Y-78351091D01*
X160448109Y-78419914D01*
X160448102Y-78419927D01*
X160387764Y-78565598D01*
X160387761Y-78565610D01*
X160357000Y-78720253D01*
X160357000Y-78877946D01*
X160387761Y-79032589D01*
X160387764Y-79032601D01*
X160448102Y-79178272D01*
X160448109Y-79178285D01*
X160535710Y-79309388D01*
X160539576Y-79314099D01*
X160538651Y-79314857D01*
X160569096Y-79370613D01*
X160564112Y-79440305D01*
X160535611Y-79484652D01*
X159682086Y-80338178D01*
X159570281Y-80449982D01*
X159570279Y-80449985D01*
X159556339Y-80474131D01*
X159526586Y-80525665D01*
X159513436Y-80548441D01*
X159492004Y-80585563D01*
X159491223Y-80586915D01*
X159450299Y-80739643D01*
X159450299Y-80739645D01*
X159450299Y-80907746D01*
X159450300Y-80907759D01*
X159450300Y-85112434D01*
X159430615Y-85179473D01*
X159429402Y-85181325D01*
X159341409Y-85313014D01*
X159341402Y-85313027D01*
X159281064Y-85458698D01*
X159281061Y-85458710D01*
X159250300Y-85613353D01*
X159250300Y-85771046D01*
X159281061Y-85925689D01*
X159281064Y-85925701D01*
X159341402Y-86071372D01*
X159341409Y-86071385D01*
X159429010Y-86202488D01*
X159429013Y-86202492D01*
X159540507Y-86313986D01*
X159540511Y-86313989D01*
X159671614Y-86401590D01*
X159671627Y-86401597D01*
X159777620Y-86445500D01*
X159817303Y-86461937D01*
X159949280Y-86488189D01*
X159971953Y-86492699D01*
X159971956Y-86492700D01*
X159971958Y-86492700D01*
X160129644Y-86492700D01*
X160129645Y-86492699D01*
X160284297Y-86461937D01*
X160429979Y-86401594D01*
X160561089Y-86313989D01*
X160561092Y-86313986D01*
X160569944Y-86305135D01*
X160672586Y-86202492D01*
X160672589Y-86202489D01*
X160760194Y-86071379D01*
X160820537Y-85925697D01*
X160851300Y-85771042D01*
X160851300Y-85613358D01*
X160851300Y-85613355D01*
X160851299Y-85613353D01*
X160849561Y-85604617D01*
X160820537Y-85458703D01*
X160804723Y-85420524D01*
X160760197Y-85313027D01*
X160760190Y-85313014D01*
X160672198Y-85181325D01*
X160651320Y-85114647D01*
X160651300Y-85112434D01*
X160651300Y-81118797D01*
X160670985Y-81051758D01*
X160687619Y-81031116D01*
X161006819Y-80711916D01*
X161068142Y-80678431D01*
X161137834Y-80683415D01*
X161193767Y-80725287D01*
X161218184Y-80790751D01*
X161218500Y-80799597D01*
X161218500Y-81726930D01*
X161218499Y-81726948D01*
X161218499Y-81892654D01*
X161218498Y-81892654D01*
X161259423Y-82045387D01*
X161259424Y-82045388D01*
X161280530Y-82081944D01*
X161338475Y-82182309D01*
X161338481Y-82182317D01*
X161457349Y-82301185D01*
X161457355Y-82301190D01*
X163256581Y-84100416D01*
X163290066Y-84161739D01*
X163292900Y-84188097D01*
X163292900Y-85138826D01*
X163273215Y-85205865D01*
X163220411Y-85251620D01*
X163151253Y-85261564D01*
X163130582Y-85256757D01*
X163054419Y-85232010D01*
X162852317Y-85200000D01*
X162647683Y-85200000D01*
X162445582Y-85232009D01*
X162250968Y-85295244D01*
X162068644Y-85388143D01*
X162024077Y-85420523D01*
X162024077Y-85420524D01*
X162703553Y-86100000D01*
X162697339Y-86100000D01*
X162595606Y-86127259D01*
X162504394Y-86179920D01*
X162429920Y-86254394D01*
X162377259Y-86345606D01*
X162350000Y-86447339D01*
X162350000Y-86453553D01*
X161670524Y-85774077D01*
X161670523Y-85774077D01*
X161638143Y-85818644D01*
X161545244Y-86000968D01*
X161482009Y-86195582D01*
X161450000Y-86397682D01*
X161450000Y-86602317D01*
X161482009Y-86804417D01*
X161545244Y-86999031D01*
X161638141Y-87181350D01*
X161638147Y-87181359D01*
X161670523Y-87225921D01*
X161670524Y-87225922D01*
X162350000Y-86546446D01*
X162350000Y-86552661D01*
X162377259Y-86654394D01*
X162429920Y-86745606D01*
X162504394Y-86820080D01*
X162595606Y-86872741D01*
X162697339Y-86900000D01*
X162703552Y-86900000D01*
X162024076Y-87579474D01*
X162068650Y-87611859D01*
X162250968Y-87704755D01*
X162445582Y-87767990D01*
X162647683Y-87800000D01*
X162852317Y-87800000D01*
X163054415Y-87767990D01*
X163130580Y-87743242D01*
X163200422Y-87741246D01*
X163260255Y-87777326D01*
X163291084Y-87840027D01*
X163292900Y-87861173D01*
X163292900Y-88660303D01*
X163273215Y-88727342D01*
X163256581Y-88747984D01*
X160353639Y-91650925D01*
X160292316Y-91684410D01*
X160290150Y-91684861D01*
X160134808Y-91715761D01*
X160134798Y-91715764D01*
X159989127Y-91776102D01*
X159989111Y-91776111D01*
X159921920Y-91821006D01*
X159855243Y-91841883D01*
X159787863Y-91823398D01*
X159741173Y-91771418D01*
X159730092Y-91734087D01*
X159720057Y-91657863D01*
X159660681Y-91436269D01*
X159572897Y-91224340D01*
X159572893Y-91224330D01*
X159458194Y-91025666D01*
X159401618Y-90951934D01*
X159401617Y-90951934D01*
X158677577Y-91675973D01*
X158664641Y-91644742D01*
X158582563Y-91521903D01*
X158478097Y-91417437D01*
X158355258Y-91335359D01*
X158324023Y-91322421D01*
X159048064Y-90598381D01*
X159048064Y-90598380D01*
X158974331Y-90541805D01*
X158974324Y-90541799D01*
X158775669Y-90427106D01*
X158775659Y-90427102D01*
X158563730Y-90339318D01*
X158342137Y-90279942D01*
X158114710Y-90250001D01*
X158114694Y-90250000D01*
X157885306Y-90250000D01*
X157885289Y-90250001D01*
X157657862Y-90279942D01*
X157436269Y-90339318D01*
X157224340Y-90427102D01*
X157224330Y-90427106D01*
X157025673Y-90541801D01*
X157025659Y-90541810D01*
X156951934Y-90598380D01*
X157675975Y-91322421D01*
X157644742Y-91335359D01*
X157521903Y-91417437D01*
X157417437Y-91521903D01*
X157335359Y-91644742D01*
X157322421Y-91675975D01*
X156595947Y-90949500D01*
X156592121Y-90948644D01*
X156579153Y-90950509D01*
X156558684Y-90941161D01*
X156536725Y-90936247D01*
X156527515Y-90926926D01*
X156515597Y-90921484D01*
X156503431Y-90902554D01*
X156487615Y-90886548D01*
X156484046Y-90872389D01*
X156477823Y-90862706D01*
X156472800Y-90827771D01*
X156472800Y-89218135D01*
X156492485Y-89151096D01*
X156545289Y-89105341D01*
X156577102Y-89096766D01*
X156576968Y-89096089D01*
X156663434Y-89078888D01*
X156737597Y-89064137D01*
X156883279Y-89003794D01*
X157014389Y-88916189D01*
X157125889Y-88804689D01*
X157213494Y-88673579D01*
X157273837Y-88527897D01*
X157304600Y-88373242D01*
X157304600Y-88215558D01*
X157304600Y-88215555D01*
X157304599Y-88215553D01*
X157291730Y-88150857D01*
X157273837Y-88060903D01*
X157259062Y-88025232D01*
X157213497Y-87915227D01*
X157213490Y-87915214D01*
X157125498Y-87783525D01*
X157104620Y-87716847D01*
X157104600Y-87714634D01*
X157104600Y-81608496D01*
X157113244Y-81579055D01*
X157119768Y-81549069D01*
X157123522Y-81544053D01*
X157124285Y-81541457D01*
X157140915Y-81520819D01*
X157249916Y-81411817D01*
X157311239Y-81378333D01*
X157337597Y-81375499D01*
X157814363Y-81375499D01*
X157931753Y-81360046D01*
X157931757Y-81360044D01*
X157931762Y-81360044D01*
X158077841Y-81299536D01*
X158203282Y-81203282D01*
X158299536Y-81077841D01*
X158360044Y-80931762D01*
X158375500Y-80814361D01*
X158375499Y-80535640D01*
X158360044Y-80418238D01*
X158351434Y-80397454D01*
X158343965Y-80327986D01*
X158351435Y-80302545D01*
X158360044Y-80281762D01*
X158375500Y-80164361D01*
X158375499Y-79885640D01*
X158360044Y-79768238D01*
X158351434Y-79747454D01*
X158343965Y-79677986D01*
X158351435Y-79652545D01*
X158360044Y-79631762D01*
X158375500Y-79514361D01*
X158375499Y-79235640D01*
X158374451Y-79227682D01*
X158369284Y-79188431D01*
X158360044Y-79118238D01*
X158358547Y-79114625D01*
X158351435Y-79097455D01*
X158343965Y-79027986D01*
X158351435Y-79002545D01*
X158360044Y-78981762D01*
X158375500Y-78864361D01*
X158375499Y-78585640D01*
X158375499Y-78585636D01*
X158360046Y-78468246D01*
X158360044Y-78468241D01*
X158360044Y-78468238D01*
X158351162Y-78446797D01*
X158343694Y-78377328D01*
X158351164Y-78351890D01*
X158359555Y-78331632D01*
X158359555Y-78331630D01*
X158368195Y-78266014D01*
X158396462Y-78202118D01*
X158454787Y-78163647D01*
X158491134Y-78158200D01*
X160390994Y-78158200D01*
X160400745Y-78161063D01*
G37*
%TD.AperFunction*%
%TA.AperFunction,Conductor*%
G36*
X159941303Y-74078484D02*
G01*
X159947771Y-74084507D01*
X160111584Y-74248320D01*
X160111586Y-74248321D01*
X160111590Y-74248324D01*
X160248509Y-74327373D01*
X160248516Y-74327377D01*
X160401243Y-74368301D01*
X160401245Y-74368301D01*
X160566954Y-74368301D01*
X160566970Y-74368300D01*
X161537736Y-74368300D01*
X161604775Y-74387985D01*
X161650530Y-74440789D01*
X161660474Y-74509947D01*
X161652298Y-74539751D01*
X161640443Y-74568370D01*
X161632987Y-74625000D01*
X161850697Y-74625000D01*
X161879442Y-74633440D01*
X161908802Y-74639456D01*
X161912620Y-74643182D01*
X161917736Y-74644685D01*
X161937352Y-74667323D01*
X161958802Y-74688260D01*
X161959999Y-74693459D01*
X161963491Y-74697489D01*
X161967755Y-74727145D01*
X161974479Y-74756348D01*
X161972675Y-74761367D01*
X161973435Y-74766647D01*
X161960985Y-74793908D01*
X161950856Y-74822103D01*
X161945693Y-74827391D01*
X161944410Y-74830203D01*
X161926204Y-74847360D01*
X161924250Y-74848860D01*
X161859086Y-74874068D01*
X161848743Y-74874500D01*
X161248157Y-74874500D01*
X161090042Y-74874500D01*
X160937315Y-74915423D01*
X160937314Y-74915423D01*
X160937312Y-74915424D01*
X160937309Y-74915425D01*
X160887196Y-74944359D01*
X160887195Y-74944360D01*
X160866762Y-74956157D01*
X160800385Y-74994479D01*
X160800382Y-74994481D01*
X160688578Y-75106286D01*
X159990986Y-75803877D01*
X159972495Y-75813973D01*
X159956821Y-75828053D01*
X159942444Y-75830382D01*
X159929663Y-75837362D01*
X159908647Y-75835859D01*
X159887851Y-75839229D01*
X159874498Y-75833416D01*
X159859971Y-75832378D01*
X159843104Y-75819751D01*
X159823787Y-75811343D01*
X159807189Y-75792865D01*
X159804038Y-75790506D01*
X159800212Y-75785101D01*
X159757389Y-75721011D01*
X159756997Y-75720424D01*
X159736120Y-75653746D01*
X159736100Y-75651534D01*
X159736100Y-74172197D01*
X159755785Y-74105158D01*
X159808589Y-74059403D01*
X159877747Y-74049459D01*
X159941303Y-74078484D01*
G37*
%TD.AperFunction*%
%TD*%
M02*
