%TF.GenerationSoftware,KiCad,Pcbnew,9.0.6*%
%TF.CreationDate,2026-01-31T16:43:30+03:00*%
%TF.ProjectId,st-valentine-postcard,73742d76-616c-4656-9e74-696e652d706f,rev?*%
%TF.SameCoordinates,Original*%
%TF.FileFunction,Legend,Top*%
%TF.FilePolarity,Positive*%
%FSLAX46Y46*%
G04 Gerber Fmt 4.6, Leading zero omitted, Abs format (unit mm)*
G04 Created by KiCad (PCBNEW 9.0.6) date 2026-01-31 16:43:30*
%MOMM*%
%LPD*%
G01*
G04 APERTURE LIST*
%ADD10C,0.150000*%
%ADD11C,0.100000*%
%ADD12C,0.120000*%
G04 APERTURE END LIST*
D10*
X163156482Y-76799693D02*
X163863589Y-76092587D01*
X163863589Y-76092587D02*
X164031948Y-76260945D01*
X164031948Y-76260945D02*
X164099291Y-76395632D01*
X164099291Y-76395632D02*
X164099291Y-76530319D01*
X164099291Y-76530319D02*
X164065619Y-76631335D01*
X164065619Y-76631335D02*
X163964604Y-76799693D01*
X163964604Y-76799693D02*
X163863589Y-76900709D01*
X163863589Y-76900709D02*
X163695230Y-77001724D01*
X163695230Y-77001724D02*
X163594215Y-77035396D01*
X163594215Y-77035396D02*
X163459528Y-77035396D01*
X163459528Y-77035396D02*
X163324841Y-76968052D01*
X163324841Y-76968052D02*
X163156482Y-76799693D01*
X164638039Y-77338441D02*
X164166635Y-77809846D01*
X164739054Y-76900709D02*
X164065619Y-77237426D01*
X164065619Y-77237426D02*
X164503352Y-77675159D01*
X168454819Y-85238094D02*
X167454819Y-85238094D01*
X167454819Y-85238094D02*
X167454819Y-84999999D01*
X167454819Y-84999999D02*
X167502438Y-84857142D01*
X167502438Y-84857142D02*
X167597676Y-84761904D01*
X167597676Y-84761904D02*
X167692914Y-84714285D01*
X167692914Y-84714285D02*
X167883390Y-84666666D01*
X167883390Y-84666666D02*
X168026247Y-84666666D01*
X168026247Y-84666666D02*
X168216723Y-84714285D01*
X168216723Y-84714285D02*
X168311961Y-84761904D01*
X168311961Y-84761904D02*
X168407200Y-84857142D01*
X168407200Y-84857142D02*
X168454819Y-84999999D01*
X168454819Y-84999999D02*
X168454819Y-85238094D01*
X167454819Y-83761904D02*
X167454819Y-84238094D01*
X167454819Y-84238094D02*
X167931009Y-84285713D01*
X167931009Y-84285713D02*
X167883390Y-84238094D01*
X167883390Y-84238094D02*
X167835771Y-84142856D01*
X167835771Y-84142856D02*
X167835771Y-83904761D01*
X167835771Y-83904761D02*
X167883390Y-83809523D01*
X167883390Y-83809523D02*
X167931009Y-83761904D01*
X167931009Y-83761904D02*
X168026247Y-83714285D01*
X168026247Y-83714285D02*
X168264342Y-83714285D01*
X168264342Y-83714285D02*
X168359580Y-83761904D01*
X168359580Y-83761904D02*
X168407200Y-83809523D01*
X168407200Y-83809523D02*
X168454819Y-83904761D01*
X168454819Y-83904761D02*
X168454819Y-84142856D01*
X168454819Y-84142856D02*
X168407200Y-84238094D01*
X168407200Y-84238094D02*
X168359580Y-84285713D01*
X134562226Y-92220513D02*
X135269333Y-91513407D01*
X135269333Y-91513407D02*
X135437692Y-91681765D01*
X135437692Y-91681765D02*
X135505035Y-91816452D01*
X135505035Y-91816452D02*
X135505035Y-91951139D01*
X135505035Y-91951139D02*
X135471363Y-92052155D01*
X135471363Y-92052155D02*
X135370348Y-92220513D01*
X135370348Y-92220513D02*
X135269333Y-92321529D01*
X135269333Y-92321529D02*
X135100974Y-92422544D01*
X135100974Y-92422544D02*
X134999959Y-92456216D01*
X134999959Y-92456216D02*
X134865272Y-92456216D01*
X134865272Y-92456216D02*
X134730585Y-92388872D01*
X134730585Y-92388872D02*
X134562226Y-92220513D01*
X135639722Y-93298009D02*
X135235661Y-92893948D01*
X135437692Y-93095979D02*
X136144798Y-92388872D01*
X136144798Y-92388872D02*
X135976440Y-92422544D01*
X135976440Y-92422544D02*
X135841753Y-92422544D01*
X135841753Y-92422544D02*
X135740737Y-92388872D01*
X136784562Y-93028636D02*
X136851905Y-93095979D01*
X136851905Y-93095979D02*
X136885577Y-93196994D01*
X136885577Y-93196994D02*
X136885577Y-93264338D01*
X136885577Y-93264338D02*
X136851905Y-93365353D01*
X136851905Y-93365353D02*
X136750890Y-93533712D01*
X136750890Y-93533712D02*
X136582531Y-93702071D01*
X136582531Y-93702071D02*
X136414173Y-93803086D01*
X136414173Y-93803086D02*
X136313157Y-93836758D01*
X136313157Y-93836758D02*
X136245814Y-93836758D01*
X136245814Y-93836758D02*
X136144799Y-93803086D01*
X136144799Y-93803086D02*
X136077455Y-93735742D01*
X136077455Y-93735742D02*
X136043783Y-93634727D01*
X136043783Y-93634727D02*
X136043783Y-93567384D01*
X136043783Y-93567384D02*
X136077455Y-93466368D01*
X136077455Y-93466368D02*
X136178470Y-93298010D01*
X136178470Y-93298010D02*
X136346829Y-93129651D01*
X136346829Y-93129651D02*
X136515188Y-93028636D01*
X136515188Y-93028636D02*
X136616203Y-92994964D01*
X136616203Y-92994964D02*
X136683547Y-92994964D01*
X136683547Y-92994964D02*
X136784562Y-93028636D01*
X142344819Y-97833333D02*
X143059104Y-97833333D01*
X143059104Y-97833333D02*
X143201961Y-97880952D01*
X143201961Y-97880952D02*
X143297200Y-97976190D01*
X143297200Y-97976190D02*
X143344819Y-98119047D01*
X143344819Y-98119047D02*
X143344819Y-98214285D01*
X143344819Y-96833333D02*
X143344819Y-97404761D01*
X143344819Y-97119047D02*
X142344819Y-97119047D01*
X142344819Y-97119047D02*
X142487676Y-97214285D01*
X142487676Y-97214285D02*
X142582914Y-97309523D01*
X142582914Y-97309523D02*
X142630533Y-97404761D01*
X149261905Y-105654819D02*
X149261905Y-104654819D01*
X149261905Y-104654819D02*
X149500000Y-104654819D01*
X149500000Y-104654819D02*
X149642857Y-104702438D01*
X149642857Y-104702438D02*
X149738095Y-104797676D01*
X149738095Y-104797676D02*
X149785714Y-104892914D01*
X149785714Y-104892914D02*
X149833333Y-105083390D01*
X149833333Y-105083390D02*
X149833333Y-105226247D01*
X149833333Y-105226247D02*
X149785714Y-105416723D01*
X149785714Y-105416723D02*
X149738095Y-105511961D01*
X149738095Y-105511961D02*
X149642857Y-105607200D01*
X149642857Y-105607200D02*
X149500000Y-105654819D01*
X149500000Y-105654819D02*
X149261905Y-105654819D01*
X150404762Y-105083390D02*
X150309524Y-105035771D01*
X150309524Y-105035771D02*
X150261905Y-104988152D01*
X150261905Y-104988152D02*
X150214286Y-104892914D01*
X150214286Y-104892914D02*
X150214286Y-104845295D01*
X150214286Y-104845295D02*
X150261905Y-104750057D01*
X150261905Y-104750057D02*
X150309524Y-104702438D01*
X150309524Y-104702438D02*
X150404762Y-104654819D01*
X150404762Y-104654819D02*
X150595238Y-104654819D01*
X150595238Y-104654819D02*
X150690476Y-104702438D01*
X150690476Y-104702438D02*
X150738095Y-104750057D01*
X150738095Y-104750057D02*
X150785714Y-104845295D01*
X150785714Y-104845295D02*
X150785714Y-104892914D01*
X150785714Y-104892914D02*
X150738095Y-104988152D01*
X150738095Y-104988152D02*
X150690476Y-105035771D01*
X150690476Y-105035771D02*
X150595238Y-105083390D01*
X150595238Y-105083390D02*
X150404762Y-105083390D01*
X150404762Y-105083390D02*
X150309524Y-105131009D01*
X150309524Y-105131009D02*
X150261905Y-105178628D01*
X150261905Y-105178628D02*
X150214286Y-105273866D01*
X150214286Y-105273866D02*
X150214286Y-105464342D01*
X150214286Y-105464342D02*
X150261905Y-105559580D01*
X150261905Y-105559580D02*
X150309524Y-105607200D01*
X150309524Y-105607200D02*
X150404762Y-105654819D01*
X150404762Y-105654819D02*
X150595238Y-105654819D01*
X150595238Y-105654819D02*
X150690476Y-105607200D01*
X150690476Y-105607200D02*
X150738095Y-105559580D01*
X150738095Y-105559580D02*
X150785714Y-105464342D01*
X150785714Y-105464342D02*
X150785714Y-105273866D01*
X150785714Y-105273866D02*
X150738095Y-105178628D01*
X150738095Y-105178628D02*
X150690476Y-105131009D01*
X150690476Y-105131009D02*
X150595238Y-105083390D01*
X142898944Y-100557231D02*
X143606051Y-99850125D01*
X143606051Y-99850125D02*
X143774410Y-100018483D01*
X143774410Y-100018483D02*
X143841753Y-100153170D01*
X143841753Y-100153170D02*
X143841753Y-100287857D01*
X143841753Y-100287857D02*
X143808081Y-100388873D01*
X143808081Y-100388873D02*
X143707066Y-100557231D01*
X143707066Y-100557231D02*
X143606051Y-100658247D01*
X143606051Y-100658247D02*
X143437692Y-100759262D01*
X143437692Y-100759262D02*
X143336677Y-100792934D01*
X143336677Y-100792934D02*
X143201990Y-100792934D01*
X143201990Y-100792934D02*
X143067303Y-100725590D01*
X143067303Y-100725590D02*
X142898944Y-100557231D01*
X143639723Y-101298010D02*
X143774410Y-101432697D01*
X143774410Y-101432697D02*
X143875425Y-101466369D01*
X143875425Y-101466369D02*
X143942768Y-101466369D01*
X143942768Y-101466369D02*
X144111127Y-101432697D01*
X144111127Y-101432697D02*
X144279486Y-101331682D01*
X144279486Y-101331682D02*
X144548860Y-101062308D01*
X144548860Y-101062308D02*
X144582532Y-100961292D01*
X144582532Y-100961292D02*
X144582532Y-100893949D01*
X144582532Y-100893949D02*
X144548860Y-100792934D01*
X144548860Y-100792934D02*
X144414173Y-100658247D01*
X144414173Y-100658247D02*
X144313158Y-100624575D01*
X144313158Y-100624575D02*
X144245814Y-100624575D01*
X144245814Y-100624575D02*
X144144799Y-100658247D01*
X144144799Y-100658247D02*
X143976440Y-100826605D01*
X143976440Y-100826605D02*
X143942768Y-100927621D01*
X143942768Y-100927621D02*
X143942768Y-100994964D01*
X143942768Y-100994964D02*
X143976440Y-101095979D01*
X143976440Y-101095979D02*
X144111127Y-101230666D01*
X144111127Y-101230666D02*
X144212142Y-101264338D01*
X144212142Y-101264338D02*
X144279486Y-101264338D01*
X144279486Y-101264338D02*
X144380501Y-101230666D01*
X132504819Y-86064285D02*
X131504819Y-86064285D01*
X131504819Y-86064285D02*
X131504819Y-85826190D01*
X131504819Y-85826190D02*
X131552438Y-85683333D01*
X131552438Y-85683333D02*
X131647676Y-85588095D01*
X131647676Y-85588095D02*
X131742914Y-85540476D01*
X131742914Y-85540476D02*
X131933390Y-85492857D01*
X131933390Y-85492857D02*
X132076247Y-85492857D01*
X132076247Y-85492857D02*
X132266723Y-85540476D01*
X132266723Y-85540476D02*
X132361961Y-85588095D01*
X132361961Y-85588095D02*
X132457200Y-85683333D01*
X132457200Y-85683333D02*
X132504819Y-85826190D01*
X132504819Y-85826190D02*
X132504819Y-86064285D01*
X132504819Y-84540476D02*
X132504819Y-85111904D01*
X132504819Y-84826190D02*
X131504819Y-84826190D01*
X131504819Y-84826190D02*
X131647676Y-84921428D01*
X131647676Y-84921428D02*
X131742914Y-85016666D01*
X131742914Y-85016666D02*
X131790533Y-85111904D01*
X132504819Y-83588095D02*
X132504819Y-84159523D01*
X132504819Y-83873809D02*
X131504819Y-83873809D01*
X131504819Y-83873809D02*
X131647676Y-83969047D01*
X131647676Y-83969047D02*
X131742914Y-84064285D01*
X131742914Y-84064285D02*
X131790533Y-84159523D01*
X164299693Y-93343517D02*
X163592587Y-92636410D01*
X163592587Y-92636410D02*
X163760945Y-92468051D01*
X163760945Y-92468051D02*
X163895632Y-92400708D01*
X163895632Y-92400708D02*
X164030319Y-92400708D01*
X164030319Y-92400708D02*
X164131335Y-92434380D01*
X164131335Y-92434380D02*
X164299693Y-92535395D01*
X164299693Y-92535395D02*
X164400709Y-92636410D01*
X164400709Y-92636410D02*
X164501724Y-92804769D01*
X164501724Y-92804769D02*
X164535396Y-92905784D01*
X164535396Y-92905784D02*
X164535396Y-93040471D01*
X164535396Y-93040471D02*
X164468052Y-93175158D01*
X164468052Y-93175158D02*
X164299693Y-93343517D01*
X164602739Y-91626258D02*
X164468052Y-91760945D01*
X164468052Y-91760945D02*
X164434380Y-91861960D01*
X164434380Y-91861960D02*
X164434380Y-91929303D01*
X164434380Y-91929303D02*
X164468052Y-92097662D01*
X164468052Y-92097662D02*
X164569067Y-92266021D01*
X164569067Y-92266021D02*
X164838441Y-92535395D01*
X164838441Y-92535395D02*
X164939457Y-92569067D01*
X164939457Y-92569067D02*
X165006800Y-92569067D01*
X165006800Y-92569067D02*
X165107815Y-92535395D01*
X165107815Y-92535395D02*
X165242502Y-92400708D01*
X165242502Y-92400708D02*
X165276174Y-92299693D01*
X165276174Y-92299693D02*
X165276174Y-92232349D01*
X165276174Y-92232349D02*
X165242502Y-92131334D01*
X165242502Y-92131334D02*
X165074144Y-91962975D01*
X165074144Y-91962975D02*
X164973128Y-91929303D01*
X164973128Y-91929303D02*
X164905785Y-91929303D01*
X164905785Y-91929303D02*
X164804770Y-91962975D01*
X164804770Y-91962975D02*
X164670083Y-92097662D01*
X164670083Y-92097662D02*
X164636411Y-92198677D01*
X164636411Y-92198677D02*
X164636411Y-92266021D01*
X164636411Y-92266021D02*
X164670083Y-92367036D01*
X135205437Y-78422697D02*
X134498331Y-77715590D01*
X134498331Y-77715590D02*
X134666689Y-77547231D01*
X134666689Y-77547231D02*
X134801376Y-77479888D01*
X134801376Y-77479888D02*
X134936063Y-77479888D01*
X134936063Y-77479888D02*
X135037079Y-77513560D01*
X135037079Y-77513560D02*
X135205437Y-77614575D01*
X135205437Y-77614575D02*
X135306453Y-77715590D01*
X135306453Y-77715590D02*
X135407468Y-77883949D01*
X135407468Y-77883949D02*
X135441140Y-77984964D01*
X135441140Y-77984964D02*
X135441140Y-78119651D01*
X135441140Y-78119651D02*
X135373796Y-78254338D01*
X135373796Y-78254338D02*
X135205437Y-78422697D01*
X136282933Y-77345201D02*
X135878872Y-77749262D01*
X136080903Y-77547231D02*
X135373796Y-76840125D01*
X135373796Y-76840125D02*
X135407468Y-77008483D01*
X135407468Y-77008483D02*
X135407468Y-77143170D01*
X135407468Y-77143170D02*
X135373796Y-77244186D01*
X135912544Y-76436063D02*
X135912544Y-76368720D01*
X135912544Y-76368720D02*
X135946216Y-76267705D01*
X135946216Y-76267705D02*
X136114575Y-76099346D01*
X136114575Y-76099346D02*
X136215590Y-76065674D01*
X136215590Y-76065674D02*
X136282934Y-76065674D01*
X136282934Y-76065674D02*
X136383949Y-76099346D01*
X136383949Y-76099346D02*
X136451292Y-76166689D01*
X136451292Y-76166689D02*
X136518636Y-76301376D01*
X136518636Y-76301376D02*
X136518636Y-77109498D01*
X136518636Y-77109498D02*
X136956369Y-76671766D01*
X148666667Y-86157200D02*
X148809524Y-86204819D01*
X148809524Y-86204819D02*
X149047619Y-86204819D01*
X149047619Y-86204819D02*
X149142857Y-86157200D01*
X149142857Y-86157200D02*
X149190476Y-86109580D01*
X149190476Y-86109580D02*
X149238095Y-86014342D01*
X149238095Y-86014342D02*
X149238095Y-85919104D01*
X149238095Y-85919104D02*
X149190476Y-85823866D01*
X149190476Y-85823866D02*
X149142857Y-85776247D01*
X149142857Y-85776247D02*
X149047619Y-85728628D01*
X149047619Y-85728628D02*
X148857143Y-85681009D01*
X148857143Y-85681009D02*
X148761905Y-85633390D01*
X148761905Y-85633390D02*
X148714286Y-85585771D01*
X148714286Y-85585771D02*
X148666667Y-85490533D01*
X148666667Y-85490533D02*
X148666667Y-85395295D01*
X148666667Y-85395295D02*
X148714286Y-85300057D01*
X148714286Y-85300057D02*
X148761905Y-85252438D01*
X148761905Y-85252438D02*
X148857143Y-85204819D01*
X148857143Y-85204819D02*
X149095238Y-85204819D01*
X149095238Y-85204819D02*
X149238095Y-85252438D01*
X149571429Y-85204819D02*
X149809524Y-86204819D01*
X149809524Y-86204819D02*
X150000000Y-85490533D01*
X150000000Y-85490533D02*
X150190476Y-86204819D01*
X150190476Y-86204819D02*
X150428572Y-85204819D01*
X151333333Y-86204819D02*
X150761905Y-86204819D01*
X151047619Y-86204819D02*
X151047619Y-85204819D01*
X151047619Y-85204819D02*
X150952381Y-85347676D01*
X150952381Y-85347676D02*
X150857143Y-85442914D01*
X150857143Y-85442914D02*
X150761905Y-85490533D01*
X142166666Y-84799819D02*
X142166666Y-85514104D01*
X142166666Y-85514104D02*
X142119047Y-85656961D01*
X142119047Y-85656961D02*
X142023809Y-85752200D01*
X142023809Y-85752200D02*
X141880952Y-85799819D01*
X141880952Y-85799819D02*
X141785714Y-85799819D01*
X142595238Y-84895057D02*
X142642857Y-84847438D01*
X142642857Y-84847438D02*
X142738095Y-84799819D01*
X142738095Y-84799819D02*
X142976190Y-84799819D01*
X142976190Y-84799819D02*
X143071428Y-84847438D01*
X143071428Y-84847438D02*
X143119047Y-84895057D01*
X143119047Y-84895057D02*
X143166666Y-84990295D01*
X143166666Y-84990295D02*
X143166666Y-85085533D01*
X143166666Y-85085533D02*
X143119047Y-85228390D01*
X143119047Y-85228390D02*
X142547619Y-85799819D01*
X142547619Y-85799819D02*
X143166666Y-85799819D01*
X155999694Y-101743517D02*
X155292588Y-101036410D01*
X155292588Y-101036410D02*
X155460946Y-100868051D01*
X155460946Y-100868051D02*
X155595633Y-100800708D01*
X155595633Y-100800708D02*
X155730320Y-100800708D01*
X155730320Y-100800708D02*
X155831336Y-100834380D01*
X155831336Y-100834380D02*
X155999694Y-100935395D01*
X155999694Y-100935395D02*
X156100710Y-101036410D01*
X156100710Y-101036410D02*
X156201725Y-101204769D01*
X156201725Y-101204769D02*
X156235397Y-101305784D01*
X156235397Y-101305784D02*
X156235397Y-101440471D01*
X156235397Y-101440471D02*
X156168053Y-101575158D01*
X156168053Y-101575158D02*
X155999694Y-101743517D01*
X155932351Y-100396647D02*
X156403755Y-99925242D01*
X156403755Y-99925242D02*
X156807816Y-100935395D01*
X151504819Y-82738094D02*
X150504819Y-82738094D01*
X150504819Y-82738094D02*
X150504819Y-82499999D01*
X150504819Y-82499999D02*
X150552438Y-82357142D01*
X150552438Y-82357142D02*
X150647676Y-82261904D01*
X150647676Y-82261904D02*
X150742914Y-82214285D01*
X150742914Y-82214285D02*
X150933390Y-82166666D01*
X150933390Y-82166666D02*
X151076247Y-82166666D01*
X151076247Y-82166666D02*
X151266723Y-82214285D01*
X151266723Y-82214285D02*
X151361961Y-82261904D01*
X151361961Y-82261904D02*
X151457200Y-82357142D01*
X151457200Y-82357142D02*
X151504819Y-82499999D01*
X151504819Y-82499999D02*
X151504819Y-82738094D01*
X151504819Y-81214285D02*
X151504819Y-81785713D01*
X151504819Y-81499999D02*
X150504819Y-81499999D01*
X150504819Y-81499999D02*
X150647676Y-81595237D01*
X150647676Y-81595237D02*
X150742914Y-81690475D01*
X150742914Y-81690475D02*
X150790533Y-81785713D01*
X155549693Y-78343517D02*
X154842587Y-77636410D01*
X154842587Y-77636410D02*
X155010945Y-77468051D01*
X155010945Y-77468051D02*
X155145632Y-77400708D01*
X155145632Y-77400708D02*
X155280319Y-77400708D01*
X155280319Y-77400708D02*
X155381335Y-77434380D01*
X155381335Y-77434380D02*
X155549693Y-77535395D01*
X155549693Y-77535395D02*
X155650709Y-77636410D01*
X155650709Y-77636410D02*
X155751724Y-77804769D01*
X155751724Y-77804769D02*
X155785396Y-77905784D01*
X155785396Y-77905784D02*
X155785396Y-78040471D01*
X155785396Y-78040471D02*
X155718052Y-78175158D01*
X155718052Y-78175158D02*
X155549693Y-78343517D01*
X155583365Y-77030319D02*
X155583365Y-76962975D01*
X155583365Y-76962975D02*
X155617037Y-76861960D01*
X155617037Y-76861960D02*
X155785396Y-76693601D01*
X155785396Y-76693601D02*
X155886411Y-76659929D01*
X155886411Y-76659929D02*
X155953754Y-76659929D01*
X155953754Y-76659929D02*
X156054770Y-76693601D01*
X156054770Y-76693601D02*
X156122113Y-76760945D01*
X156122113Y-76760945D02*
X156189457Y-76895632D01*
X156189457Y-76895632D02*
X156189457Y-77703754D01*
X156189457Y-77703754D02*
X156627189Y-77266021D01*
X143519763Y-77362975D02*
X144226870Y-76655869D01*
X144226870Y-76655869D02*
X144395229Y-76824227D01*
X144395229Y-76824227D02*
X144462572Y-76958914D01*
X144462572Y-76958914D02*
X144462572Y-77093601D01*
X144462572Y-77093601D02*
X144428900Y-77194617D01*
X144428900Y-77194617D02*
X144327885Y-77362975D01*
X144327885Y-77362975D02*
X144226870Y-77463991D01*
X144226870Y-77463991D02*
X144058511Y-77565006D01*
X144058511Y-77565006D02*
X143957496Y-77598678D01*
X143957496Y-77598678D02*
X143822809Y-77598678D01*
X143822809Y-77598678D02*
X143688122Y-77531334D01*
X143688122Y-77531334D02*
X143519763Y-77362975D01*
X144597259Y-78440471D02*
X144193198Y-78036410D01*
X144395229Y-78238441D02*
X145102335Y-77531334D01*
X145102335Y-77531334D02*
X144933977Y-77565006D01*
X144933977Y-77565006D02*
X144799290Y-77565006D01*
X144799290Y-77565006D02*
X144698274Y-77531334D01*
X145674755Y-78575159D02*
X145203351Y-79046563D01*
X145775771Y-78137426D02*
X145102336Y-78474143D01*
X145102336Y-78474143D02*
X145540068Y-78911876D01*
X159511905Y-73954819D02*
X159511905Y-72954819D01*
X159511905Y-72954819D02*
X159750000Y-72954819D01*
X159750000Y-72954819D02*
X159892857Y-73002438D01*
X159892857Y-73002438D02*
X159988095Y-73097676D01*
X159988095Y-73097676D02*
X160035714Y-73192914D01*
X160035714Y-73192914D02*
X160083333Y-73383390D01*
X160083333Y-73383390D02*
X160083333Y-73526247D01*
X160083333Y-73526247D02*
X160035714Y-73716723D01*
X160035714Y-73716723D02*
X159988095Y-73811961D01*
X159988095Y-73811961D02*
X159892857Y-73907200D01*
X159892857Y-73907200D02*
X159750000Y-73954819D01*
X159750000Y-73954819D02*
X159511905Y-73954819D01*
X160416667Y-72954819D02*
X161035714Y-72954819D01*
X161035714Y-72954819D02*
X160702381Y-73335771D01*
X160702381Y-73335771D02*
X160845238Y-73335771D01*
X160845238Y-73335771D02*
X160940476Y-73383390D01*
X160940476Y-73383390D02*
X160988095Y-73431009D01*
X160988095Y-73431009D02*
X161035714Y-73526247D01*
X161035714Y-73526247D02*
X161035714Y-73764342D01*
X161035714Y-73764342D02*
X160988095Y-73859580D01*
X160988095Y-73859580D02*
X160940476Y-73907200D01*
X160940476Y-73907200D02*
X160845238Y-73954819D01*
X160845238Y-73954819D02*
X160559524Y-73954819D01*
X160559524Y-73954819D02*
X160464286Y-73907200D01*
X160464286Y-73907200D02*
X160416667Y-73859580D01*
X138785714Y-74654819D02*
X138785714Y-73654819D01*
X138785714Y-73654819D02*
X139023809Y-73654819D01*
X139023809Y-73654819D02*
X139166666Y-73702438D01*
X139166666Y-73702438D02*
X139261904Y-73797676D01*
X139261904Y-73797676D02*
X139309523Y-73892914D01*
X139309523Y-73892914D02*
X139357142Y-74083390D01*
X139357142Y-74083390D02*
X139357142Y-74226247D01*
X139357142Y-74226247D02*
X139309523Y-74416723D01*
X139309523Y-74416723D02*
X139261904Y-74511961D01*
X139261904Y-74511961D02*
X139166666Y-74607200D01*
X139166666Y-74607200D02*
X139023809Y-74654819D01*
X139023809Y-74654819D02*
X138785714Y-74654819D01*
X140309523Y-74654819D02*
X139738095Y-74654819D01*
X140023809Y-74654819D02*
X140023809Y-73654819D01*
X140023809Y-73654819D02*
X139928571Y-73797676D01*
X139928571Y-73797676D02*
X139833333Y-73892914D01*
X139833333Y-73892914D02*
X139738095Y-73940533D01*
X140642857Y-73654819D02*
X141261904Y-73654819D01*
X141261904Y-73654819D02*
X140928571Y-74035771D01*
X140928571Y-74035771D02*
X141071428Y-74035771D01*
X141071428Y-74035771D02*
X141166666Y-74083390D01*
X141166666Y-74083390D02*
X141214285Y-74131009D01*
X141214285Y-74131009D02*
X141261904Y-74226247D01*
X141261904Y-74226247D02*
X141261904Y-74464342D01*
X141261904Y-74464342D02*
X141214285Y-74559580D01*
X141214285Y-74559580D02*
X141166666Y-74607200D01*
X141166666Y-74607200D02*
X141071428Y-74654819D01*
X141071428Y-74654819D02*
X140785714Y-74654819D01*
X140785714Y-74654819D02*
X140690476Y-74607200D01*
X140690476Y-74607200D02*
X140642857Y-74559580D01*
D11*
%TO.C,D4*%
X164441889Y-75891888D02*
G75*
G02*
X164341887Y-75891888I-50001J0D01*
G01*
X164341887Y-75891888D02*
G75*
G02*
X164441889Y-75891888I50001J0D01*
G01*
%TO.C,D5*%
X169050000Y-83985000D02*
G75*
G02*
X168950000Y-83985000I-50000J0D01*
G01*
X168950000Y-83985000D02*
G75*
G02*
X169050000Y-83985000I50000J0D01*
G01*
%TO.C,D10*%
X134441889Y-92891888D02*
G75*
G02*
X134341887Y-92891888I-50001J0D01*
G01*
X134341887Y-92891888D02*
G75*
G02*
X134441889Y-92891888I50001J0D01*
G01*
D12*
%TO.C,J1*%
X143890000Y-98610000D02*
X143890000Y-97500000D01*
X145000000Y-98610000D02*
X143890000Y-98610000D01*
X146000000Y-96390000D02*
X156110000Y-96390000D01*
X146000000Y-98610000D02*
X146000000Y-96390000D01*
X146000000Y-98610000D02*
X156110000Y-98610000D01*
X156110000Y-98610000D02*
X156110000Y-96390000D01*
D11*
%TO.C,D8*%
X150050000Y-108860000D02*
G75*
G02*
X149950000Y-108860000I-50000J0D01*
G01*
X149950000Y-108860000D02*
G75*
G02*
X150050000Y-108860000I50000J0D01*
G01*
%TO.C,D9*%
X142441889Y-100891888D02*
G75*
G02*
X142341887Y-100891888I-50001J0D01*
G01*
X142341887Y-100891888D02*
G75*
G02*
X142441889Y-100891888I50001J0D01*
G01*
%TO.C,D11*%
X131050000Y-83990000D02*
G75*
G02*
X130950000Y-83990000I-50000J0D01*
G01*
X130950000Y-83990000D02*
G75*
G02*
X131050000Y-83990000I50000J0D01*
G01*
%TO.C,D6*%
X165658113Y-92891888D02*
G75*
G02*
X165558111Y-92891888I-50001J0D01*
G01*
X165558111Y-92891888D02*
G75*
G02*
X165658113Y-92891888I50001J0D01*
G01*
%TO.C,D12*%
X135658113Y-75891888D02*
G75*
G02*
X135558111Y-75891888I-50001J0D01*
G01*
X135558111Y-75891888D02*
G75*
G02*
X135658113Y-75891888I50001J0D01*
G01*
%TO.C,LOGO1*%
X157100000Y-80400000D02*
X157100000Y-82400000D01*
X157100000Y-80400000D02*
X159100000Y-78400000D01*
X157100000Y-82400000D02*
X158100000Y-83400000D01*
X157100000Y-82400000D02*
X161100000Y-78400000D01*
X158100000Y-83400000D02*
X158100000Y-81400000D01*
X159100000Y-78400000D02*
X161100000Y-78400000D01*
X159100000Y-82400000D02*
X159100000Y-84400000D01*
X159100000Y-82400000D02*
X160100000Y-83400000D01*
X159100000Y-84400000D02*
X161100000Y-84400000D01*
X159100000Y-84400000D02*
X163100000Y-80400000D01*
X161100000Y-80400000D02*
X159100000Y-82400000D01*
X161100000Y-80400000D02*
X160100000Y-79400000D01*
X161100000Y-80400000D02*
X161100000Y-78400000D01*
X161100000Y-84400000D02*
X163100000Y-82400000D01*
X162100000Y-79400000D02*
X162100000Y-81400000D01*
X162100000Y-79400000D02*
X163100000Y-80400000D01*
X163100000Y-82400000D02*
X163100000Y-80400000D01*
X158100000Y-83400000D02*
X157100000Y-82400000D01*
X158100000Y-81400000D01*
X158100000Y-83400000D01*
G36*
X158100000Y-83400000D02*
G01*
X157100000Y-82400000D01*
X158100000Y-81400000D01*
X158100000Y-83400000D01*
G37*
X160100000Y-83400000D02*
X159100000Y-84400000D01*
X159100000Y-82400000D01*
X160100000Y-83400000D01*
G36*
X160100000Y-83400000D02*
G01*
X159100000Y-84400000D01*
X159100000Y-82400000D01*
X160100000Y-83400000D01*
G37*
X161100000Y-80400000D02*
X160100000Y-79400000D01*
X161100000Y-78400000D01*
X161100000Y-80400000D01*
G36*
X161100000Y-80400000D02*
G01*
X160100000Y-79400000D01*
X161100000Y-78400000D01*
X161100000Y-80400000D01*
G37*
X163100000Y-80400000D02*
X162100000Y-81400000D01*
X162100000Y-79400000D01*
X163100000Y-80400000D01*
G36*
X163100000Y-80400000D02*
G01*
X162100000Y-81400000D01*
X162100000Y-79400000D01*
X163100000Y-80400000D01*
G37*
D12*
%TO.C,SW1*%
X146500000Y-89250000D02*
X146500000Y-90750000D01*
X147750000Y-93250000D02*
X152250000Y-93250000D01*
X152250000Y-86750000D02*
X147750000Y-86750000D01*
X153500000Y-90750000D02*
X153500000Y-89250000D01*
%TO.C,J2*%
X141120000Y-86345000D02*
X142500000Y-86345000D01*
X141120000Y-87725000D02*
X141120000Y-86345000D01*
X141120000Y-88995000D02*
X141120000Y-91645000D01*
X141120000Y-88995000D02*
X143880000Y-88995000D01*
X141120000Y-91645000D02*
X143880000Y-91645000D01*
X143880000Y-88995000D02*
X143880000Y-91645000D01*
D11*
%TO.C,D7*%
X156441889Y-102108112D02*
G75*
G02*
X156341887Y-102108112I-50001J0D01*
G01*
X156341887Y-102108112D02*
G75*
G02*
X156441889Y-102108112I50001J0D01*
G01*
%TO.C,D1*%
X150050000Y-81140000D02*
G75*
G02*
X149950000Y-81140000I-50000J0D01*
G01*
X149950000Y-81140000D02*
G75*
G02*
X150050000Y-81140000I50000J0D01*
G01*
%TO.C,D2*%
X154441889Y-77108112D02*
G75*
G02*
X154341887Y-77108112I-50001J0D01*
G01*
X154341887Y-77108112D02*
G75*
G02*
X154441889Y-77108112I50001J0D01*
G01*
%TO.C,D14*%
X145658113Y-77108112D02*
G75*
G02*
X145558111Y-77108112I-50001J0D01*
G01*
X145558111Y-77108112D02*
G75*
G02*
X145658113Y-77108112I50001J0D01*
G01*
%TO.C,D3*%
X160050000Y-71140000D02*
G75*
G02*
X159950000Y-71140000I-50000J0D01*
G01*
X159950000Y-71140000D02*
G75*
G02*
X160050000Y-71140000I50000J0D01*
G01*
%TO.C,D13*%
X140050000Y-72860000D02*
G75*
G02*
X139950000Y-72860000I-50000J0D01*
G01*
X139950000Y-72860000D02*
G75*
G02*
X140050000Y-72860000I50000J0D01*
G01*
%TD*%
M02*
