%TF.GenerationSoftware,KiCad,Pcbnew,9.0.6*%
%TF.CreationDate,2026-01-31T16:43:30+03:00*%
%TF.ProjectId,st-valentine-postcard,73742d76-616c-4656-9e74-696e652d706f,rev?*%
%TF.SameCoordinates,Original*%
%TF.FileFunction,Copper,L1,Top*%
%TF.FilePolarity,Positive*%
%FSLAX46Y46*%
G04 Gerber Fmt 4.6, Leading zero omitted, Abs format (unit mm)*
G04 Created by KiCad (PCBNEW 9.0.6) date 2026-01-31 16:43:30*
%MOMM*%
%LPD*%
G01*
G04 APERTURE LIST*
G04 Aperture macros list*
%AMRoundRect*
0 Rectangle with rounded corners*
0 $1 Rounding radius*
0 $2 $3 $4 $5 $6 $7 $8 $9 X,Y pos of 4 corners*
0 Add a 4 corners polygon primitive as box body*
4,1,4,$2,$3,$4,$5,$6,$7,$8,$9,$2,$3,0*
0 Add four circle primitives for the rounded corners*
1,1,$1+$1,$2,$3*
1,1,$1+$1,$4,$5*
1,1,$1+$1,$6,$7*
1,1,$1+$1,$8,$9*
0 Add four rect primitives between the rounded corners*
20,1,$1+$1,$2,$3,$4,$5,0*
20,1,$1+$1,$4,$5,$6,$7,0*
20,1,$1+$1,$6,$7,$8,$9,0*
20,1,$1+$1,$8,$9,$2,$3,0*%
G04 Aperture macros list end*
%TA.AperFunction,SMDPad,CuDef*%
%ADD10RoundRect,0.100000X-0.162635X0.021213X0.021213X-0.162635X0.162635X-0.021213X-0.021213X0.162635X0*%
%TD*%
%TA.AperFunction,SMDPad,CuDef*%
%ADD11RoundRect,0.100000X-0.100000X0.130000X-0.100000X-0.130000X0.100000X-0.130000X0.100000X0.130000X0*%
%TD*%
%TA.AperFunction,ComponentPad*%
%ADD12R,1.350000X1.350000*%
%TD*%
%TA.AperFunction,ComponentPad*%
%ADD13C,1.350000*%
%TD*%
%TA.AperFunction,SMDPad,CuDef*%
%ADD14RoundRect,0.100000X0.100000X-0.130000X0.100000X0.130000X-0.100000X0.130000X-0.100000X-0.130000X0*%
%TD*%
%TA.AperFunction,SMDPad,CuDef*%
%ADD15RoundRect,0.100000X0.021213X0.162635X-0.162635X-0.021213X-0.021213X-0.162635X0.162635X0.021213X0*%
%TD*%
%TA.AperFunction,ComponentPad*%
%ADD16C,2.000000*%
%TD*%
%TA.AperFunction,ComponentPad*%
%ADD17R,1.700000X1.700000*%
%TD*%
%TA.AperFunction,ComponentPad*%
%ADD18C,1.700000*%
%TD*%
%TA.AperFunction,SMDPad,CuDef*%
%ADD19RoundRect,0.100000X-0.021213X-0.162635X0.162635X0.021213X0.021213X0.162635X-0.162635X-0.021213X0*%
%TD*%
%TA.AperFunction,SMDPad,CuDef*%
%ADD20RoundRect,0.100000X0.162635X-0.021213X-0.021213X0.162635X-0.162635X0.021213X0.021213X-0.162635X0*%
%TD*%
%TA.AperFunction,ComponentPad*%
%ADD21C,1.600000*%
%TD*%
%TA.AperFunction,ComponentPad*%
%ADD22C,2.500000*%
%TD*%
%TA.AperFunction,ViaPad*%
%ADD23C,0.600000*%
%TD*%
%TA.AperFunction,Conductor*%
%ADD24C,0.200000*%
%TD*%
G04 APERTURE END LIST*
D10*
%TO.P,D4,1,K*%
%TO.N,GND*%
X164773726Y-76273726D03*
%TO.P,D4,2,A*%
%TO.N,Net-(D4-A)*%
X165226274Y-76726274D03*
%TD*%
D11*
%TO.P,D5,1,K*%
%TO.N,GND*%
X169000000Y-84525000D03*
%TO.P,D5,2,A*%
%TO.N,Net-(D5-A)*%
X169000000Y-85165000D03*
%TD*%
D10*
%TO.P,D10,1,K*%
%TO.N,GND*%
X134773726Y-93273726D03*
%TO.P,D10,2,A*%
%TO.N,Net-(D10-A)*%
X135226274Y-93726274D03*
%TD*%
D12*
%TO.P,J1,1,Pin_1*%
%TO.N,+3V*%
X145000000Y-97500000D03*
D13*
%TO.P,J1,2,Pin_2*%
%TO.N,/LED11*%
X147000000Y-97500000D03*
%TO.P,J1,3,Pin_3*%
%TO.N,GND*%
X149000000Y-97500000D03*
%TO.P,J1,4,Pin_4*%
%TO.N,/LED10*%
X151000000Y-97500000D03*
%TO.P,J1,5,Pin_5*%
%TO.N,/LED0*%
X153000000Y-97500000D03*
%TO.P,J1,6,Pin_6*%
%TO.N,/LED2*%
X155000000Y-97500000D03*
%TD*%
D14*
%TO.P,D8,1,K*%
%TO.N,GND*%
X150000000Y-108320000D03*
%TO.P,D8,2,A*%
%TO.N,Net-(D8-A)*%
X150000000Y-107680000D03*
%TD*%
D10*
%TO.P,D9,1,K*%
%TO.N,GND*%
X142773726Y-101273726D03*
%TO.P,D9,2,A*%
%TO.N,Net-(D9-A)*%
X143226274Y-101726274D03*
%TD*%
D11*
%TO.P,D11,1,K*%
%TO.N,GND*%
X131000000Y-84530000D03*
%TO.P,D11,2,A*%
%TO.N,Net-(D11-A)*%
X131000000Y-85170000D03*
%TD*%
D15*
%TO.P,D6,1,K*%
%TO.N,GND*%
X165226274Y-93273726D03*
%TO.P,D6,2,A*%
%TO.N,Net-(D6-A)*%
X164773726Y-93726274D03*
%TD*%
%TO.P,D12,1,K*%
%TO.N,GND*%
X135226274Y-76273726D03*
%TO.P,D12,2,A*%
%TO.N,Net-(D12-A)*%
X134773726Y-76726274D03*
%TD*%
D16*
%TO.P,SW1,1,1*%
%TO.N,+3V*%
X146750000Y-87750000D03*
X153250000Y-87750000D03*
%TO.P,SW1,2,2*%
%TO.N,Net-(U1-PB1)*%
X146750000Y-92250000D03*
X153250000Y-92250000D03*
%TD*%
D17*
%TO.P,J2,1,Pin_1*%
%TO.N,GND*%
X142500000Y-87725000D03*
D18*
%TO.P,J2,2,Pin_2*%
%TO.N,Net-(BT1-+)*%
X142500000Y-90265000D03*
%TD*%
D19*
%TO.P,D7,1,K*%
%TO.N,GND*%
X156773726Y-101726274D03*
%TO.P,D7,2,A*%
%TO.N,Net-(D7-A)*%
X157226274Y-101273726D03*
%TD*%
D11*
%TO.P,D1,1,K*%
%TO.N,GND*%
X150000000Y-81680000D03*
%TO.P,D1,2,A*%
%TO.N,Net-(D1-A)*%
X150000000Y-82320000D03*
%TD*%
D19*
%TO.P,D2,1,K*%
%TO.N,GND*%
X154773726Y-76726274D03*
%TO.P,D2,2,A*%
%TO.N,Net-(D2-A)*%
X155226274Y-76273726D03*
%TD*%
D20*
%TO.P,D14,1,K*%
%TO.N,GND*%
X145226274Y-76726274D03*
%TO.P,D14,2,A*%
%TO.N,Net-(D14-A)*%
X144773726Y-76273726D03*
%TD*%
D11*
%TO.P,D3,1,K*%
%TO.N,GND*%
X160000000Y-71680000D03*
%TO.P,D3,2,A*%
%TO.N,Net-(D3-A)*%
X160000000Y-72320000D03*
%TD*%
D14*
%TO.P,D13,1,K*%
%TO.N,GND*%
X140000000Y-72320000D03*
%TO.P,D13,2,A*%
%TO.N,Net-(D13-A)*%
X140000000Y-71680000D03*
%TD*%
D21*
%TO.P,C2,1*%
%TO.N,+3V*%
X165250000Y-86500000D03*
%TO.P,C2,2*%
%TO.N,GND*%
X162750000Y-86500000D03*
%TD*%
%TO.P,C1,1*%
%TO.N,+3V*%
X138500000Y-84000000D03*
%TO.P,C1,2*%
%TO.N,GND*%
X136000000Y-84000000D03*
%TD*%
D22*
%TO.P,BT1,1,+*%
%TO.N,Net-(BT1-+)*%
X138000000Y-92000000D03*
%TO.P,BT1,2,-*%
%TO.N,GND*%
X158000000Y-92000000D03*
%TD*%
D21*
%TO.P,C3,1*%
%TO.N,+3V*%
X141250000Y-76750000D03*
%TO.P,C3,2*%
%TO.N,GND*%
X138750000Y-76750000D03*
%TD*%
D23*
%TO.N,GND*%
X161058400Y-74747300D03*
X158400000Y-72000000D03*
X132200000Y-81800000D03*
X158213900Y-83200000D03*
X161400000Y-83200000D03*
X160800000Y-94600000D03*
X142200000Y-94400000D03*
%TO.N,Net-(D1-A)*%
X147577300Y-81355300D03*
%TO.N,Net-(D2-A)*%
X157958800Y-74112500D03*
%TO.N,Net-(D3-A)*%
X161600000Y-73018300D03*
%TO.N,Net-(D4-A)*%
X165800000Y-77400000D03*
%TO.N,Net-(D5-A)*%
X168821700Y-85977900D03*
%TO.N,Net-(D6-A)*%
X163296800Y-93419500D03*
%TO.N,Net-(D7-A)*%
X158200000Y-100500000D03*
%TO.N,Net-(D8-A)*%
X149200000Y-107200000D03*
%TO.N,Net-(D9-A)*%
X144632100Y-102142500D03*
%TO.N,Net-(D10-A)*%
X136000000Y-94600000D03*
%TO.N,Net-(D11-A)*%
X131200000Y-86400000D03*
%TO.N,Net-(D12-A)*%
X134207300Y-79949200D03*
%TO.N,Net-(D13-A)*%
X139157100Y-72200000D03*
%TO.N,Net-(D14-A)*%
X143153800Y-76698300D03*
%TO.N,/LED0*%
X161157500Y-78799100D03*
X160453300Y-97120900D03*
X166495800Y-78781600D03*
%TO.N,/LED11*%
X150303000Y-83130300D03*
X135771500Y-82292500D03*
%TO.N,/LED2*%
X153470700Y-96283700D03*
X153011000Y-80645000D03*
X159135600Y-76231300D03*
X160368300Y-92485500D03*
%TO.N,/LED1*%
X148629700Y-85645000D03*
X160050800Y-85692200D03*
%TO.N,/LED5*%
X166495700Y-87752100D03*
X156504100Y-88294400D03*
%TO.N,/LED9*%
X151532700Y-95430500D03*
X149928100Y-98884500D03*
%TO.N,/LED12*%
X140628000Y-82730800D03*
X159688100Y-76956000D03*
%TO.N,/LED13*%
X145693300Y-83543600D03*
X161377800Y-76956000D03*
%TD*%
D24*
%TO.N,Net-(BT1-+)*%
X142500000Y-90265000D02*
X139735000Y-90265000D01*
X139735000Y-90265000D02*
X138000000Y-92000000D01*
%TO.N,GND*%
X135226274Y-76273726D02*
X136000000Y-77047452D01*
X156773726Y-101726274D02*
X156075000Y-101027548D01*
X151070000Y-81680000D02*
X151150000Y-81600000D01*
X169000000Y-84525000D02*
X164725000Y-84525000D01*
X150000000Y-108320000D02*
X150680000Y-108320000D01*
X159025800Y-75234100D02*
X159025800Y-75272700D01*
X164725000Y-84525000D02*
X162750000Y-86500000D01*
X139854600Y-77854600D02*
X138750000Y-76750000D01*
X164773700Y-76273700D02*
X163772700Y-75272700D01*
X154863700Y-76816300D02*
X155034600Y-76987200D01*
X163772700Y-75272700D02*
X159025800Y-75272700D01*
X139725000Y-87725000D02*
X142500000Y-87725000D01*
X165226300Y-93273700D02*
X163836400Y-91883800D01*
X156445200Y-76901000D02*
X157397500Y-76901000D01*
X150000000Y-81680000D02*
X149746200Y-81680000D01*
X135425000Y-92622452D02*
X135425000Y-92600000D01*
X159020000Y-71680000D02*
X159000000Y-71700000D01*
X136401500Y-93145900D02*
X136807300Y-93551700D01*
X159495400Y-74747300D02*
X161058400Y-74747300D01*
X145051700Y-93551700D02*
X149000000Y-97500000D01*
X156359000Y-76987200D02*
X156445200Y-76901000D01*
X131000000Y-84530000D02*
X132145000Y-84530000D01*
X151000000Y-108000000D02*
X150680000Y-108320000D01*
X145598200Y-77098200D02*
X145226300Y-76726300D01*
X145598200Y-77532000D02*
X145598200Y-77098200D01*
X145598200Y-77532000D02*
X145275600Y-77854600D01*
X158000000Y-92000000D02*
X155171200Y-94828800D01*
X154150000Y-76100000D02*
X154150000Y-76102548D01*
X159495400Y-74747300D02*
X159495400Y-75234100D01*
X142773726Y-101273726D02*
X143547452Y-100500000D01*
X132145000Y-84530000D02*
X132150000Y-84525000D01*
X158116200Y-91883800D02*
X158000000Y-92000000D01*
X136000000Y-84000000D02*
X139725000Y-87725000D01*
X160000000Y-71680000D02*
X159020000Y-71680000D01*
X136000000Y-77047452D02*
X136000000Y-77050000D01*
X159025800Y-75234100D02*
X159495400Y-75234100D01*
X157397500Y-76901000D02*
X159025800Y-75272700D01*
X136401500Y-91048500D02*
X139725000Y-87725000D01*
X150000000Y-108320000D02*
X149929500Y-108390500D01*
X154773700Y-76726300D02*
X154863700Y-76816300D01*
X141195000Y-72320000D02*
X141200000Y-72325000D01*
X149000000Y-97112400D02*
X149000000Y-97500000D01*
X160000000Y-71680000D02*
X159777200Y-71680000D01*
X140000000Y-72320000D02*
X141195000Y-72320000D01*
X138273700Y-76273700D02*
X138750000Y-76750000D01*
X134773726Y-93273726D02*
X135425000Y-92622452D01*
X154773726Y-76726274D02*
X154150000Y-76102548D01*
X143547452Y-100500000D02*
X143775000Y-100500000D01*
X156075000Y-101027548D02*
X156075000Y-101025000D01*
X150000000Y-81680000D02*
X151070000Y-81680000D01*
X155034600Y-76987200D02*
X156359000Y-76987200D01*
%TO.N,+3V*%
X165250000Y-86500000D02*
X164057300Y-87692700D01*
X164057300Y-87692700D02*
X153307300Y-87692700D01*
X146750000Y-87750000D02*
X143000000Y-84000000D01*
X153307300Y-87692700D02*
X153250000Y-87750000D01*
X143000000Y-84000000D02*
X138500000Y-84000000D01*
X146750000Y-87750000D02*
X153250000Y-87750000D01*
%TO.N,Net-(D1-A)*%
X148621200Y-81355300D02*
X147577300Y-81355300D01*
X149585900Y-82320000D02*
X148621200Y-81355300D01*
X150000000Y-82320000D02*
X149585900Y-82320000D01*
%TO.N,Net-(D2-A)*%
X155797600Y-76273700D02*
X157958800Y-74112500D01*
X155226300Y-76273700D02*
X155797600Y-76273700D01*
%TO.N,Net-(D3-A)*%
X161600000Y-73018300D02*
X160698300Y-73018300D01*
X160698300Y-73018300D02*
X160000000Y-72320000D01*
%TO.N,Net-(D4-A)*%
X165800000Y-77400000D02*
X165800000Y-77300000D01*
X165800000Y-77300000D02*
X165226274Y-76726274D01*
%TO.N,Net-(D5-A)*%
X169000000Y-85165000D02*
X168821700Y-85343300D01*
X168821700Y-85343300D02*
X168821700Y-85977900D01*
%TO.N,Net-(D6-A)*%
X163603600Y-93726300D02*
X163296800Y-93419500D01*
X164773700Y-93726300D02*
X163603600Y-93726300D01*
%TO.N,Net-(D7-A)*%
X158200000Y-100500000D02*
X158000000Y-100500000D01*
X158000000Y-100500000D02*
X157226274Y-101273726D01*
%TO.N,Net-(D8-A)*%
X149520000Y-107200000D02*
X150000000Y-107680000D01*
X149200000Y-107200000D02*
X149520000Y-107200000D01*
%TO.N,Net-(D9-A)*%
X143226300Y-101726300D02*
X144215900Y-101726300D01*
X144215900Y-101726300D02*
X144632100Y-102142500D01*
%TO.N,Net-(D10-A)*%
X136000000Y-94600000D02*
X136000000Y-94500000D01*
X136000000Y-94500000D02*
X135226274Y-93726274D01*
%TO.N,Net-(D11-A)*%
X131200000Y-86400000D02*
X131200000Y-86204200D01*
X131200000Y-86204200D02*
X131000000Y-86004200D01*
X131000000Y-86004200D02*
X131000000Y-85170000D01*
%TO.N,Net-(D12-A)*%
X134773700Y-76726300D02*
X134207300Y-77292700D01*
X134207300Y-77292700D02*
X134207300Y-79949200D01*
%TO.N,Net-(D13-A)*%
X139157100Y-72200000D02*
X139157100Y-71864200D01*
X139341300Y-71680000D02*
X140000000Y-71680000D01*
X139157100Y-71864200D02*
X139341300Y-71680000D01*
%TO.N,Net-(D14-A)*%
X143578400Y-76273700D02*
X143153800Y-76698300D01*
X144773700Y-76273700D02*
X143578400Y-76273700D01*
%TO.N,/LED0*%
X159093500Y-98480700D02*
X153980700Y-98480700D01*
X166478300Y-78799100D02*
X166495800Y-78781600D01*
X160453300Y-97120900D02*
X159093500Y-98480700D01*
X153980700Y-98480700D02*
X153000000Y-97500000D01*
X161157500Y-78799100D02*
X166478300Y-78799100D01*
%TO.N,/LED11*%
X150303000Y-83130300D02*
X150303000Y-83130200D01*
X149807300Y-83130200D02*
X148604500Y-81927400D01*
X147500300Y-82129100D02*
X135934900Y-82129100D01*
X150303000Y-83130200D02*
X149807300Y-83130200D01*
X147577500Y-82206200D02*
X147500300Y-82129100D01*
X135934900Y-82129100D02*
X135771500Y-82292500D01*
X148604500Y-81927400D02*
X147856300Y-81927400D01*
X147577500Y-82206200D02*
X147856300Y-81927400D01*
%TO.N,/LED2*%
X160014500Y-92485500D02*
X160368300Y-92485500D01*
X154721900Y-80645000D02*
X153011000Y-80645000D01*
X159135600Y-76231300D02*
X154721900Y-80645000D01*
X153470700Y-96283700D02*
X153783700Y-96283700D01*
X155000000Y-97500000D02*
X160014500Y-92485500D01*
X153783700Y-96283700D02*
X155000000Y-97500000D01*
%TO.N,/LED1*%
X148629700Y-85645000D02*
X160003600Y-85645000D01*
X160003600Y-85645000D02*
X160050800Y-85692200D01*
%TO.N,/LED5*%
X165953400Y-88294400D02*
X156504100Y-88294400D01*
X166495700Y-87752100D02*
X165953400Y-88294400D01*
%TO.N,/LED9*%
X151068700Y-98812600D02*
X151976700Y-97904600D01*
X150000000Y-98812600D02*
X151068700Y-98812600D01*
X149928100Y-98884500D02*
X150000000Y-98812600D01*
X151976700Y-95874500D02*
X151532700Y-95430500D01*
X151976700Y-97904600D02*
X151976700Y-95874500D01*
%TO.N,/LED12*%
X147622400Y-82729300D02*
X148022600Y-82329100D01*
X148438200Y-82329100D02*
X148022600Y-82329100D01*
X140629500Y-82729300D02*
X140628000Y-82730800D01*
X159688100Y-76956000D02*
X152890100Y-83754000D01*
X152890100Y-83754000D02*
X149863100Y-83754000D01*
X147622400Y-82729300D02*
X140629500Y-82729300D01*
X149863100Y-83754000D02*
X148438200Y-82329100D01*
%TO.N,/LED13*%
X161377800Y-76956000D02*
X154178000Y-84155800D01*
X154178000Y-84155800D02*
X146305500Y-84155800D01*
X146305500Y-84155800D02*
X145693300Y-83543600D01*
%TO.N,Net-(U1-PB1)*%
X146750000Y-92250000D02*
X153250000Y-92250000D01*
%TD*%
%TA.AperFunction,Conductor*%
%TO.N,GND*%
G36*
X140808363Y-70520185D02*
G01*
X140829005Y-70536819D01*
X148599500Y-78307314D01*
X148692686Y-78400500D01*
X148806814Y-78466392D01*
X148934107Y-78500500D01*
X148934108Y-78500500D01*
X148934109Y-78500500D01*
X151065890Y-78500500D01*
X151065892Y-78500500D01*
X151193186Y-78466392D01*
X151307314Y-78400500D01*
X152960327Y-76747487D01*
X154005914Y-76747487D01*
X154026535Y-76904117D01*
X154026536Y-76904121D01*
X154086990Y-77050071D01*
X154086993Y-77050077D01*
X154121764Y-77095390D01*
X154121765Y-77095390D01*
X154480630Y-76736527D01*
X154488575Y-76732188D01*
X154494001Y-76724941D01*
X154518760Y-76715706D01*
X154541953Y-76703042D01*
X154550982Y-76703687D01*
X154559465Y-76700524D01*
X154585285Y-76706140D01*
X154611645Y-76708026D01*
X154620698Y-76713844D01*
X154627738Y-76715376D01*
X154655992Y-76736527D01*
X154763471Y-76844006D01*
X154796956Y-76905329D01*
X154791972Y-76975021D01*
X154763471Y-77019368D01*
X154404608Y-77378232D01*
X154404608Y-77378233D01*
X154449927Y-77413008D01*
X154449928Y-77413009D01*
X154595878Y-77473463D01*
X154595882Y-77473464D01*
X154752513Y-77494085D01*
X154909143Y-77473464D01*
X155044528Y-77417386D01*
X155055097Y-77413008D01*
X155056217Y-77412149D01*
X155068636Y-77403759D01*
X155074999Y-77399998D01*
X155075000Y-77400000D01*
X156175000Y-76750000D01*
X156174998Y-76749999D01*
X156193095Y-76739306D01*
X156193214Y-76738474D01*
X156196540Y-76733674D01*
X156197257Y-76730382D01*
X156218401Y-76702136D01*
X156218408Y-76702127D01*
X156223196Y-76697339D01*
X156278120Y-76642416D01*
X156278121Y-76642413D01*
X157973462Y-74947072D01*
X158034783Y-74913589D01*
X158036950Y-74913138D01*
X158094885Y-74901613D01*
X158192297Y-74882237D01*
X158337979Y-74821894D01*
X158469089Y-74734289D01*
X158580589Y-74622789D01*
X158668194Y-74491679D01*
X158728537Y-74345997D01*
X158759300Y-74191342D01*
X158759300Y-74033658D01*
X158759300Y-74033655D01*
X158759299Y-74033653D01*
X158728538Y-73879010D01*
X158728538Y-73879008D01*
X158728537Y-73879003D01*
X158728535Y-73878998D01*
X158668197Y-73733327D01*
X158668190Y-73733314D01*
X158580589Y-73602210D01*
X158469092Y-73490713D01*
X158469088Y-73490710D01*
X158337985Y-73403109D01*
X158337972Y-73403102D01*
X158192301Y-73342764D01*
X158192289Y-73342761D01*
X158037645Y-73312000D01*
X158037642Y-73312000D01*
X157879958Y-73312000D01*
X157879955Y-73312000D01*
X157725310Y-73342761D01*
X157725298Y-73342764D01*
X157579627Y-73403102D01*
X157579614Y-73403109D01*
X157448511Y-73490710D01*
X157448507Y-73490713D01*
X157337013Y-73602207D01*
X157337011Y-73602210D01*
X157249409Y-73733314D01*
X157249402Y-73733327D01*
X157189064Y-73878998D01*
X157189061Y-73879008D01*
X157158161Y-74034350D01*
X157125776Y-74096261D01*
X157124225Y-74097839D01*
X155669146Y-75552917D01*
X155607823Y-75586402D01*
X155538131Y-75581418D01*
X155534013Y-75579797D01*
X155404252Y-75526049D01*
X155404250Y-75526048D01*
X155404249Y-75526048D01*
X155299741Y-75512288D01*
X155247488Y-75505409D01*
X155247486Y-75505409D01*
X155169106Y-75515728D01*
X155090725Y-75526048D01*
X155090724Y-75526048D01*
X155090721Y-75526049D01*
X154944647Y-75586554D01*
X154944644Y-75586555D01*
X154850705Y-75658638D01*
X154850696Y-75658646D01*
X154656596Y-75852747D01*
X154632441Y-75865936D01*
X154180909Y-76340044D01*
X154107085Y-76417559D01*
X154107084Y-76417561D01*
X154090187Y-76435303D01*
X154089579Y-76437174D01*
X154090103Y-76437391D01*
X154087349Y-76444038D01*
X154087169Y-76444594D01*
X154086993Y-76444898D01*
X154026535Y-76590855D01*
X154026535Y-76590856D01*
X154005914Y-76747487D01*
X152960327Y-76747487D01*
X157557175Y-72150639D01*
X159299500Y-72150639D01*
X159299500Y-72154451D01*
X159299500Y-72154452D01*
X159299500Y-72489363D01*
X159314953Y-72606753D01*
X159314956Y-72606762D01*
X159357839Y-72710292D01*
X159375464Y-72752841D01*
X159471718Y-72878282D01*
X159597159Y-72974536D01*
X159743238Y-73035044D01*
X159842660Y-73048133D01*
X159906555Y-73076398D01*
X159914155Y-73083390D01*
X160213439Y-73382674D01*
X160213449Y-73382685D01*
X160217779Y-73387015D01*
X160217780Y-73387016D01*
X160329584Y-73498820D01*
X160329586Y-73498821D01*
X160329590Y-73498824D01*
X160466509Y-73577873D01*
X160466516Y-73577877D01*
X160557332Y-73602211D01*
X160619242Y-73618800D01*
X160619243Y-73618800D01*
X161020234Y-73618800D01*
X161087273Y-73638485D01*
X161089125Y-73639698D01*
X161220814Y-73727690D01*
X161220827Y-73727697D01*
X161366498Y-73788035D01*
X161366503Y-73788037D01*
X161521153Y-73818799D01*
X161521156Y-73818800D01*
X161521158Y-73818800D01*
X161678844Y-73818800D01*
X161678845Y-73818799D01*
X161833497Y-73788037D01*
X161979179Y-73727694D01*
X162110289Y-73640089D01*
X162221789Y-73528589D01*
X162309394Y-73397479D01*
X162369737Y-73251797D01*
X162400500Y-73097142D01*
X162400500Y-72939458D01*
X162400500Y-72939455D01*
X162400499Y-72939453D01*
X162369738Y-72784810D01*
X162369737Y-72784803D01*
X162356497Y-72752839D01*
X162309397Y-72639127D01*
X162309390Y-72639114D01*
X162221789Y-72508011D01*
X162221786Y-72508007D01*
X162110292Y-72396513D01*
X162110288Y-72396510D01*
X161979185Y-72308909D01*
X161979172Y-72308902D01*
X161833501Y-72248564D01*
X161833489Y-72248561D01*
X161678845Y-72217800D01*
X161678842Y-72217800D01*
X161521158Y-72217800D01*
X161521155Y-72217800D01*
X161366510Y-72248561D01*
X161366498Y-72248564D01*
X161220827Y-72308902D01*
X161220814Y-72308909D01*
X161089125Y-72396902D01*
X161071078Y-72402552D01*
X161055169Y-72412777D01*
X161024207Y-72417228D01*
X161022447Y-72417780D01*
X161020234Y-72417800D01*
X160998397Y-72417800D01*
X160931358Y-72398115D01*
X160910716Y-72381481D01*
X160733390Y-72204155D01*
X160699905Y-72142832D01*
X160698132Y-72132657D01*
X160685046Y-72033249D01*
X160685044Y-72033244D01*
X160685044Y-72033238D01*
X160685041Y-72033231D01*
X160684477Y-72031125D01*
X160684303Y-72027608D01*
X160683984Y-72025179D01*
X160684182Y-72025152D01*
X160683957Y-72020579D01*
X160681174Y-72014136D01*
X160682621Y-71993449D01*
X160681902Y-71978849D01*
X160687413Y-71945426D01*
X160700000Y-71919303D01*
X160700000Y-71418324D01*
X160686563Y-71398214D01*
X160624100Y-71247413D01*
X160527924Y-71122075D01*
X160402586Y-71025899D01*
X160256631Y-70965444D01*
X160200000Y-70957987D01*
X160200000Y-71465500D01*
X160197449Y-71474185D01*
X160198738Y-71483147D01*
X160187759Y-71507187D01*
X160180315Y-71532539D01*
X160173474Y-71538466D01*
X160169713Y-71546703D01*
X160147478Y-71560992D01*
X160127511Y-71578294D01*
X160116996Y-71580581D01*
X160110935Y-71584477D01*
X160076000Y-71589500D01*
X159924000Y-71589500D01*
X159856961Y-71569815D01*
X159811206Y-71517011D01*
X159800000Y-71465500D01*
X159800000Y-70957987D01*
X159743368Y-70965444D01*
X159597413Y-71025899D01*
X159472075Y-71122075D01*
X159375899Y-71247413D01*
X159315445Y-71393365D01*
X159315444Y-71393369D01*
X159310903Y-71427860D01*
X159300000Y-71452505D01*
X159300000Y-71966909D01*
X159313145Y-71990983D01*
X159313331Y-71995450D01*
X159314419Y-71997735D01*
X159314983Y-72033025D01*
X159314950Y-72033276D01*
X159299500Y-72150639D01*
X157557175Y-72150639D01*
X159170995Y-70536819D01*
X159232318Y-70503334D01*
X159258676Y-70500500D01*
X160741324Y-70500500D01*
X160808363Y-70520185D01*
X160829005Y-70536819D01*
X169463181Y-79170995D01*
X169496666Y-79232318D01*
X169499500Y-79258676D01*
X169499500Y-83725464D01*
X169479815Y-83792503D01*
X169427011Y-83838258D01*
X169357853Y-83848202D01*
X169328048Y-83840025D01*
X169256631Y-83810444D01*
X169200000Y-83802987D01*
X169200000Y-84310500D01*
X169197449Y-84319185D01*
X169198738Y-84328147D01*
X169187759Y-84352187D01*
X169180315Y-84377539D01*
X169173474Y-84383466D01*
X169169713Y-84391703D01*
X169147478Y-84405992D01*
X169127511Y-84423294D01*
X169116996Y-84425581D01*
X169110935Y-84429477D01*
X169076000Y-84434500D01*
X168924000Y-84434500D01*
X168856961Y-84414815D01*
X168811206Y-84362011D01*
X168800000Y-84310500D01*
X168800000Y-83802987D01*
X168743368Y-83810444D01*
X168597413Y-83870899D01*
X168472075Y-83967075D01*
X168375899Y-84092413D01*
X168315445Y-84238365D01*
X168315444Y-84238369D01*
X168304038Y-84325000D01*
X168473568Y-84325000D01*
X168495146Y-84331336D01*
X168517570Y-84333070D01*
X168528023Y-84340990D01*
X168540607Y-84344685D01*
X168555334Y-84361681D01*
X168573261Y-84375263D01*
X168577773Y-84387577D01*
X168586362Y-84397489D01*
X168589562Y-84419748D01*
X168597301Y-84440866D01*
X168594439Y-84453665D01*
X168596306Y-84466647D01*
X168586962Y-84487105D01*
X168582056Y-84509053D01*
X168571162Y-84521702D01*
X168567281Y-84530203D01*
X168560743Y-84537185D01*
X168555219Y-84542645D01*
X168471718Y-84606718D01*
X168413016Y-84683219D01*
X168406982Y-84689185D01*
X168383392Y-84701889D01*
X168361755Y-84717689D01*
X168350375Y-84719672D01*
X168345467Y-84722316D01*
X168338359Y-84721766D01*
X168319807Y-84725000D01*
X168304041Y-84725000D01*
X168304039Y-84725001D01*
X168315442Y-84811628D01*
X168315525Y-84811935D01*
X168315574Y-84812629D01*
X168316504Y-84819689D01*
X168316083Y-84819744D01*
X168318874Y-84858731D01*
X168317187Y-84872850D01*
X168314956Y-84878238D01*
X168299500Y-84995639D01*
X168299500Y-85020931D01*
X168298625Y-85028257D01*
X168290429Y-85047400D01*
X168282887Y-85075550D01*
X168262124Y-85111511D01*
X168262123Y-85111515D01*
X168221199Y-85264243D01*
X168221199Y-85264245D01*
X168221199Y-85398135D01*
X168201514Y-85465174D01*
X168200301Y-85467026D01*
X168112309Y-85598714D01*
X168112302Y-85598727D01*
X168051964Y-85744398D01*
X168051961Y-85744410D01*
X168021200Y-85899053D01*
X168021200Y-86056746D01*
X168051961Y-86211389D01*
X168051964Y-86211401D01*
X168112302Y-86357072D01*
X168112309Y-86357085D01*
X168199910Y-86488188D01*
X168199913Y-86488192D01*
X168311407Y-86599686D01*
X168311411Y-86599689D01*
X168442514Y-86687290D01*
X168442527Y-86687297D01*
X168588198Y-86747635D01*
X168588203Y-86747637D01*
X168742853Y-86778399D01*
X168742856Y-86778400D01*
X168742858Y-86778400D01*
X168900544Y-86778400D01*
X168900545Y-86778399D01*
X169055197Y-86747637D01*
X169200879Y-86687294D01*
X169306610Y-86616646D01*
X169373286Y-86595769D01*
X169440666Y-86614253D01*
X169487357Y-86666232D01*
X169499500Y-86719749D01*
X169499500Y-89741323D01*
X169479815Y-89808362D01*
X169463181Y-89829004D01*
X166169956Y-93122228D01*
X166108633Y-93155713D01*
X166038941Y-93150729D01*
X165983008Y-93108857D01*
X165967714Y-93081999D01*
X165913009Y-92949928D01*
X165913008Y-92949927D01*
X165878233Y-92904608D01*
X165878232Y-92904608D01*
X165519368Y-93263472D01*
X165511422Y-93267810D01*
X165505997Y-93275058D01*
X165481238Y-93284292D01*
X165458045Y-93296957D01*
X165449014Y-93296311D01*
X165440532Y-93299475D01*
X165414711Y-93293858D01*
X165388353Y-93291973D01*
X165379298Y-93286154D01*
X165372260Y-93284623D01*
X165344011Y-93263476D01*
X165264562Y-93184028D01*
X165236526Y-93155992D01*
X165203042Y-93094669D01*
X165208026Y-93024977D01*
X165236527Y-92980630D01*
X165595390Y-92621765D01*
X165595390Y-92621764D01*
X165550077Y-92586993D01*
X165550071Y-92586990D01*
X165404121Y-92526536D01*
X165404117Y-92526535D01*
X165247487Y-92505914D01*
X165090856Y-92526535D01*
X165090855Y-92526535D01*
X164944898Y-92586993D01*
X164875576Y-92640184D01*
X164875576Y-92640185D01*
X164995452Y-92760061D01*
X165006229Y-92779798D01*
X165020860Y-92796881D01*
X165022651Y-92809873D01*
X165028937Y-92821384D01*
X165027332Y-92843817D01*
X165030405Y-92866096D01*
X165024888Y-92877993D01*
X165023953Y-92891076D01*
X165010473Y-92909082D01*
X165001014Y-92929483D01*
X164989941Y-92936509D01*
X164982081Y-92947009D01*
X164961008Y-92954868D01*
X164942020Y-92966918D01*
X164925373Y-92968160D01*
X164916617Y-92971426D01*
X164907056Y-92971740D01*
X164899286Y-92971695D01*
X164794939Y-92957957D01*
X164699343Y-92970542D01*
X164690848Y-92970494D01*
X164665184Y-92962797D01*
X164638712Y-92958669D01*
X164629262Y-92952024D01*
X164623923Y-92950423D01*
X164619286Y-92945008D01*
X164603882Y-92934177D01*
X164592734Y-92923029D01*
X164539534Y-92992360D01*
X164539377Y-92992633D01*
X164538994Y-92993063D01*
X164534594Y-92998799D01*
X164534185Y-92998485D01*
X164533325Y-92999454D01*
X164531308Y-93004872D01*
X164518155Y-93016553D01*
X164506365Y-93029843D01*
X164496371Y-93037333D01*
X164492098Y-93039103D01*
X164411928Y-93100619D01*
X164411386Y-93101026D01*
X164379276Y-93113022D01*
X164347337Y-93125370D01*
X164346087Y-93125422D01*
X164345935Y-93125479D01*
X164345739Y-93125436D01*
X164337020Y-93125800D01*
X164124454Y-93125800D01*
X164057415Y-93106115D01*
X164011660Y-93053311D01*
X164009912Y-93049297D01*
X164006194Y-93040321D01*
X164004646Y-93038005D01*
X163918589Y-92909211D01*
X163918586Y-92909207D01*
X163807092Y-92797713D01*
X163807088Y-92797710D01*
X163675985Y-92710109D01*
X163675972Y-92710102D01*
X163530301Y-92649764D01*
X163530289Y-92649761D01*
X163375645Y-92619000D01*
X163375642Y-92619000D01*
X163217958Y-92619000D01*
X163217955Y-92619000D01*
X163063310Y-92649761D01*
X163063298Y-92649764D01*
X162917627Y-92710102D01*
X162917614Y-92710109D01*
X162786511Y-92797710D01*
X162786507Y-92797713D01*
X162675013Y-92909207D01*
X162675010Y-92909211D01*
X162587409Y-93040314D01*
X162587402Y-93040327D01*
X162527064Y-93185998D01*
X162527061Y-93186010D01*
X162496300Y-93340653D01*
X162496300Y-93498346D01*
X162527061Y-93652989D01*
X162527064Y-93653001D01*
X162587402Y-93798672D01*
X162587409Y-93798685D01*
X162675010Y-93929788D01*
X162675013Y-93929792D01*
X162786507Y-94041286D01*
X162786511Y-94041289D01*
X162917614Y-94128890D01*
X162917627Y-94128897D01*
X163063298Y-94189235D01*
X163063303Y-94189237D01*
X163217953Y-94219999D01*
X163217956Y-94220000D01*
X163217958Y-94220000D01*
X163224488Y-94220000D01*
X163286487Y-94236612D01*
X163371816Y-94285877D01*
X163524543Y-94326801D01*
X163524545Y-94326801D01*
X163690254Y-94326801D01*
X163690270Y-94326800D01*
X164294664Y-94326800D01*
X164361703Y-94346485D01*
X164370152Y-94352426D01*
X164449666Y-94413441D01*
X164449667Y-94413442D01*
X164449669Y-94413442D01*
X164449672Y-94413445D01*
X164581621Y-94468099D01*
X164636020Y-94511937D01*
X164658086Y-94578231D01*
X164640807Y-94645930D01*
X164621846Y-94670339D01*
X159117347Y-100174838D01*
X159056024Y-100208323D01*
X158986332Y-100203339D01*
X158930399Y-100161467D01*
X158915106Y-100134611D01*
X158909394Y-100120821D01*
X158909391Y-100120816D01*
X158909390Y-100120814D01*
X158821789Y-99989711D01*
X158821786Y-99989707D01*
X158710292Y-99878213D01*
X158710288Y-99878210D01*
X158579185Y-99790609D01*
X158579172Y-99790602D01*
X158433501Y-99730264D01*
X158433489Y-99730261D01*
X158278845Y-99699500D01*
X158278842Y-99699500D01*
X158121158Y-99699500D01*
X158121155Y-99699500D01*
X157966510Y-99730261D01*
X157966498Y-99730264D01*
X157820827Y-99790602D01*
X157820814Y-99790609D01*
X157689711Y-99878210D01*
X157689707Y-99878213D01*
X157578213Y-99989707D01*
X157578207Y-99989715D01*
X157490607Y-100120817D01*
X157472227Y-100165189D01*
X157445348Y-100205414D01*
X157159633Y-100491130D01*
X157098310Y-100524615D01*
X157091902Y-100525732D01*
X157090725Y-100526047D01*
X156944647Y-100586554D01*
X156944644Y-100586555D01*
X156850705Y-100658638D01*
X156850697Y-100658645D01*
X156611196Y-100898147D01*
X156611193Y-100898151D01*
X156539097Y-100992105D01*
X156538605Y-100992958D01*
X156517471Y-101020036D01*
X156515660Y-101021789D01*
X156498756Y-101034544D01*
X156498796Y-101034596D01*
X156411394Y-101101659D01*
X156400823Y-101130525D01*
X156387331Y-101145928D01*
X156183342Y-101343257D01*
X156152616Y-101359378D01*
X156086991Y-101444902D01*
X156026535Y-101590855D01*
X156026535Y-101590856D01*
X156005914Y-101747487D01*
X156026535Y-101904117D01*
X156026536Y-101904121D01*
X156086990Y-102050071D01*
X156086993Y-102050077D01*
X156121764Y-102095390D01*
X156121765Y-102095390D01*
X156425644Y-101791512D01*
X156454402Y-101770087D01*
X156489382Y-101751195D01*
X156494345Y-101755655D01*
X156509867Y-101740132D01*
X156525809Y-101731523D01*
X156542972Y-101727872D01*
X156558372Y-101719463D01*
X156576435Y-101720754D01*
X156594149Y-101716987D01*
X156610562Y-101723195D01*
X156628064Y-101724447D01*
X156648369Y-101737495D01*
X156659500Y-101741706D01*
X156663667Y-101747326D01*
X156672413Y-101752947D01*
X156763472Y-101844005D01*
X156796957Y-101905328D01*
X156791973Y-101975020D01*
X156763472Y-102019368D01*
X156404608Y-102378232D01*
X156404608Y-102378233D01*
X156449927Y-102413008D01*
X156449928Y-102413009D01*
X156581998Y-102467714D01*
X156636402Y-102511555D01*
X156658467Y-102577849D01*
X156641188Y-102645548D01*
X156622227Y-102669956D01*
X150808503Y-108483681D01*
X150747180Y-108517166D01*
X150720822Y-108520000D01*
X150526432Y-108520000D01*
X150504853Y-108513663D01*
X150482430Y-108511930D01*
X150471976Y-108504009D01*
X150459393Y-108500315D01*
X150444665Y-108483318D01*
X150426739Y-108469737D01*
X150422226Y-108457422D01*
X150413638Y-108447511D01*
X150410437Y-108425251D01*
X150402699Y-108404134D01*
X150405560Y-108391334D01*
X150403694Y-108378353D01*
X150413037Y-108357894D01*
X150417944Y-108335947D01*
X150428837Y-108323297D01*
X150432719Y-108314797D01*
X150439257Y-108307815D01*
X150444780Y-108302354D01*
X150528282Y-108238282D01*
X150586983Y-108161780D01*
X150593018Y-108155815D01*
X150616607Y-108143110D01*
X150638245Y-108127311D01*
X150649624Y-108125327D01*
X150654533Y-108122684D01*
X150661640Y-108123233D01*
X150680193Y-108120000D01*
X150695959Y-108120000D01*
X150695960Y-108119998D01*
X150684557Y-108033375D01*
X150684478Y-108033078D01*
X150684477Y-108032769D01*
X150683496Y-108025310D01*
X150684477Y-108025180D01*
X150684477Y-107974885D01*
X150683983Y-107974820D01*
X150684477Y-107971067D01*
X150684477Y-107968875D01*
X150685040Y-107966771D01*
X150685044Y-107966762D01*
X150700500Y-107849361D01*
X150700499Y-107510640D01*
X150700499Y-107510636D01*
X150685046Y-107393246D01*
X150685044Y-107393241D01*
X150685044Y-107393238D01*
X150624536Y-107247159D01*
X150528282Y-107121718D01*
X150402841Y-107025464D01*
X150256762Y-106964956D01*
X150243120Y-106963160D01*
X150157339Y-106951866D01*
X150093442Y-106923599D01*
X150085844Y-106916608D01*
X149888717Y-106719481D01*
X149888716Y-106719480D01*
X149814938Y-106676885D01*
X149789259Y-106657181D01*
X149710289Y-106578211D01*
X149710288Y-106578210D01*
X149710287Y-106578209D01*
X149579185Y-106490609D01*
X149579172Y-106490602D01*
X149433501Y-106430264D01*
X149433489Y-106430261D01*
X149278845Y-106399500D01*
X149278842Y-106399500D01*
X149121158Y-106399500D01*
X149121155Y-106399500D01*
X148966510Y-106430261D01*
X148966498Y-106430264D01*
X148820827Y-106490602D01*
X148820814Y-106490609D01*
X148689711Y-106578210D01*
X148689707Y-106578213D01*
X148578213Y-106689707D01*
X148578210Y-106689711D01*
X148490609Y-106820814D01*
X148490602Y-106820827D01*
X148430264Y-106966498D01*
X148430261Y-106966510D01*
X148399500Y-107121153D01*
X148399500Y-107278846D01*
X148422262Y-107393279D01*
X148416035Y-107462871D01*
X148373172Y-107518048D01*
X148307282Y-107541292D01*
X148239285Y-107525224D01*
X148212964Y-107505151D01*
X144391587Y-103683774D01*
X144358102Y-103622451D01*
X144363086Y-103552759D01*
X144391587Y-103508412D01*
X145113630Y-102786368D01*
X145132413Y-102770954D01*
X145142389Y-102764289D01*
X145253889Y-102652789D01*
X145341494Y-102521679D01*
X145345688Y-102511555D01*
X145386506Y-102413009D01*
X145401837Y-102375997D01*
X145432600Y-102221342D01*
X145432600Y-102063658D01*
X145432600Y-102063655D01*
X145432599Y-102063653D01*
X145423790Y-102019368D01*
X145401837Y-101909003D01*
X145399813Y-101904117D01*
X145341497Y-101763327D01*
X145341490Y-101763314D01*
X145253889Y-101632211D01*
X145253886Y-101632207D01*
X145142392Y-101520713D01*
X145142388Y-101520710D01*
X145011285Y-101433109D01*
X145011272Y-101433102D01*
X144865601Y-101372764D01*
X144865591Y-101372761D01*
X144710251Y-101341862D01*
X144699208Y-101336914D01*
X144690712Y-101336278D01*
X144674631Y-101325904D01*
X144659793Y-101319257D01*
X144652883Y-101314047D01*
X144584616Y-101245780D01*
X144496088Y-101194669D01*
X144447685Y-101166723D01*
X144447684Y-101166722D01*
X144447683Y-101166722D01*
X144370078Y-101145928D01*
X144294957Y-101125799D01*
X144136843Y-101125799D01*
X144129247Y-101125799D01*
X144129231Y-101125800D01*
X143662978Y-101125800D01*
X143641701Y-101119552D01*
X143619580Y-101117958D01*
X143600767Y-101107532D01*
X143595939Y-101106115D01*
X143588612Y-101101026D01*
X143588059Y-101100612D01*
X143507902Y-101039103D01*
X143503624Y-101037331D01*
X143493633Y-101029843D01*
X143481160Y-101013162D01*
X143466194Y-100998194D01*
X143465407Y-100998799D01*
X143460816Y-100992816D01*
X143460606Y-100992606D01*
X143460457Y-100992348D01*
X143394954Y-100906982D01*
X143380015Y-100901511D01*
X143364153Y-100887542D01*
X143109250Y-100621194D01*
X143095799Y-100617465D01*
X143085765Y-100610522D01*
X143055101Y-100586993D01*
X143055098Y-100586991D01*
X142909143Y-100526535D01*
X142752513Y-100505914D01*
X142595882Y-100526535D01*
X142595878Y-100526536D01*
X142449925Y-100586991D01*
X142404608Y-100621764D01*
X142404608Y-100621765D01*
X142763472Y-100980631D01*
X142767809Y-100988575D01*
X142775058Y-100994001D01*
X142784294Y-101018763D01*
X142796957Y-101041954D01*
X142796311Y-101050982D01*
X142799475Y-101059465D01*
X142793858Y-101085284D01*
X142791973Y-101111646D01*
X142786153Y-101120700D01*
X142784623Y-101127738D01*
X142763474Y-101155990D01*
X142655994Y-101263473D01*
X142594671Y-101296958D01*
X142524979Y-101291974D01*
X142480631Y-101263473D01*
X142121765Y-100904608D01*
X142121764Y-100904608D01*
X142086992Y-100949924D01*
X142032284Y-101082001D01*
X141988443Y-101136404D01*
X141922148Y-101158469D01*
X141854449Y-101141190D01*
X141830042Y-101122229D01*
X137569301Y-96861487D01*
X137484949Y-96777135D01*
X143824500Y-96777135D01*
X143824500Y-98222870D01*
X143824501Y-98222876D01*
X143830908Y-98282483D01*
X143881202Y-98417328D01*
X143881206Y-98417335D01*
X143967452Y-98532544D01*
X143967455Y-98532547D01*
X144082664Y-98618793D01*
X144082671Y-98618797D01*
X144217517Y-98669091D01*
X144217516Y-98669091D01*
X144224444Y-98669835D01*
X144277127Y-98675500D01*
X145722872Y-98675499D01*
X145782483Y-98669091D01*
X145917331Y-98618796D01*
X146032546Y-98532546D01*
X146096241Y-98447459D01*
X146152174Y-98405590D01*
X146221866Y-98400606D01*
X146268392Y-98421453D01*
X146383904Y-98505378D01*
X146437224Y-98532546D01*
X146548764Y-98589379D01*
X146548767Y-98589380D01*
X146636750Y-98617967D01*
X146724736Y-98646555D01*
X146907486Y-98675500D01*
X146907487Y-98675500D01*
X147092513Y-98675500D01*
X147092514Y-98675500D01*
X147275264Y-98646555D01*
X147451235Y-98589379D01*
X147616096Y-98505378D01*
X147765787Y-98396621D01*
X147896621Y-98265787D01*
X147954112Y-98186656D01*
X147957774Y-98182466D01*
X147974867Y-98171579D01*
X148600000Y-97546446D01*
X148600000Y-97552661D01*
X148627259Y-97654394D01*
X148679920Y-97745606D01*
X148754394Y-97820080D01*
X148845606Y-97872741D01*
X148947339Y-97900000D01*
X148953553Y-97900000D01*
X148363568Y-98489983D01*
X148363568Y-98489984D01*
X148384165Y-98504949D01*
X148548956Y-98588915D01*
X148548959Y-98588916D01*
X148724852Y-98646066D01*
X148907527Y-98675000D01*
X149003656Y-98675000D01*
X149070695Y-98694685D01*
X149116450Y-98747489D01*
X149125116Y-98799566D01*
X149127600Y-98799566D01*
X149127600Y-98963346D01*
X149158361Y-99117989D01*
X149158364Y-99118001D01*
X149218702Y-99263672D01*
X149218709Y-99263685D01*
X149306310Y-99394788D01*
X149306313Y-99394792D01*
X149417807Y-99506286D01*
X149417811Y-99506289D01*
X149548914Y-99593890D01*
X149548927Y-99593897D01*
X149694598Y-99654235D01*
X149694603Y-99654237D01*
X149849253Y-99684999D01*
X149849256Y-99685000D01*
X149849258Y-99685000D01*
X150006944Y-99685000D01*
X150006945Y-99684999D01*
X150161597Y-99654237D01*
X150307279Y-99593894D01*
X150438389Y-99506289D01*
X150495260Y-99449417D01*
X150556581Y-99415934D01*
X150582940Y-99413100D01*
X150982031Y-99413100D01*
X150982047Y-99413101D01*
X150989643Y-99413101D01*
X151147754Y-99413101D01*
X151147757Y-99413101D01*
X151300485Y-99372177D01*
X151350604Y-99343239D01*
X151437416Y-99293120D01*
X151549220Y-99181316D01*
X151549220Y-99181314D01*
X151559428Y-99171107D01*
X151559430Y-99171104D01*
X152217073Y-98513460D01*
X152278394Y-98479977D01*
X152348086Y-98484961D01*
X152377631Y-98500820D01*
X152383904Y-98505378D01*
X152470715Y-98549610D01*
X152548764Y-98589379D01*
X152548767Y-98589380D01*
X152636750Y-98617967D01*
X152724736Y-98646555D01*
X152907486Y-98675500D01*
X152907487Y-98675500D01*
X153092513Y-98675500D01*
X153092514Y-98675500D01*
X153231901Y-98653423D01*
X153237326Y-98654124D01*
X153242453Y-98652212D01*
X153271609Y-98658554D01*
X153301194Y-98662378D01*
X153306797Y-98666209D01*
X153310726Y-98667064D01*
X153338980Y-98688215D01*
X153495839Y-98845074D01*
X153495849Y-98845085D01*
X153500179Y-98849415D01*
X153500180Y-98849416D01*
X153611984Y-98961220D01*
X153698795Y-99011339D01*
X153698797Y-99011341D01*
X153748913Y-99040276D01*
X153748915Y-99040277D01*
X153901642Y-99081200D01*
X153901643Y-99081200D01*
X159006831Y-99081200D01*
X159006847Y-99081201D01*
X159014443Y-99081201D01*
X159172554Y-99081201D01*
X159172557Y-99081201D01*
X159325285Y-99040277D01*
X159375404Y-99011339D01*
X159462216Y-98961220D01*
X159574020Y-98849416D01*
X159574020Y-98849414D01*
X159584228Y-98839207D01*
X159584229Y-98839204D01*
X160467965Y-97955470D01*
X160529284Y-97921988D01*
X160531451Y-97921537D01*
X160532140Y-97921400D01*
X160532142Y-97921400D01*
X160686797Y-97890637D01*
X160832479Y-97830294D01*
X160963589Y-97742689D01*
X161075089Y-97631189D01*
X161162694Y-97500079D01*
X161223037Y-97354397D01*
X161253800Y-97199742D01*
X161253800Y-97042058D01*
X161253800Y-97042055D01*
X161253799Y-97042053D01*
X161223038Y-96887410D01*
X161223038Y-96887408D01*
X161223037Y-96887403D01*
X161212302Y-96861487D01*
X161162697Y-96741727D01*
X161162690Y-96741714D01*
X161075089Y-96610611D01*
X161075086Y-96610607D01*
X160963592Y-96499113D01*
X160963588Y-96499110D01*
X160832485Y-96411509D01*
X160832472Y-96411502D01*
X160686801Y-96351164D01*
X160686789Y-96351161D01*
X160532145Y-96320400D01*
X160532142Y-96320400D01*
X160374458Y-96320400D01*
X160374455Y-96320400D01*
X160219810Y-96351161D01*
X160219798Y-96351164D01*
X160074127Y-96411502D01*
X160074114Y-96411509D01*
X159943011Y-96499110D01*
X159943007Y-96499113D01*
X159831513Y-96610607D01*
X159831510Y-96610611D01*
X159743909Y-96741714D01*
X159743902Y-96741727D01*
X159683564Y-96887398D01*
X159683561Y-96887408D01*
X159652662Y-97042748D01*
X159620277Y-97104659D01*
X159618726Y-97106237D01*
X158881084Y-97843881D01*
X158819761Y-97877366D01*
X158793403Y-97880200D01*
X156275120Y-97880200D01*
X156208081Y-97860515D01*
X156162326Y-97807711D01*
X156152382Y-97738553D01*
X156152647Y-97736802D01*
X156175500Y-97592513D01*
X156175500Y-97407488D01*
X156175500Y-97407486D01*
X156153422Y-97268095D01*
X156162376Y-97198805D01*
X156188211Y-97161022D01*
X160053902Y-93295331D01*
X160115223Y-93261848D01*
X160165771Y-93261397D01*
X160212120Y-93270616D01*
X160289455Y-93286000D01*
X160289458Y-93286000D01*
X160447144Y-93286000D01*
X160447145Y-93285999D01*
X160601797Y-93255237D01*
X160747479Y-93194894D01*
X160878589Y-93107289D01*
X160990089Y-92995789D01*
X161077694Y-92864679D01*
X161138037Y-92718997D01*
X161168800Y-92564342D01*
X161168800Y-92406658D01*
X161168800Y-92406655D01*
X161168799Y-92406653D01*
X161138038Y-92252010D01*
X161138037Y-92252003D01*
X161106878Y-92176777D01*
X161077697Y-92106327D01*
X161077690Y-92106314D01*
X160990089Y-91975211D01*
X160990086Y-91975207D01*
X160878592Y-91863713D01*
X160878588Y-91863710D01*
X160747485Y-91776109D01*
X160747472Y-91776102D01*
X160601801Y-91715764D01*
X160601789Y-91715761D01*
X160447145Y-91685000D01*
X160447142Y-91685000D01*
X160289458Y-91685000D01*
X160289455Y-91685000D01*
X160134810Y-91715761D01*
X160134798Y-91715764D01*
X159989127Y-91776102D01*
X159989111Y-91776111D01*
X159921920Y-91821006D01*
X159855243Y-91841883D01*
X159787863Y-91823398D01*
X159741173Y-91771418D01*
X159730092Y-91734087D01*
X159720057Y-91657863D01*
X159660681Y-91436269D01*
X159572897Y-91224340D01*
X159572893Y-91224330D01*
X159458194Y-91025666D01*
X159401618Y-90951934D01*
X159401617Y-90951934D01*
X158677578Y-91675974D01*
X158664641Y-91644742D01*
X158582563Y-91521903D01*
X158478097Y-91417437D01*
X158355258Y-91335359D01*
X158324023Y-91322421D01*
X159048064Y-90598381D01*
X159048064Y-90598380D01*
X158974331Y-90541805D01*
X158974324Y-90541799D01*
X158775669Y-90427106D01*
X158775659Y-90427102D01*
X158563730Y-90339318D01*
X158342137Y-90279942D01*
X158114710Y-90250001D01*
X158114694Y-90250000D01*
X157885306Y-90250000D01*
X157885289Y-90250001D01*
X157657862Y-90279942D01*
X157436269Y-90339318D01*
X157224340Y-90427102D01*
X157224330Y-90427106D01*
X157025673Y-90541801D01*
X157025659Y-90541810D01*
X156951934Y-90598380D01*
X157675975Y-91322421D01*
X157644742Y-91335359D01*
X157521903Y-91417437D01*
X157417437Y-91521903D01*
X157335359Y-91644742D01*
X157322421Y-91675975D01*
X156598380Y-90951934D01*
X156541810Y-91025659D01*
X156541801Y-91025673D01*
X156427106Y-91224330D01*
X156427102Y-91224340D01*
X156339318Y-91436269D01*
X156279942Y-91657862D01*
X156250001Y-91885289D01*
X156250000Y-91885305D01*
X156250000Y-92114694D01*
X156250001Y-92114710D01*
X156279942Y-92342137D01*
X156339318Y-92563730D01*
X156427102Y-92775659D01*
X156427106Y-92775669D01*
X156541799Y-92974324D01*
X156541805Y-92974331D01*
X156598381Y-93048064D01*
X157322421Y-92324024D01*
X157335359Y-92355258D01*
X157417437Y-92478097D01*
X157521903Y-92582563D01*
X157644742Y-92664641D01*
X157675974Y-92677578D01*
X156951934Y-93401617D01*
X156951934Y-93401618D01*
X157025666Y-93458194D01*
X157224330Y-93572893D01*
X157224340Y-93572897D01*
X157436269Y-93660681D01*
X157657868Y-93720059D01*
X157657914Y-93720068D01*
X157657926Y-93720074D01*
X157661780Y-93721107D01*
X157661548Y-93721969D01*
X157719823Y-93752455D01*
X157754395Y-93813173D01*
X157750652Y-93882942D01*
X157721398Y-93929365D01*
X155338979Y-96311784D01*
X155277656Y-96345269D01*
X155231901Y-96346576D01*
X155092514Y-96324500D01*
X154907486Y-96324500D01*
X154768097Y-96346576D01*
X154698804Y-96337621D01*
X154661019Y-96311784D01*
X154271290Y-95922055D01*
X154271288Y-95922052D01*
X154152417Y-95803181D01*
X154152412Y-95803177D01*
X154095198Y-95770145D01*
X154069520Y-95750442D01*
X153980989Y-95661911D01*
X153980988Y-95661910D01*
X153980987Y-95661909D01*
X153849881Y-95574307D01*
X153849872Y-95574302D01*
X153704201Y-95513964D01*
X153704189Y-95513961D01*
X153549545Y-95483200D01*
X153549542Y-95483200D01*
X153391858Y-95483200D01*
X153391855Y-95483200D01*
X153237210Y-95513961D01*
X153237198Y-95513964D01*
X153091527Y-95574302D01*
X153091519Y-95574307D01*
X152960411Y-95661910D01*
X152960407Y-95661913D01*
X152848913Y-95773407D01*
X152848910Y-95773411D01*
X152802539Y-95842810D01*
X152748926Y-95887615D01*
X152679601Y-95896322D01*
X152616574Y-95866167D01*
X152579855Y-95806724D01*
X152578727Y-95801142D01*
X152577201Y-95795447D01*
X152577201Y-95795443D01*
X152536277Y-95642715D01*
X152496781Y-95574306D01*
X152457220Y-95505784D01*
X152362689Y-95411253D01*
X152358611Y-95406220D01*
X152347548Y-95379712D01*
X152333788Y-95354512D01*
X152333337Y-95352346D01*
X152307367Y-95221789D01*
X152302437Y-95197003D01*
X152302435Y-95196998D01*
X152242097Y-95051327D01*
X152242090Y-95051314D01*
X152154489Y-94920211D01*
X152154486Y-94920207D01*
X152042992Y-94808713D01*
X152042988Y-94808710D01*
X151911885Y-94721109D01*
X151911872Y-94721102D01*
X151766201Y-94660764D01*
X151766189Y-94660761D01*
X151611545Y-94630000D01*
X151611542Y-94630000D01*
X151453858Y-94630000D01*
X151453855Y-94630000D01*
X151299210Y-94660761D01*
X151299198Y-94660764D01*
X151153527Y-94721102D01*
X151153514Y-94721109D01*
X151022411Y-94808710D01*
X151022407Y-94808713D01*
X150910913Y-94920207D01*
X150910910Y-94920211D01*
X150823309Y-95051314D01*
X150823302Y-95051327D01*
X150762964Y-95196998D01*
X150762961Y-95197010D01*
X150732200Y-95351653D01*
X150732200Y-95509346D01*
X150762961Y-95663989D01*
X150762964Y-95664001D01*
X150823302Y-95809672D01*
X150823309Y-95809685D01*
X150910910Y-95940788D01*
X150910913Y-95940792D01*
X151022410Y-96052289D01*
X151089921Y-96097398D01*
X151134726Y-96151010D01*
X151143433Y-96220335D01*
X151113279Y-96283362D01*
X151053836Y-96320082D01*
X151021030Y-96324500D01*
X150907486Y-96324500D01*
X150867028Y-96330908D01*
X150724734Y-96353445D01*
X150548767Y-96410619D01*
X150548764Y-96410620D01*
X150383903Y-96494622D01*
X150304188Y-96552539D01*
X150234213Y-96603379D01*
X150234211Y-96603381D01*
X150234210Y-96603381D01*
X150103378Y-96734213D01*
X150049163Y-96808833D01*
X150029745Y-96823805D01*
X149400000Y-97453552D01*
X149400000Y-97447339D01*
X149372741Y-97345606D01*
X149320080Y-97254394D01*
X149245606Y-97179920D01*
X149154394Y-97127259D01*
X149052661Y-97100000D01*
X149046447Y-97100000D01*
X149636431Y-96510016D01*
X149636430Y-96510015D01*
X149615834Y-96495050D01*
X149451043Y-96411084D01*
X149451040Y-96411083D01*
X149275147Y-96353933D01*
X149092473Y-96325000D01*
X148907527Y-96325000D01*
X148724852Y-96353933D01*
X148548959Y-96411083D01*
X148548956Y-96411084D01*
X148384167Y-96495049D01*
X148363568Y-96510015D01*
X148953554Y-97100000D01*
X148947339Y-97100000D01*
X148845606Y-97127259D01*
X148754394Y-97179920D01*
X148679920Y-97254394D01*
X148627259Y-97345606D01*
X148600000Y-97447339D01*
X148600000Y-97453552D01*
X147988310Y-96841862D01*
X147987844Y-96841491D01*
X147984541Y-96840536D01*
X147972885Y-96829573D01*
X147957773Y-96817532D01*
X147954109Y-96813338D01*
X147896621Y-96734213D01*
X147765787Y-96603379D01*
X147616096Y-96494622D01*
X147562778Y-96467455D01*
X147451235Y-96410620D01*
X147451232Y-96410619D01*
X147275265Y-96353445D01*
X147132972Y-96330908D01*
X147092514Y-96324500D01*
X146907486Y-96324500D01*
X146867028Y-96330908D01*
X146724734Y-96353445D01*
X146548767Y-96410619D01*
X146548764Y-96410620D01*
X146383900Y-96494624D01*
X146268392Y-96578545D01*
X146202586Y-96602025D01*
X146134532Y-96586199D01*
X146096241Y-96552539D01*
X146053204Y-96495050D01*
X146032546Y-96467454D01*
X146032544Y-96467453D01*
X146032544Y-96467452D01*
X145917335Y-96381206D01*
X145917328Y-96381202D01*
X145782482Y-96330908D01*
X145782483Y-96330908D01*
X145722883Y-96324501D01*
X145722881Y-96324500D01*
X145722873Y-96324500D01*
X145722864Y-96324500D01*
X144277129Y-96324500D01*
X144277123Y-96324501D01*
X144217516Y-96330908D01*
X144082671Y-96381202D01*
X144082664Y-96381206D01*
X143967455Y-96467452D01*
X143967452Y-96467455D01*
X143881206Y-96582664D01*
X143881202Y-96582671D01*
X143830908Y-96717517D01*
X143824501Y-96777116D01*
X143824500Y-96777135D01*
X137484949Y-96777135D01*
X136254450Y-95546636D01*
X136220965Y-95485313D01*
X136225949Y-95415621D01*
X136267821Y-95359688D01*
X136294671Y-95344398D01*
X136379179Y-95309394D01*
X136510289Y-95221789D01*
X136621789Y-95110289D01*
X136709394Y-94979179D01*
X136769737Y-94833497D01*
X136800500Y-94678842D01*
X136800500Y-94521158D01*
X136800500Y-94521155D01*
X136800499Y-94521153D01*
X136779074Y-94413442D01*
X136769737Y-94366503D01*
X136736341Y-94285877D01*
X136709397Y-94220827D01*
X136709390Y-94220814D01*
X136621789Y-94089711D01*
X136621786Y-94089707D01*
X136510292Y-93978213D01*
X136510288Y-93978210D01*
X136379185Y-93890609D01*
X136379172Y-93890602D01*
X136233499Y-93830263D01*
X136233493Y-93830261D01*
X136202980Y-93824192D01*
X136186223Y-93815426D01*
X136167746Y-93811407D01*
X136142705Y-93792661D01*
X136141070Y-93791806D01*
X136139492Y-93790256D01*
X136008870Y-93659634D01*
X135975385Y-93598311D01*
X135974267Y-93591901D01*
X135973951Y-93590722D01*
X135913446Y-93444647D01*
X135913444Y-93444644D01*
X135841361Y-93350705D01*
X135841359Y-93350702D01*
X135782630Y-93291973D01*
X135601852Y-93111196D01*
X135601848Y-93111193D01*
X135601846Y-93111191D01*
X135507902Y-93039103D01*
X135507901Y-93039102D01*
X135507899Y-93039101D01*
X135506001Y-93038005D01*
X135475236Y-93012903D01*
X135398965Y-92926921D01*
X135400000Y-92925000D01*
X135355013Y-92877993D01*
X135109865Y-92621836D01*
X135090815Y-92614399D01*
X135055098Y-92586991D01*
X134909143Y-92526535D01*
X134752513Y-92505914D01*
X134595882Y-92526535D01*
X134595878Y-92526536D01*
X134449925Y-92586991D01*
X134404608Y-92621764D01*
X134404608Y-92621765D01*
X134763472Y-92980631D01*
X134767809Y-92988575D01*
X134775058Y-92994001D01*
X134784294Y-93018763D01*
X134796957Y-93041954D01*
X134796311Y-93050982D01*
X134799475Y-93059465D01*
X134793858Y-93085284D01*
X134791973Y-93111646D01*
X134786153Y-93120700D01*
X134784623Y-93127738D01*
X134763474Y-93155990D01*
X134658070Y-93261397D01*
X134655994Y-93263473D01*
X134594671Y-93296958D01*
X134524979Y-93291974D01*
X134480631Y-93263473D01*
X134121765Y-92904608D01*
X134121764Y-92904608D01*
X134086992Y-92949924D01*
X134032284Y-93082000D01*
X133988442Y-93136404D01*
X133922148Y-93158468D01*
X133854449Y-93141188D01*
X133830042Y-93122228D01*
X132593072Y-91885258D01*
X136249500Y-91885258D01*
X136249500Y-92114741D01*
X136257668Y-92176777D01*
X136279452Y-92342238D01*
X136296713Y-92406658D01*
X136338842Y-92563887D01*
X136426650Y-92775876D01*
X136426657Y-92775890D01*
X136481098Y-92870185D01*
X136539011Y-92970494D01*
X136541392Y-92974617D01*
X136681081Y-93156661D01*
X136681089Y-93156670D01*
X136843330Y-93318911D01*
X136843338Y-93318918D01*
X137025382Y-93458607D01*
X137025385Y-93458608D01*
X137025388Y-93458611D01*
X137224112Y-93573344D01*
X137224117Y-93573346D01*
X137224123Y-93573349D01*
X137266073Y-93590725D01*
X137436113Y-93661158D01*
X137657762Y-93720548D01*
X137885266Y-93750500D01*
X137885273Y-93750500D01*
X138114727Y-93750500D01*
X138114734Y-93750500D01*
X138342238Y-93720548D01*
X138563887Y-93661158D01*
X138775888Y-93573344D01*
X138974612Y-93458611D01*
X139156661Y-93318919D01*
X139156665Y-93318914D01*
X139156670Y-93318911D01*
X139318911Y-93156670D01*
X139318914Y-93156665D01*
X139318919Y-93156661D01*
X139458611Y-92974612D01*
X139573344Y-92775888D01*
X139661158Y-92563887D01*
X139720548Y-92342238D01*
X139748240Y-92131902D01*
X145249500Y-92131902D01*
X145249500Y-92368097D01*
X145286446Y-92601368D01*
X145359433Y-92825996D01*
X145447815Y-92999454D01*
X145466657Y-93036433D01*
X145605483Y-93227510D01*
X145772490Y-93394517D01*
X145963567Y-93533343D01*
X146042083Y-93573349D01*
X146174003Y-93640566D01*
X146174005Y-93640566D01*
X146174008Y-93640568D01*
X146294412Y-93679689D01*
X146398631Y-93713553D01*
X146631903Y-93750500D01*
X146631908Y-93750500D01*
X146868097Y-93750500D01*
X147101368Y-93713553D01*
X147325992Y-93640568D01*
X147536433Y-93533343D01*
X147727510Y-93394517D01*
X147894517Y-93227510D01*
X148033343Y-93036433D01*
X148093583Y-92918204D01*
X148141558Y-92867409D01*
X148204068Y-92850500D01*
X151795932Y-92850500D01*
X151862971Y-92870185D01*
X151906416Y-92918203D01*
X151966657Y-93036433D01*
X152105483Y-93227510D01*
X152272490Y-93394517D01*
X152463567Y-93533343D01*
X152542083Y-93573349D01*
X152674003Y-93640566D01*
X152674005Y-93640566D01*
X152674008Y-93640568D01*
X152794412Y-93679689D01*
X152898631Y-93713553D01*
X153131903Y-93750500D01*
X153131908Y-93750500D01*
X153368097Y-93750500D01*
X153601368Y-93713553D01*
X153825992Y-93640568D01*
X154036433Y-93533343D01*
X154227510Y-93394517D01*
X154394517Y-93227510D01*
X154533343Y-93036433D01*
X154640568Y-92825992D01*
X154713553Y-92601368D01*
X154725405Y-92526536D01*
X154750500Y-92368097D01*
X154750500Y-92131902D01*
X154713871Y-91900638D01*
X154713759Y-91899933D01*
X154713553Y-91898632D01*
X154640568Y-91674008D01*
X154640566Y-91674005D01*
X154640566Y-91674003D01*
X154584002Y-91562991D01*
X154533343Y-91463567D01*
X154394517Y-91272490D01*
X154227510Y-91105483D01*
X154036433Y-90966657D01*
X153825996Y-90859433D01*
X153601368Y-90786446D01*
X153489996Y-90768807D01*
X153368097Y-90749500D01*
X153368092Y-90749500D01*
X153131908Y-90749500D01*
X153131903Y-90749500D01*
X152898631Y-90786446D01*
X152674003Y-90859433D01*
X152463566Y-90966657D01*
X152354550Y-91045862D01*
X152272490Y-91105483D01*
X152272488Y-91105485D01*
X152272487Y-91105485D01*
X152105485Y-91272487D01*
X152105485Y-91272488D01*
X152105483Y-91272490D01*
X152059806Y-91335359D01*
X151966657Y-91463566D01*
X151906417Y-91581795D01*
X151858442Y-91632591D01*
X151795932Y-91649500D01*
X148204068Y-91649500D01*
X148137029Y-91629815D01*
X148093583Y-91581795D01*
X148033343Y-91463567D01*
X147894517Y-91272490D01*
X147727510Y-91105483D01*
X147536433Y-90966657D01*
X147325996Y-90859433D01*
X147101368Y-90786446D01*
X146868097Y-90749500D01*
X146868092Y-90749500D01*
X146631908Y-90749500D01*
X146631903Y-90749500D01*
X146398631Y-90786446D01*
X146174003Y-90859433D01*
X145963566Y-90966657D01*
X145854550Y-91045862D01*
X145772490Y-91105483D01*
X145772488Y-91105485D01*
X145772487Y-91105485D01*
X145605485Y-91272487D01*
X145605485Y-91272488D01*
X145605483Y-91272490D01*
X145559806Y-91335359D01*
X145466657Y-91463566D01*
X145359433Y-91674003D01*
X145286446Y-91898631D01*
X145249500Y-92131902D01*
X139748240Y-92131902D01*
X139750500Y-92114734D01*
X139750500Y-91885266D01*
X139720548Y-91657762D01*
X139661158Y-91436113D01*
X139620215Y-91337271D01*
X139612747Y-91267803D01*
X139644022Y-91205323D01*
X139647060Y-91202173D01*
X139947418Y-90901817D01*
X140008740Y-90868334D01*
X140035098Y-90865500D01*
X141214281Y-90865500D01*
X141281320Y-90885185D01*
X141324765Y-90933205D01*
X141344947Y-90972814D01*
X141344948Y-90972815D01*
X141469890Y-91144786D01*
X141620213Y-91295109D01*
X141792179Y-91420048D01*
X141792181Y-91420049D01*
X141792184Y-91420051D01*
X141981588Y-91516557D01*
X142183757Y-91582246D01*
X142393713Y-91615500D01*
X142393714Y-91615500D01*
X142606286Y-91615500D01*
X142606287Y-91615500D01*
X142816243Y-91582246D01*
X143018412Y-91516557D01*
X143207816Y-91420051D01*
X143229789Y-91404086D01*
X143379786Y-91295109D01*
X143379788Y-91295106D01*
X143379792Y-91295104D01*
X143530104Y-91144792D01*
X143530106Y-91144788D01*
X143530109Y-91144786D01*
X143655048Y-90972820D01*
X143655047Y-90972820D01*
X143655051Y-90972816D01*
X143751557Y-90783412D01*
X143817246Y-90581243D01*
X143850500Y-90371287D01*
X143850500Y-90158713D01*
X143817246Y-89948757D01*
X143751557Y-89746588D01*
X143655051Y-89557184D01*
X143655049Y-89557181D01*
X143655048Y-89557179D01*
X143530109Y-89385213D01*
X143416181Y-89271285D01*
X143382696Y-89209962D01*
X143387680Y-89140270D01*
X143429552Y-89084337D01*
X143460529Y-89067422D01*
X143592086Y-89018354D01*
X143592093Y-89018350D01*
X143707187Y-88932190D01*
X143707190Y-88932187D01*
X143793350Y-88817093D01*
X143793354Y-88817086D01*
X143843596Y-88682379D01*
X143843598Y-88682372D01*
X143849999Y-88622844D01*
X143850000Y-88622827D01*
X143850000Y-87975000D01*
X142933012Y-87975000D01*
X142965925Y-87917993D01*
X143000000Y-87790826D01*
X143000000Y-87659174D01*
X142965925Y-87532007D01*
X142933012Y-87475000D01*
X143850000Y-87475000D01*
X143850000Y-86827172D01*
X143849999Y-86827155D01*
X143843598Y-86767627D01*
X143843596Y-86767620D01*
X143793354Y-86632913D01*
X143793350Y-86632906D01*
X143707190Y-86517812D01*
X143707187Y-86517809D01*
X143592093Y-86431649D01*
X143592086Y-86431645D01*
X143457379Y-86381403D01*
X143457372Y-86381401D01*
X143397844Y-86375000D01*
X142750000Y-86375000D01*
X142750000Y-87291988D01*
X142692993Y-87259075D01*
X142565826Y-87225000D01*
X142434174Y-87225000D01*
X142307007Y-87259075D01*
X142250000Y-87291988D01*
X142250000Y-86375000D01*
X141602155Y-86375000D01*
X141542627Y-86381401D01*
X141542620Y-86381403D01*
X141407913Y-86431645D01*
X141407906Y-86431649D01*
X141292812Y-86517809D01*
X141292809Y-86517812D01*
X141206649Y-86632906D01*
X141206645Y-86632913D01*
X141156403Y-86767620D01*
X141156401Y-86767627D01*
X141150000Y-86827155D01*
X141150000Y-87475000D01*
X142066988Y-87475000D01*
X142034075Y-87532007D01*
X142000000Y-87659174D01*
X142000000Y-87790826D01*
X142034075Y-87917993D01*
X142066988Y-87975000D01*
X141150000Y-87975000D01*
X141150000Y-88622844D01*
X141156401Y-88682372D01*
X141156403Y-88682379D01*
X141206645Y-88817086D01*
X141206649Y-88817093D01*
X141292809Y-88932187D01*
X141292812Y-88932190D01*
X141407906Y-89018350D01*
X141407913Y-89018354D01*
X141539470Y-89067422D01*
X141595404Y-89109293D01*
X141619821Y-89174758D01*
X141604969Y-89243031D01*
X141583819Y-89271285D01*
X141469889Y-89385215D01*
X141344948Y-89557184D01*
X141344947Y-89557185D01*
X141324765Y-89596795D01*
X141276791Y-89647591D01*
X141214281Y-89664500D01*
X139821670Y-89664500D01*
X139821654Y-89664499D01*
X139814058Y-89664499D01*
X139655943Y-89664499D01*
X139579579Y-89684961D01*
X139503214Y-89705423D01*
X139503209Y-89705426D01*
X139366290Y-89784475D01*
X139366282Y-89784481D01*
X138797860Y-90352903D01*
X138736537Y-90386388D01*
X138666845Y-90381404D01*
X138662743Y-90379789D01*
X138563887Y-90338842D01*
X138563885Y-90338841D01*
X138563884Y-90338841D01*
X138498035Y-90321197D01*
X138342238Y-90279452D01*
X138304215Y-90274446D01*
X138114741Y-90249500D01*
X138114734Y-90249500D01*
X137885266Y-90249500D01*
X137885258Y-90249500D01*
X137668715Y-90278009D01*
X137657762Y-90279452D01*
X137564076Y-90304554D01*
X137436112Y-90338842D01*
X137224123Y-90426650D01*
X137224109Y-90426657D01*
X137025382Y-90541392D01*
X136843338Y-90681081D01*
X136681081Y-90843338D01*
X136541392Y-91025382D01*
X136426657Y-91224109D01*
X136426650Y-91224123D01*
X136338842Y-91436112D01*
X136338842Y-91436113D01*
X136286197Y-91632591D01*
X136279453Y-91657759D01*
X136279451Y-91657770D01*
X136249500Y-91885258D01*
X132593072Y-91885258D01*
X130536819Y-89829005D01*
X130503334Y-89767682D01*
X130500500Y-89741324D01*
X130500500Y-87127350D01*
X130520185Y-87060311D01*
X130572989Y-87014556D01*
X130642147Y-87004612D01*
X130693391Y-87024248D01*
X130820814Y-87109390D01*
X130820827Y-87109397D01*
X130917646Y-87149500D01*
X130966503Y-87169737D01*
X131119484Y-87200167D01*
X131121153Y-87200499D01*
X131121156Y-87200500D01*
X131121158Y-87200500D01*
X131278844Y-87200500D01*
X131278845Y-87200499D01*
X131433497Y-87169737D01*
X131579179Y-87109394D01*
X131710289Y-87021789D01*
X131821789Y-86910289D01*
X131909394Y-86779179D01*
X131912166Y-86772488D01*
X131923300Y-86745606D01*
X131969737Y-86633497D01*
X132000500Y-86478842D01*
X132000500Y-86321158D01*
X132000500Y-86321155D01*
X132000499Y-86321153D01*
X131995734Y-86297200D01*
X131969737Y-86166503D01*
X131924273Y-86056742D01*
X131909397Y-86020827D01*
X131909390Y-86020814D01*
X131821789Y-85889711D01*
X131821786Y-85889707D01*
X131710292Y-85778213D01*
X131710288Y-85778210D01*
X131670844Y-85751854D01*
X131626039Y-85698241D01*
X131617332Y-85628916D01*
X131625172Y-85601304D01*
X131685044Y-85456762D01*
X131700500Y-85339361D01*
X131700499Y-85000640D01*
X131698495Y-84985424D01*
X131698269Y-84979838D01*
X131700033Y-84972781D01*
X131700000Y-84972781D01*
X131700000Y-84305440D01*
X131689861Y-84283535D01*
X131689568Y-84281446D01*
X131684555Y-84243366D01*
X131624100Y-84097413D01*
X131527925Y-83972076D01*
X131430974Y-83897682D01*
X134700000Y-83897682D01*
X134700000Y-84102317D01*
X134732009Y-84304417D01*
X134795244Y-84499031D01*
X134888141Y-84681350D01*
X134888147Y-84681359D01*
X134920523Y-84725921D01*
X134920524Y-84725922D01*
X135600000Y-84046446D01*
X135600000Y-84052661D01*
X135627259Y-84154394D01*
X135679920Y-84245606D01*
X135754394Y-84320080D01*
X135845606Y-84372741D01*
X135947339Y-84400000D01*
X135953553Y-84400000D01*
X135274076Y-85079474D01*
X135318650Y-85111859D01*
X135500968Y-85204755D01*
X135695582Y-85267990D01*
X135897683Y-85300000D01*
X136102317Y-85300000D01*
X136304417Y-85267990D01*
X136499031Y-85204755D01*
X136681349Y-85111859D01*
X136725921Y-85079474D01*
X136046447Y-84400000D01*
X136052661Y-84400000D01*
X136154394Y-84372741D01*
X136245606Y-84320080D01*
X136320080Y-84245606D01*
X136372741Y-84154394D01*
X136400000Y-84052661D01*
X136400000Y-84046446D01*
X137079474Y-84725921D01*
X137111859Y-84681349D01*
X137139233Y-84627624D01*
X137187207Y-84576827D01*
X137255028Y-84560031D01*
X137321163Y-84582567D01*
X137360203Y-84627621D01*
X137387713Y-84681611D01*
X137508028Y-84847213D01*
X137652786Y-84991971D01*
X137767825Y-85075550D01*
X137818390Y-85112287D01*
X137934607Y-85171503D01*
X138000776Y-85205218D01*
X138000778Y-85205218D01*
X138000781Y-85205220D01*
X138083229Y-85232009D01*
X138195465Y-85268477D01*
X138296557Y-85284488D01*
X138397648Y-85300500D01*
X138397649Y-85300500D01*
X138602351Y-85300500D01*
X138602352Y-85300500D01*
X138804534Y-85268477D01*
X138999219Y-85205220D01*
X139181610Y-85112287D01*
X139288349Y-85034737D01*
X139347213Y-84991971D01*
X139347215Y-84991968D01*
X139347219Y-84991966D01*
X139491966Y-84847219D01*
X139491968Y-84847215D01*
X139491971Y-84847213D01*
X139612284Y-84681614D01*
X139612286Y-84681611D01*
X139612287Y-84681610D01*
X139619117Y-84668204D01*
X139667091Y-84617409D01*
X139729602Y-84600500D01*
X142699903Y-84600500D01*
X142766942Y-84620185D01*
X142787584Y-84636819D01*
X145297200Y-87146435D01*
X145330685Y-87207758D01*
X145327450Y-87272433D01*
X145286447Y-87398628D01*
X145249500Y-87631902D01*
X145249500Y-87868097D01*
X145286446Y-88101368D01*
X145359433Y-88325996D01*
X145428475Y-88461497D01*
X145466657Y-88536433D01*
X145605483Y-88727510D01*
X145772490Y-88894517D01*
X145963567Y-89033343D01*
X146024000Y-89064135D01*
X146174003Y-89140566D01*
X146174005Y-89140566D01*
X146174008Y-89140568D01*
X146279234Y-89174758D01*
X146398631Y-89213553D01*
X146631903Y-89250500D01*
X146631908Y-89250500D01*
X146868097Y-89250500D01*
X147101368Y-89213553D01*
X147112420Y-89209962D01*
X147325992Y-89140568D01*
X147536433Y-89033343D01*
X147727510Y-88894517D01*
X147894517Y-88727510D01*
X148033343Y-88536433D01*
X148093583Y-88418204D01*
X148141558Y-88367409D01*
X148204068Y-88350500D01*
X151795932Y-88350500D01*
X151862971Y-88370185D01*
X151906416Y-88418203D01*
X151966657Y-88536433D01*
X152105483Y-88727510D01*
X152272490Y-88894517D01*
X152463567Y-89033343D01*
X152524000Y-89064135D01*
X152674003Y-89140566D01*
X152674005Y-89140566D01*
X152674008Y-89140568D01*
X152779234Y-89174758D01*
X152898631Y-89213553D01*
X153131903Y-89250500D01*
X153131908Y-89250500D01*
X153368097Y-89250500D01*
X153601368Y-89213553D01*
X153612420Y-89209962D01*
X153825992Y-89140568D01*
X154036433Y-89033343D01*
X154227510Y-88894517D01*
X154394517Y-88727510D01*
X154533343Y-88536433D01*
X154622779Y-88360905D01*
X154670754Y-88310109D01*
X154733264Y-88293200D01*
X155585914Y-88293200D01*
X155652953Y-88312885D01*
X155698708Y-88365689D01*
X155707531Y-88393008D01*
X155734361Y-88527891D01*
X155734364Y-88527901D01*
X155794702Y-88673572D01*
X155794709Y-88673585D01*
X155882310Y-88804688D01*
X155882313Y-88804692D01*
X155993807Y-88916186D01*
X155993811Y-88916189D01*
X156124914Y-89003790D01*
X156124927Y-89003797D01*
X156270598Y-89064135D01*
X156270603Y-89064137D01*
X156372155Y-89084337D01*
X156425253Y-89094899D01*
X156425256Y-89094900D01*
X156425258Y-89094900D01*
X156582944Y-89094900D01*
X156582945Y-89094899D01*
X156737597Y-89064137D01*
X156883279Y-89003794D01*
X156967149Y-88947754D01*
X157014975Y-88915798D01*
X157081653Y-88894920D01*
X157083866Y-88894900D01*
X165866731Y-88894900D01*
X165866747Y-88894901D01*
X165874343Y-88894901D01*
X166032454Y-88894901D01*
X166032457Y-88894901D01*
X166185185Y-88853977D01*
X166235304Y-88825039D01*
X166322116Y-88774920D01*
X166433920Y-88663116D01*
X166433920Y-88663114D01*
X166444128Y-88652907D01*
X166444130Y-88652904D01*
X166474207Y-88622827D01*
X166510362Y-88586672D01*
X166571684Y-88553188D01*
X166573851Y-88552737D01*
X166574540Y-88552600D01*
X166574542Y-88552600D01*
X166729197Y-88521837D01*
X166874879Y-88461494D01*
X167005989Y-88373889D01*
X167117489Y-88262389D01*
X167205094Y-88131279D01*
X167265437Y-87985597D01*
X167296200Y-87830942D01*
X167296200Y-87673258D01*
X167296200Y-87673255D01*
X167296199Y-87673253D01*
X167265438Y-87518610D01*
X167265437Y-87518603D01*
X167247376Y-87475000D01*
X167205097Y-87372927D01*
X167205090Y-87372914D01*
X167117489Y-87241811D01*
X167117486Y-87241807D01*
X167005992Y-87130313D01*
X167005988Y-87130310D01*
X166874885Y-87042709D01*
X166874872Y-87042702D01*
X166729201Y-86982364D01*
X166729189Y-86982361D01*
X166613823Y-86959413D01*
X166551912Y-86927028D01*
X166517338Y-86866312D01*
X166517443Y-86808839D01*
X166518474Y-86804542D01*
X166518477Y-86804534D01*
X166550500Y-86602352D01*
X166550500Y-86397648D01*
X166543649Y-86354394D01*
X166518477Y-86195465D01*
X166461729Y-86020814D01*
X166455220Y-86000781D01*
X166455218Y-86000778D01*
X166455218Y-86000776D01*
X166392909Y-85878489D01*
X166362287Y-85818390D01*
X166333097Y-85778213D01*
X166241971Y-85652786D01*
X166097213Y-85508028D01*
X165931613Y-85387715D01*
X165931612Y-85387714D01*
X165931610Y-85387713D01*
X165874653Y-85358691D01*
X165749223Y-85294781D01*
X165554534Y-85231522D01*
X165379995Y-85203878D01*
X165352352Y-85199500D01*
X165147648Y-85199500D01*
X165123329Y-85203351D01*
X164945465Y-85231522D01*
X164750776Y-85294781D01*
X164568386Y-85387715D01*
X164402786Y-85508028D01*
X164258028Y-85652786D01*
X164137714Y-85818386D01*
X164110203Y-85872379D01*
X164062227Y-85923174D01*
X163994406Y-85939968D01*
X163928272Y-85917429D01*
X163889234Y-85872376D01*
X163861861Y-85818652D01*
X163829474Y-85774077D01*
X163829474Y-85774076D01*
X163150000Y-86453551D01*
X163150000Y-86447339D01*
X163122741Y-86345606D01*
X163070080Y-86254394D01*
X162995606Y-86179920D01*
X162904394Y-86127259D01*
X162802661Y-86100000D01*
X162796446Y-86100000D01*
X163475922Y-85420524D01*
X163475921Y-85420523D01*
X163431359Y-85388147D01*
X163431350Y-85388141D01*
X163249031Y-85295244D01*
X163054417Y-85232009D01*
X162852317Y-85200000D01*
X162647683Y-85200000D01*
X162445582Y-85232009D01*
X162250968Y-85295244D01*
X162068644Y-85388143D01*
X162024077Y-85420523D01*
X162024077Y-85420524D01*
X162703554Y-86100000D01*
X162697339Y-86100000D01*
X162595606Y-86127259D01*
X162504394Y-86179920D01*
X162429920Y-86254394D01*
X162377259Y-86345606D01*
X162350000Y-86447339D01*
X162350000Y-86453553D01*
X161670524Y-85774077D01*
X161670523Y-85774077D01*
X161638143Y-85818644D01*
X161545244Y-86000968D01*
X161482009Y-86195582D01*
X161450000Y-86397682D01*
X161450000Y-86602317D01*
X161482009Y-86804417D01*
X161522776Y-86929881D01*
X161524771Y-86999723D01*
X161488691Y-87059556D01*
X161425990Y-87090384D01*
X161404845Y-87092200D01*
X154674872Y-87092200D01*
X154607833Y-87072515D01*
X154564387Y-87024495D01*
X154533343Y-86963567D01*
X154394517Y-86772490D01*
X154227510Y-86605483D01*
X154040784Y-86469818D01*
X153998119Y-86414488D01*
X153992140Y-86344874D01*
X154024746Y-86283079D01*
X154085585Y-86248722D01*
X154113670Y-86245500D01*
X159420660Y-86245500D01*
X159487699Y-86265185D01*
X159508342Y-86281820D01*
X159540507Y-86313986D01*
X159540511Y-86313989D01*
X159671614Y-86401590D01*
X159671627Y-86401597D01*
X159817298Y-86461935D01*
X159817303Y-86461937D01*
X159949275Y-86488188D01*
X159971953Y-86492699D01*
X159971956Y-86492700D01*
X159971958Y-86492700D01*
X160129644Y-86492700D01*
X160129645Y-86492699D01*
X160284297Y-86461937D01*
X160398850Y-86414488D01*
X160429972Y-86401597D01*
X160429972Y-86401596D01*
X160429979Y-86401594D01*
X160561089Y-86313989D01*
X160672589Y-86202489D01*
X160760194Y-86071379D01*
X160820537Y-85925697D01*
X160851300Y-85771042D01*
X160851300Y-85613358D01*
X160851300Y-85613355D01*
X160851299Y-85613353D01*
X160827156Y-85491974D01*
X160820538Y-85458707D01*
X160820535Y-85458698D01*
X160760197Y-85313027D01*
X160760190Y-85313014D01*
X160672589Y-85181911D01*
X160672586Y-85181907D01*
X160561092Y-85070413D01*
X160561088Y-85070410D01*
X160429985Y-84982809D01*
X160429972Y-84982802D01*
X160284301Y-84922464D01*
X160284289Y-84922461D01*
X160129645Y-84891700D01*
X160129642Y-84891700D01*
X159971958Y-84891700D01*
X159971955Y-84891700D01*
X159817310Y-84922461D01*
X159817298Y-84922464D01*
X159671627Y-84982802D01*
X159671612Y-84982810D01*
X159610567Y-85023601D01*
X159543890Y-85044480D01*
X159541675Y-85044500D01*
X149209466Y-85044500D01*
X149191322Y-85039172D01*
X149172414Y-85038835D01*
X149144198Y-85025335D01*
X149142427Y-85024815D01*
X149140576Y-85023602D01*
X149080412Y-84983402D01*
X149035606Y-84929790D01*
X149026899Y-84860465D01*
X149057053Y-84797438D01*
X149116496Y-84760718D01*
X149149302Y-84756300D01*
X154091331Y-84756300D01*
X154091347Y-84756301D01*
X154098943Y-84756301D01*
X154257054Y-84756301D01*
X154257057Y-84756301D01*
X154409785Y-84715377D01*
X154468271Y-84681610D01*
X154468272Y-84681610D01*
X154546709Y-84636324D01*
X154546708Y-84636324D01*
X154546716Y-84636320D01*
X154658520Y-84524516D01*
X154658520Y-84524514D01*
X154668724Y-84514311D01*
X154668727Y-84514306D01*
X160187030Y-78996004D01*
X160248351Y-78962521D01*
X160318043Y-78967505D01*
X160373976Y-79009377D01*
X160389270Y-79036235D01*
X160448102Y-79178272D01*
X160448109Y-79178285D01*
X160535710Y-79309388D01*
X160535713Y-79309392D01*
X160647207Y-79420886D01*
X160647211Y-79420889D01*
X160778314Y-79508490D01*
X160778327Y-79508497D01*
X160881756Y-79551338D01*
X160924003Y-79568837D01*
X161078653Y-79599599D01*
X161078656Y-79599600D01*
X161078658Y-79599600D01*
X161236344Y-79599600D01*
X161236345Y-79599599D01*
X161390997Y-79568837D01*
X161536679Y-79508494D01*
X161562876Y-79490990D01*
X161668375Y-79420498D01*
X161735053Y-79399620D01*
X161737266Y-79399600D01*
X165942225Y-79399600D01*
X166009264Y-79419285D01*
X166011116Y-79420498D01*
X166116614Y-79490990D01*
X166116627Y-79490997D01*
X166262298Y-79551335D01*
X166262303Y-79551337D01*
X166416953Y-79582099D01*
X166416956Y-79582100D01*
X166416958Y-79582100D01*
X166574644Y-79582100D01*
X166574645Y-79582099D01*
X166729297Y-79551337D01*
X166874979Y-79490994D01*
X167006089Y-79403389D01*
X167117589Y-79291889D01*
X167205194Y-79160779D01*
X167265537Y-79015097D01*
X167296300Y-78860442D01*
X167296300Y-78702758D01*
X167296300Y-78702755D01*
X167296299Y-78702753D01*
X167265538Y-78548110D01*
X167265537Y-78548103D01*
X167265535Y-78548098D01*
X167205197Y-78402427D01*
X167205190Y-78402414D01*
X167117589Y-78271311D01*
X167117586Y-78271307D01*
X167006092Y-78159813D01*
X167006088Y-78159810D01*
X166874985Y-78072209D01*
X166874972Y-78072202D01*
X166729301Y-78011864D01*
X166729291Y-78011861D01*
X166579970Y-77982159D01*
X166518059Y-77949774D01*
X166483485Y-77889058D01*
X166487225Y-77819289D01*
X166501063Y-77791647D01*
X166509390Y-77779185D01*
X166509390Y-77779184D01*
X166509394Y-77779179D01*
X166569737Y-77633497D01*
X166600500Y-77478842D01*
X166600500Y-77321158D01*
X166600500Y-77321155D01*
X166600499Y-77321153D01*
X166578108Y-77208588D01*
X166569737Y-77166503D01*
X166560647Y-77144557D01*
X166509397Y-77020827D01*
X166509390Y-77020814D01*
X166421789Y-76889711D01*
X166421786Y-76889707D01*
X166310292Y-76778213D01*
X166310288Y-76778210D01*
X166179185Y-76690609D01*
X166179176Y-76690604D01*
X166028841Y-76628334D01*
X165974438Y-76584493D01*
X165961733Y-76561225D01*
X165913884Y-76445707D01*
X165913445Y-76444646D01*
X165913444Y-76444645D01*
X165913444Y-76444644D01*
X165841361Y-76350705D01*
X165841359Y-76350702D01*
X165782629Y-76291972D01*
X165601852Y-76111196D01*
X165601848Y-76111193D01*
X165601846Y-76111191D01*
X165507902Y-76039103D01*
X165507901Y-76039102D01*
X165507899Y-76039101D01*
X165506001Y-76038005D01*
X165503404Y-76035651D01*
X165501454Y-76034155D01*
X165501576Y-76033995D01*
X165498170Y-76030908D01*
X165491637Y-76028315D01*
X165478014Y-76012640D01*
X165467206Y-76002844D01*
X165447601Y-75975485D01*
X165436722Y-75944351D01*
X165431568Y-75931021D01*
X165407716Y-75909157D01*
X165161757Y-75683694D01*
X165145036Y-75656003D01*
X165055102Y-75586993D01*
X165055098Y-75586991D01*
X164909143Y-75526535D01*
X164752513Y-75505914D01*
X164595882Y-75526535D01*
X164595878Y-75526536D01*
X164449925Y-75586991D01*
X164404608Y-75621764D01*
X164404608Y-75621765D01*
X164763472Y-75980631D01*
X164767810Y-75988576D01*
X164775058Y-75994002D01*
X164784292Y-76018761D01*
X164796957Y-76041954D01*
X164796311Y-76050983D01*
X164799475Y-76059466D01*
X164793858Y-76085286D01*
X164791973Y-76111646D01*
X164786154Y-76120699D01*
X164784623Y-76127739D01*
X164763472Y-76155993D01*
X164655993Y-76263472D01*
X164594670Y-76296957D01*
X164524978Y-76291973D01*
X164480631Y-76263472D01*
X164121765Y-75904608D01*
X164121764Y-75904608D01*
X164086991Y-75949925D01*
X164026536Y-76095878D01*
X164026535Y-76095882D01*
X164005914Y-76252513D01*
X164026535Y-76409143D01*
X164026535Y-76409144D01*
X164086991Y-76555098D01*
X164086993Y-76555102D01*
X164099696Y-76571656D01*
X164109910Y-76598076D01*
X164124115Y-76611725D01*
X164124115Y-76611726D01*
X164424115Y-76900000D01*
X164426193Y-76898795D01*
X164512617Y-76974983D01*
X164522228Y-76990223D01*
X164533761Y-77001755D01*
X164534155Y-77001454D01*
X164536447Y-77004441D01*
X164538002Y-77005996D01*
X164539101Y-77007900D01*
X164611186Y-77101842D01*
X164611193Y-77101850D01*
X164850695Y-77341351D01*
X164850698Y-77341354D01*
X164850702Y-77341357D01*
X164944646Y-77413445D01*
X164944647Y-77413445D01*
X164951095Y-77418393D01*
X164950046Y-77419759D01*
X164991479Y-77463213D01*
X165002881Y-77495842D01*
X165030261Y-77633491D01*
X165030264Y-77633501D01*
X165090602Y-77779172D01*
X165090609Y-77779185D01*
X165178210Y-77910288D01*
X165178213Y-77910292D01*
X165254840Y-77986919D01*
X165288325Y-78048242D01*
X165283341Y-78117934D01*
X165241469Y-78173867D01*
X165176005Y-78198284D01*
X165167159Y-78198600D01*
X161737266Y-78198600D01*
X161670227Y-78178915D01*
X161668375Y-78177702D01*
X161536685Y-78089709D01*
X161536672Y-78089702D01*
X161394635Y-78030870D01*
X161369085Y-78010281D01*
X161342820Y-77990619D01*
X161342018Y-77988470D01*
X161340231Y-77987030D01*
X161329865Y-77955886D01*
X161318403Y-77925155D01*
X161318890Y-77922913D01*
X161318166Y-77920736D01*
X161326280Y-77888942D01*
X161333255Y-77856882D01*
X161335088Y-77854432D01*
X161335445Y-77853036D01*
X161354402Y-77828632D01*
X161392462Y-77790572D01*
X161453783Y-77757089D01*
X161455950Y-77756638D01*
X161513885Y-77745113D01*
X161611297Y-77725737D01*
X161756979Y-77665394D01*
X161888089Y-77577789D01*
X161999589Y-77466289D01*
X162087194Y-77335179D01*
X162090654Y-77326827D01*
X162120028Y-77255910D01*
X162147537Y-77189497D01*
X162178300Y-77034842D01*
X162178300Y-76877158D01*
X162178300Y-76877155D01*
X162178299Y-76877153D01*
X162165375Y-76812180D01*
X162147537Y-76722503D01*
X162143950Y-76713844D01*
X162087197Y-76576827D01*
X162087190Y-76576814D01*
X161999589Y-76445711D01*
X161999586Y-76445707D01*
X161888092Y-76334213D01*
X161888088Y-76334210D01*
X161756985Y-76246609D01*
X161756972Y-76246602D01*
X161611301Y-76186264D01*
X161611289Y-76186261D01*
X161456645Y-76155500D01*
X161456642Y-76155500D01*
X161298958Y-76155500D01*
X161298955Y-76155500D01*
X161144310Y-76186261D01*
X161144298Y-76186264D01*
X160998627Y-76246602D01*
X160998614Y-76246609D01*
X160867511Y-76334210D01*
X160867507Y-76334213D01*
X160756013Y-76445707D01*
X160756010Y-76445711D01*
X160668409Y-76576814D01*
X160668402Y-76576827D01*
X160647511Y-76627265D01*
X160603670Y-76681669D01*
X160537376Y-76703734D01*
X160469677Y-76686455D01*
X160422066Y-76635318D01*
X160418389Y-76627265D01*
X160397497Y-76576827D01*
X160397490Y-76576814D01*
X160309889Y-76445711D01*
X160309886Y-76445707D01*
X160198392Y-76334213D01*
X160198388Y-76334210D01*
X160067285Y-76246609D01*
X160067275Y-76246604D01*
X160005964Y-76221208D01*
X159951561Y-76177367D01*
X159931800Y-76130838D01*
X159910742Y-76024977D01*
X159905337Y-75997803D01*
X159905335Y-75997798D01*
X159844997Y-75852127D01*
X159844990Y-75852114D01*
X159757389Y-75721011D01*
X159757386Y-75721007D01*
X159645892Y-75609513D01*
X159645888Y-75609510D01*
X159514785Y-75521909D01*
X159514772Y-75521902D01*
X159369101Y-75461564D01*
X159369089Y-75461561D01*
X159214445Y-75430800D01*
X159214442Y-75430800D01*
X159056758Y-75430800D01*
X159056755Y-75430800D01*
X158902110Y-75461561D01*
X158902098Y-75461564D01*
X158756427Y-75521902D01*
X158756414Y-75521909D01*
X158625311Y-75609510D01*
X158625307Y-75609513D01*
X158513813Y-75721007D01*
X158513810Y-75721011D01*
X158426209Y-75852114D01*
X158426202Y-75852127D01*
X158365864Y-75997798D01*
X158365861Y-75997808D01*
X158334961Y-76153150D01*
X158302576Y-76215061D01*
X158301025Y-76216639D01*
X154509484Y-80008181D01*
X154448161Y-80041666D01*
X154421803Y-80044500D01*
X153590766Y-80044500D01*
X153523727Y-80024815D01*
X153521875Y-80023602D01*
X153390185Y-79935609D01*
X153390172Y-79935602D01*
X153244501Y-79875264D01*
X153244489Y-79875261D01*
X153089845Y-79844500D01*
X153089842Y-79844500D01*
X152932158Y-79844500D01*
X152932155Y-79844500D01*
X152777510Y-79875261D01*
X152777498Y-79875264D01*
X152631827Y-79935602D01*
X152631814Y-79935609D01*
X152500711Y-80023210D01*
X152500707Y-80023213D01*
X152389213Y-80134707D01*
X152389210Y-80134711D01*
X152301609Y-80265814D01*
X152301602Y-80265827D01*
X152241264Y-80411498D01*
X152241261Y-80411510D01*
X152210500Y-80566153D01*
X152210500Y-80723846D01*
X152241261Y-80878489D01*
X152241264Y-80878501D01*
X152301602Y-81024172D01*
X152301609Y-81024185D01*
X152389210Y-81155288D01*
X152389213Y-81155292D01*
X152500707Y-81266786D01*
X152500711Y-81266789D01*
X152631814Y-81354390D01*
X152631827Y-81354397D01*
X152777498Y-81414735D01*
X152777503Y-81414737D01*
X152932153Y-81445499D01*
X152932156Y-81445500D01*
X152932158Y-81445500D01*
X153089844Y-81445500D01*
X153089845Y-81445499D01*
X153244497Y-81414737D01*
X153390179Y-81354394D01*
X153444663Y-81317989D01*
X153521875Y-81266398D01*
X153588553Y-81245520D01*
X153590766Y-81245500D01*
X154250003Y-81245500D01*
X154317042Y-81265185D01*
X154362797Y-81317989D01*
X154372741Y-81387147D01*
X154343716Y-81450703D01*
X154337684Y-81457181D01*
X152677684Y-83117181D01*
X152616361Y-83150666D01*
X152590003Y-83153500D01*
X151225562Y-83153500D01*
X151158523Y-83133815D01*
X151112768Y-83081011D01*
X151103945Y-83053692D01*
X151072738Y-82896808D01*
X151072737Y-82896807D01*
X151072737Y-82896803D01*
X151068972Y-82887713D01*
X151012397Y-82751127D01*
X151012390Y-82751114D01*
X150924789Y-82620011D01*
X150924786Y-82620007D01*
X150813292Y-82508513D01*
X150813288Y-82508510D01*
X150755608Y-82469969D01*
X150710803Y-82416356D01*
X150700499Y-82366867D01*
X150700499Y-82150637D01*
X150685082Y-82033524D01*
X150695848Y-81964489D01*
X150700000Y-81958584D01*
X150700000Y-81432211D01*
X150687933Y-81411996D01*
X150685059Y-81397191D01*
X150684555Y-81393366D01*
X150624100Y-81247414D01*
X150527924Y-81122075D01*
X150402586Y-81025899D01*
X150256631Y-80965444D01*
X150200000Y-80957987D01*
X150200000Y-81465500D01*
X150197449Y-81474185D01*
X150198738Y-81483147D01*
X150187759Y-81507187D01*
X150180315Y-81532539D01*
X150173474Y-81538466D01*
X150169713Y-81546703D01*
X150147478Y-81560992D01*
X150127511Y-81578294D01*
X150116996Y-81580581D01*
X150110935Y-81584477D01*
X150076000Y-81589500D01*
X149924000Y-81589500D01*
X149856961Y-81569815D01*
X149811206Y-81517011D01*
X149800000Y-81465500D01*
X149800000Y-80957987D01*
X149743368Y-80965444D01*
X149597413Y-81025899D01*
X149472071Y-81122078D01*
X149456175Y-81142794D01*
X149442362Y-81152878D01*
X149432112Y-81166572D01*
X149414728Y-81173055D01*
X149399746Y-81183995D01*
X149382674Y-81185011D01*
X149366648Y-81190989D01*
X149348519Y-81187045D01*
X149330000Y-81188148D01*
X149314740Y-81179697D01*
X149298375Y-81176137D01*
X149270121Y-81154986D01*
X149108790Y-80993655D01*
X149108788Y-80993652D01*
X148989917Y-80874781D01*
X148989916Y-80874780D01*
X148903104Y-80824660D01*
X148903104Y-80824659D01*
X148903100Y-80824658D01*
X148852985Y-80795723D01*
X148700257Y-80754799D01*
X148542143Y-80754799D01*
X148534547Y-80754799D01*
X148534531Y-80754800D01*
X148157066Y-80754800D01*
X148090027Y-80735115D01*
X148088175Y-80733902D01*
X147956485Y-80645909D01*
X147956472Y-80645902D01*
X147810801Y-80585564D01*
X147810789Y-80585561D01*
X147656145Y-80554800D01*
X147656142Y-80554800D01*
X147498458Y-80554800D01*
X147498455Y-80554800D01*
X147343810Y-80585561D01*
X147343798Y-80585564D01*
X147198127Y-80645902D01*
X147198114Y-80645909D01*
X147067011Y-80733510D01*
X147067007Y-80733513D01*
X146955513Y-80845007D01*
X146955510Y-80845011D01*
X146867909Y-80976114D01*
X146867902Y-80976127D01*
X146807564Y-81121798D01*
X146807561Y-81121810D01*
X146776800Y-81276453D01*
X146776800Y-81404600D01*
X146757115Y-81471639D01*
X146704311Y-81517394D01*
X146652800Y-81528600D01*
X136042632Y-81528600D01*
X136010981Y-81523904D01*
X136010972Y-81523951D01*
X136010020Y-81523761D01*
X136006632Y-81523259D01*
X136004992Y-81522761D01*
X135850345Y-81492000D01*
X135850342Y-81492000D01*
X135692658Y-81492000D01*
X135692655Y-81492000D01*
X135538010Y-81522761D01*
X135537998Y-81522764D01*
X135392327Y-81583102D01*
X135392314Y-81583109D01*
X135261211Y-81670710D01*
X135261207Y-81670713D01*
X135149713Y-81782207D01*
X135149710Y-81782211D01*
X135062109Y-81913314D01*
X135062102Y-81913327D01*
X135001764Y-82058998D01*
X135001761Y-82059010D01*
X134971000Y-82213653D01*
X134971000Y-82371346D01*
X135001761Y-82525989D01*
X135001764Y-82526001D01*
X135062102Y-82671672D01*
X135062109Y-82671685D01*
X135149709Y-82802787D01*
X135149710Y-82802788D01*
X135149711Y-82802789D01*
X135261211Y-82914289D01*
X135261214Y-82914291D01*
X135261215Y-82914292D01*
X135271038Y-82920855D01*
X135289834Y-82936280D01*
X135953554Y-83600000D01*
X135947339Y-83600000D01*
X135845606Y-83627259D01*
X135754394Y-83679920D01*
X135679920Y-83754394D01*
X135627259Y-83845606D01*
X135600000Y-83947339D01*
X135600000Y-83953553D01*
X134920524Y-83274077D01*
X134920523Y-83274077D01*
X134888143Y-83318644D01*
X134795244Y-83500968D01*
X134732009Y-83695582D01*
X134700000Y-83897682D01*
X131430974Y-83897682D01*
X131402586Y-83875899D01*
X131256631Y-83815444D01*
X131200000Y-83807987D01*
X131200000Y-84315500D01*
X131197449Y-84324185D01*
X131198738Y-84333147D01*
X131187759Y-84357187D01*
X131180315Y-84382539D01*
X131173474Y-84388466D01*
X131169713Y-84396703D01*
X131147478Y-84410992D01*
X131127511Y-84428294D01*
X131116996Y-84430581D01*
X131110935Y-84434477D01*
X131076000Y-84439500D01*
X130924000Y-84439500D01*
X130856961Y-84419815D01*
X130811206Y-84367011D01*
X130800000Y-84315500D01*
X130800000Y-83807987D01*
X130743368Y-83815444D01*
X130671952Y-83845025D01*
X130602482Y-83852494D01*
X130540003Y-83821218D01*
X130504352Y-83761129D01*
X130500500Y-83730464D01*
X130500500Y-79870353D01*
X133406800Y-79870353D01*
X133406800Y-80028046D01*
X133437561Y-80182689D01*
X133437564Y-80182701D01*
X133497902Y-80328372D01*
X133497909Y-80328385D01*
X133585510Y-80459488D01*
X133585513Y-80459492D01*
X133697007Y-80570986D01*
X133697011Y-80570989D01*
X133828114Y-80658590D01*
X133828127Y-80658597D01*
X133973798Y-80718935D01*
X133973803Y-80718937D01*
X134128453Y-80749699D01*
X134128456Y-80749700D01*
X134128458Y-80749700D01*
X134286144Y-80749700D01*
X134286145Y-80749699D01*
X134440797Y-80718937D01*
X134586479Y-80658594D01*
X134717589Y-80570989D01*
X134829089Y-80459489D01*
X134916694Y-80328379D01*
X134977037Y-80182697D01*
X135007800Y-80028042D01*
X135007800Y-79870358D01*
X135007800Y-79870355D01*
X135007799Y-79870353D01*
X134977038Y-79715710D01*
X134977037Y-79715703D01*
X134928946Y-79599599D01*
X134916697Y-79570027D01*
X134916690Y-79570014D01*
X134828698Y-79438325D01*
X134807820Y-79371647D01*
X134807800Y-79369434D01*
X134807800Y-77596056D01*
X134827485Y-77529017D01*
X134880289Y-77483262D01*
X134901709Y-77477116D01*
X134901425Y-77476056D01*
X134909273Y-77473952D01*
X134909275Y-77473952D01*
X135012564Y-77431168D01*
X135055352Y-77413446D01*
X135055355Y-77413444D01*
X135055922Y-77413009D01*
X135149298Y-77341359D01*
X135388809Y-77101846D01*
X135460897Y-77007902D01*
X135460901Y-77007890D01*
X135461991Y-77006005D01*
X135486994Y-76975326D01*
X135573593Y-76898337D01*
X135575000Y-76900000D01*
X135836807Y-76647682D01*
X137450000Y-76647682D01*
X137450000Y-76852317D01*
X137482009Y-77054417D01*
X137545244Y-77249031D01*
X137638141Y-77431350D01*
X137638147Y-77431359D01*
X137670523Y-77475921D01*
X137670524Y-77475922D01*
X138350000Y-76796446D01*
X138350000Y-76802661D01*
X138377259Y-76904394D01*
X138429920Y-76995606D01*
X138504394Y-77070080D01*
X138595606Y-77122741D01*
X138697339Y-77150000D01*
X138703553Y-77150000D01*
X138024076Y-77829474D01*
X138068650Y-77861859D01*
X138250968Y-77954755D01*
X138445582Y-78017990D01*
X138647683Y-78050000D01*
X138852317Y-78050000D01*
X139054417Y-78017990D01*
X139249031Y-77954755D01*
X139431349Y-77861859D01*
X139475921Y-77829474D01*
X138796447Y-77150000D01*
X138802661Y-77150000D01*
X138904394Y-77122741D01*
X138995606Y-77070080D01*
X139070080Y-76995606D01*
X139122741Y-76904394D01*
X139150000Y-76802661D01*
X139150000Y-76796448D01*
X139829474Y-77475922D01*
X139829474Y-77475921D01*
X139861859Y-77431349D01*
X139889233Y-77377624D01*
X139937207Y-77326827D01*
X140005028Y-77310031D01*
X140071163Y-77332567D01*
X140110203Y-77377621D01*
X140137713Y-77431611D01*
X140258028Y-77597213D01*
X140402786Y-77741971D01*
X140522062Y-77828628D01*
X140568390Y-77862287D01*
X140662597Y-77910288D01*
X140750776Y-77955218D01*
X140750778Y-77955218D01*
X140750781Y-77955220D01*
X140848682Y-77987030D01*
X140945465Y-78018477D01*
X141014196Y-78029363D01*
X141147648Y-78050500D01*
X141147649Y-78050500D01*
X141352351Y-78050500D01*
X141352352Y-78050500D01*
X141554534Y-78018477D01*
X141749219Y-77955220D01*
X141931610Y-77862287D01*
X142045991Y-77779185D01*
X142097213Y-77741971D01*
X142097215Y-77741968D01*
X142097219Y-77741966D01*
X142241966Y-77597219D01*
X142241968Y-77597215D01*
X142241971Y-77597213D01*
X142331524Y-77473952D01*
X142362287Y-77431610D01*
X142417371Y-77323500D01*
X142465344Y-77272706D01*
X142533165Y-77255910D01*
X142599300Y-77278447D01*
X142615536Y-77292115D01*
X142643507Y-77320086D01*
X142643511Y-77320089D01*
X142774614Y-77407690D01*
X142774627Y-77407697D01*
X142916083Y-77466289D01*
X142920303Y-77468037D01*
X143060087Y-77495842D01*
X143074953Y-77498799D01*
X143074956Y-77498800D01*
X143074958Y-77498800D01*
X143232644Y-77498800D01*
X143232645Y-77498799D01*
X143387297Y-77468037D01*
X143520145Y-77413010D01*
X143532972Y-77407697D01*
X143532972Y-77407696D01*
X143532979Y-77407694D01*
X143664089Y-77320089D01*
X143775589Y-77208589D01*
X143863194Y-77077479D01*
X143887264Y-77019368D01*
X143915688Y-76950747D01*
X143959529Y-76896344D01*
X144025823Y-76874279D01*
X144030249Y-76874200D01*
X144337022Y-76874200D01*
X144358301Y-76880448D01*
X144380421Y-76882043D01*
X144399230Y-76892466D01*
X144404061Y-76893885D01*
X144411388Y-76898975D01*
X144411996Y-76899430D01*
X144492098Y-76960897D01*
X144496371Y-76962666D01*
X144506365Y-76970157D01*
X144518818Y-76986812D01*
X144533808Y-77001802D01*
X144534593Y-77001201D01*
X144539163Y-77007157D01*
X144539383Y-77007377D01*
X144539538Y-77007645D01*
X144606141Y-77094446D01*
X144616546Y-77098256D01*
X144633945Y-77113857D01*
X144875000Y-77375000D01*
X144879549Y-77379928D01*
X144926256Y-77398702D01*
X144944899Y-77413007D01*
X144944901Y-77413008D01*
X145090856Y-77473464D01*
X145247487Y-77494085D01*
X145404117Y-77473464D01*
X145404121Y-77473463D01*
X145550069Y-77413010D01*
X145550078Y-77413005D01*
X145595390Y-77378234D01*
X145595391Y-77378232D01*
X145236527Y-77019368D01*
X145232188Y-77011422D01*
X145224941Y-77005997D01*
X145215706Y-76981237D01*
X145203042Y-76958045D01*
X145203687Y-76949015D01*
X145200524Y-76940533D01*
X145206140Y-76914712D01*
X145208026Y-76888353D01*
X145213844Y-76879299D01*
X145215376Y-76872260D01*
X145236522Y-76844012D01*
X145344007Y-76736526D01*
X145405329Y-76703042D01*
X145475021Y-76708026D01*
X145519368Y-76736527D01*
X145878232Y-77095391D01*
X145878234Y-77095390D01*
X145913005Y-77050078D01*
X145913010Y-77050069D01*
X145973463Y-76904121D01*
X145973464Y-76904117D01*
X145994085Y-76747487D01*
X145973464Y-76590856D01*
X145973464Y-76590855D01*
X145913007Y-76444899D01*
X145848042Y-76360233D01*
X145830885Y-76353950D01*
X145816926Y-76341926D01*
X145612948Y-76137948D01*
X145575000Y-76100000D01*
X145572733Y-76101782D01*
X145486464Y-76024199D01*
X145477233Y-76009235D01*
X145466241Y-75998243D01*
X145465846Y-75998547D01*
X145463540Y-75995542D01*
X145461989Y-75993991D01*
X145460899Y-75992103D01*
X145460897Y-75992098D01*
X145458194Y-75988576D01*
X145442314Y-75967880D01*
X145388811Y-75898154D01*
X145340657Y-75850000D01*
X145149304Y-75658648D01*
X145149300Y-75658645D01*
X145149298Y-75658643D01*
X145055354Y-75586555D01*
X145055352Y-75586554D01*
X144909278Y-75526049D01*
X144909276Y-75526048D01*
X144909275Y-75526048D01*
X144804767Y-75512288D01*
X144752514Y-75505409D01*
X144752512Y-75505409D01*
X144674132Y-75515728D01*
X144595751Y-75526048D01*
X144595750Y-75526048D01*
X144595747Y-75526049D01*
X144449674Y-75586553D01*
X144449101Y-75586993D01*
X144370147Y-75647576D01*
X144304979Y-75672770D01*
X144294662Y-75673200D01*
X143657457Y-75673200D01*
X143499343Y-75673200D01*
X143346615Y-75714123D01*
X143346614Y-75714123D01*
X143346612Y-75714124D01*
X143346609Y-75714125D01*
X143303522Y-75739002D01*
X143303517Y-75739005D01*
X143296495Y-75743060D01*
X143209684Y-75793180D01*
X143133381Y-75869482D01*
X143126916Y-75874441D01*
X143101615Y-75884214D01*
X143077813Y-75897211D01*
X143075648Y-75897662D01*
X142920308Y-75928561D01*
X142920298Y-75928564D01*
X142774627Y-75988902D01*
X142774614Y-75988909D01*
X142643511Y-76076510D01*
X142580635Y-76139386D01*
X142519311Y-76172870D01*
X142449620Y-76167885D01*
X142393686Y-76126014D01*
X142382470Y-76108000D01*
X142362286Y-76068388D01*
X142241971Y-75902786D01*
X142097213Y-75758028D01*
X141931613Y-75637715D01*
X141931612Y-75637714D01*
X141931610Y-75637713D01*
X141832061Y-75586990D01*
X141749223Y-75544781D01*
X141554534Y-75481522D01*
X141379995Y-75453878D01*
X141352352Y-75449500D01*
X141147648Y-75449500D01*
X141123329Y-75453351D01*
X140945465Y-75481522D01*
X140750776Y-75544781D01*
X140568386Y-75637715D01*
X140402786Y-75758028D01*
X140258028Y-75902786D01*
X140137714Y-76068386D01*
X140110203Y-76122379D01*
X140062227Y-76173174D01*
X139994406Y-76189968D01*
X139928272Y-76167429D01*
X139889234Y-76122376D01*
X139861861Y-76068652D01*
X139829474Y-76024077D01*
X139829474Y-76024076D01*
X139150000Y-76703551D01*
X139150000Y-76697339D01*
X139122741Y-76595606D01*
X139070080Y-76504394D01*
X138995606Y-76429920D01*
X138904394Y-76377259D01*
X138802661Y-76350000D01*
X138796446Y-76350000D01*
X139475922Y-75670524D01*
X139475921Y-75670523D01*
X139431359Y-75638147D01*
X139431350Y-75638141D01*
X139249031Y-75545244D01*
X139054417Y-75482009D01*
X138852317Y-75450000D01*
X138647683Y-75450000D01*
X138445582Y-75482009D01*
X138250968Y-75545244D01*
X138068644Y-75638143D01*
X138024077Y-75670523D01*
X138024077Y-75670524D01*
X138703554Y-76350000D01*
X138697339Y-76350000D01*
X138595606Y-76377259D01*
X138504394Y-76429920D01*
X138429920Y-76504394D01*
X138377259Y-76595606D01*
X138350000Y-76697339D01*
X138350000Y-76703553D01*
X137670524Y-76024077D01*
X137670523Y-76024077D01*
X137638143Y-76068644D01*
X137545244Y-76250968D01*
X137482009Y-76445582D01*
X137450000Y-76647682D01*
X135836807Y-76647682D01*
X135874115Y-76611726D01*
X135874114Y-76611725D01*
X135888928Y-76597449D01*
X135893726Y-76580972D01*
X135899820Y-76572284D01*
X135903623Y-76567328D01*
X135903626Y-76567325D01*
X135903628Y-76567322D01*
X135913005Y-76555102D01*
X135973464Y-76409143D01*
X135994085Y-76252513D01*
X135973464Y-76095882D01*
X135973463Y-76095878D01*
X135913009Y-75949928D01*
X135913008Y-75949927D01*
X135878233Y-75904608D01*
X135878232Y-75904608D01*
X135519368Y-76263471D01*
X135511422Y-76267809D01*
X135505997Y-76275057D01*
X135481237Y-76284291D01*
X135458045Y-76296956D01*
X135449015Y-76296310D01*
X135440533Y-76299474D01*
X135414712Y-76293857D01*
X135388353Y-76291972D01*
X135379299Y-76286153D01*
X135372260Y-76284622D01*
X135344006Y-76263471D01*
X135236527Y-76155992D01*
X135203042Y-76094669D01*
X135208026Y-76024977D01*
X135236527Y-75980630D01*
X135587054Y-75630102D01*
X135595390Y-75621765D01*
X135595390Y-75621764D01*
X135550077Y-75586993D01*
X135550071Y-75586990D01*
X135404121Y-75526536D01*
X135404117Y-75526535D01*
X135247487Y-75505914D01*
X135090856Y-75526535D01*
X135090855Y-75526535D01*
X134944898Y-75586993D01*
X134889122Y-75629790D01*
X134852857Y-75649047D01*
X134850000Y-75649999D01*
X134600002Y-75899996D01*
X134532829Y-76000755D01*
X134497986Y-76033425D01*
X134498546Y-76034155D01*
X134398157Y-76111186D01*
X134398149Y-76111193D01*
X134158648Y-76350695D01*
X134158645Y-76350699D01*
X134086555Y-76444645D01*
X134086554Y-76444647D01*
X134026047Y-76590725D01*
X134023944Y-76598576D01*
X134022003Y-76598056D01*
X133998111Y-76652046D01*
X133991130Y-76659633D01*
X133831514Y-76819248D01*
X133831515Y-76819249D01*
X133726778Y-76923986D01*
X133691363Y-76985329D01*
X133691362Y-76985331D01*
X133647723Y-77060914D01*
X133643283Y-77077485D01*
X133606799Y-77213643D01*
X133606799Y-77213645D01*
X133606799Y-77381746D01*
X133606800Y-77381759D01*
X133606800Y-79369434D01*
X133587115Y-79436473D01*
X133585902Y-79438325D01*
X133497909Y-79570014D01*
X133497902Y-79570027D01*
X133437564Y-79715698D01*
X133437561Y-79715710D01*
X133406800Y-79870353D01*
X130500500Y-79870353D01*
X130500500Y-79258676D01*
X130520185Y-79191637D01*
X130536819Y-79170995D01*
X137586661Y-72121153D01*
X138356600Y-72121153D01*
X138356600Y-72278846D01*
X138387361Y-72433489D01*
X138387364Y-72433501D01*
X138447702Y-72579172D01*
X138447709Y-72579185D01*
X138535310Y-72710288D01*
X138535313Y-72710292D01*
X138646807Y-72821786D01*
X138646811Y-72821789D01*
X138777914Y-72909390D01*
X138777927Y-72909397D01*
X138898200Y-72959215D01*
X138923603Y-72969737D01*
X139078253Y-73000499D01*
X139078256Y-73000500D01*
X139078258Y-73000500D01*
X139235944Y-73000500D01*
X139235945Y-73000499D01*
X139390597Y-72969737D01*
X139455077Y-72943028D01*
X139524543Y-72935560D01*
X139578014Y-72959215D01*
X139597410Y-72974098D01*
X139597412Y-72974100D01*
X139743366Y-73034555D01*
X139743372Y-73034557D01*
X139799998Y-73042011D01*
X139800000Y-73042010D01*
X139800000Y-72716309D01*
X139803343Y-72702717D01*
X139802395Y-72692057D01*
X139811181Y-72670859D01*
X139814153Y-72658780D01*
X139817222Y-72652918D01*
X139866494Y-72579179D01*
X139906783Y-72481909D01*
X139909371Y-72476970D01*
X139929928Y-72455686D01*
X139948498Y-72432643D01*
X139953932Y-72430834D01*
X139957912Y-72426714D01*
X139986717Y-72419922D01*
X140014792Y-72410578D01*
X140019218Y-72410499D01*
X140076000Y-72410499D01*
X140143039Y-72430184D01*
X140188794Y-72482988D01*
X140200000Y-72534499D01*
X140200000Y-73042010D01*
X140200001Y-73042011D01*
X140256627Y-73034557D01*
X140256633Y-73034555D01*
X140402585Y-72974100D01*
X140527924Y-72877924D01*
X140624100Y-72752586D01*
X140684554Y-72606634D01*
X140685305Y-72600934D01*
X140700000Y-72567713D01*
X140700000Y-71861050D01*
X140700265Y-71852941D01*
X140700497Y-71849381D01*
X140700500Y-71849361D01*
X140700499Y-71510640D01*
X140700499Y-71510636D01*
X140685046Y-71393246D01*
X140685044Y-71393241D01*
X140685044Y-71393238D01*
X140624536Y-71247159D01*
X140528282Y-71121718D01*
X140402841Y-71025464D01*
X140256762Y-70964956D01*
X140256760Y-70964955D01*
X140139361Y-70949500D01*
X139860636Y-70949500D01*
X139743246Y-70964953D01*
X139743234Y-70964957D01*
X139597163Y-71025461D01*
X139597162Y-71025461D01*
X139581149Y-71037748D01*
X139560130Y-71053876D01*
X139494964Y-71079070D01*
X139484646Y-71079500D01*
X139420357Y-71079500D01*
X139262243Y-71079500D01*
X139109515Y-71120423D01*
X139109514Y-71120423D01*
X139109512Y-71120424D01*
X139109509Y-71120425D01*
X139059396Y-71149359D01*
X139059395Y-71149360D01*
X139015989Y-71174420D01*
X138972585Y-71199479D01*
X138972582Y-71199481D01*
X138676581Y-71495482D01*
X138676575Y-71495490D01*
X138630962Y-71574494D01*
X138630961Y-71574499D01*
X138612400Y-71606646D01*
X138592697Y-71632324D01*
X138535308Y-71689714D01*
X138447709Y-71820814D01*
X138447702Y-71820827D01*
X138387364Y-71966498D01*
X138387361Y-71966510D01*
X138356600Y-72121153D01*
X137586661Y-72121153D01*
X139170995Y-70536819D01*
X139232318Y-70503334D01*
X139258676Y-70500500D01*
X140741324Y-70500500D01*
X140808363Y-70520185D01*
G37*
%TD.AperFunction*%
%TD*%
M02*
